<?xml version="1.0" standalone="no"?>
<!DOCTYPE svg PUBLIC "-//W3C//DTD SVG 20010904//EN"
 "http://www.w3.org/TR/2001/REC-SVG-20010904/DTD/svg10.dtd">
<svg version="1.0" xmlns="http://www.w3.org/2000/svg"
 width="120.000000pt" height="120.000000pt" viewBox="0 0 120.000000 120.000000"
 preserveAspectRatio="xMidYMid meet">

<g transform="translate(0.000000,120.000000) scale(0.100000,-0.100000)"
fill="#000000" stroke="none">
<path d="M560 719 c-129 -9 -252 -18 -274 -18 -32 -1 -37 -4 -31 -18 23 -52
27 -120 12 -171 l-15 -52 32 -4 c17 -3 74 -8 126 -11 l95 -6 28 35 c15 20 46
46 69 57 89 45 226 6 265 -76 9 -19 21 -35 27 -35 23 0 77 41 96 72 26 42 25
46 -5 54 -28 7 -29 8 -15 34 6 11 17 17 25 14 23 -9 19 32 -7 74 -26 43 -88
72 -148 70 -25 0 -151 -9 -280 -19z"/>
<path d="M153 653 c-20 -50 -14 -144 12 -173 18 -20 19 -20 38 -2 27 27 34
125 14 175 -20 47 -44 48 -64 0z"/>
<path d="M623 490 c-101 -45 -122 -180 -41 -257 105 -100 268 -31 268 113 0
65 -29 111 -90 142 -54 27 -82 27 -137 2z"/>
<path d="M447 393 c-14 -13 -6 -85 12 -122 17 -32 58 -71 75 -71 3 0 -6 20
-20 44 -15 27 -25 62 -26 92 -2 53 -20 78 -41 57z"/>
</g>
</svg>
