<?xml version="1.0" standalone="no"?>
<!DOCTYPE svg PUBLIC "-//W3C//DTD SVG 20010904//EN"
 "http://www.w3.org/TR/2001/REC-SVG-20010904/DTD/svg10.dtd">
<svg version="1.0" xmlns="http://www.w3.org/2000/svg"
 width="120.000000pt" height="120.000000pt" viewBox="0 0 120.000000 120.000000"
 preserveAspectRatio="xMidYMid meet">

<g transform="translate(0.000000,120.000000) scale(0.100000,-0.100000)"
fill="#000000" stroke="none">
<path d="M0 600 l0 -600 600 0 600 0 0 600 0 600 -600 0 -600 0 0 -600z m926
121 c24 -11 50 -33 62 -53 26 -42 30 -83 7 -74 -8 3 -19 -3 -25 -14 -14 -26
-13 -27 15 -34 30 -8 31 -12 5 -54 -19 -31 -73 -72 -96 -72 -6 0 -18 16 -27
35 -39 82 -176 121 -265 76 -23 -11 -54 -37 -69 -57 l-28 -35 -95 6 c-52 3
-109 8 -126 11 l-32 4 15 52 c15 51 11 119 -12 171 -6 14 -1 17 31 18 22 0
145 9 274 18 307 24 318 24 366 2z m-709 -68 c20 -50 13 -148 -14 -175 -19
-18 -20 -18 -38 2 -40 45 -25 210 20 210 9 0 23 -16 32 -37z m543 -165 c61
-31 90 -77 90 -142 0 -144 -163 -213 -268 -113 -81 77 -60 212 41 257 55 25
83 25 137 -2z m-284 -96 c5 -4 11 -29 12 -56 1 -30 11 -65 26 -92 27 -49 26
-51 -10 -27 -34 22 -64 84 -64 131 0 49 11 62 36 44z"/>
</g>
</svg>
