<svg version="1.1" id="Layer_1" xmlns="http://www.w3.org/2000/svg" xmlns:xlink="http://www.w3.org/1999/xlink" x="0px" y="0px"
	 width="100%" viewBox="0 0 120 120" enable-background="new 0 0 120 120" xml:space="preserve">
<path fill="#010101" opacity="1.000000" stroke="none" 
	d="
M57.000000,121.000000 
	C38.000000,121.000000 19.500000,121.000000 1.000000,121.000000 
	C1.000000,81.000000 1.000000,41.000000 1.000000,1.000000 
	C41.000000,1.000000 81.000000,1.000000 121.000000,1.000000 
	C121.000000,41.000000 121.000000,81.000000 121.000000,121.000000 
	C99.833336,121.000000 78.666664,121.000000 57.000000,121.000000 
M39.040436,60.197567 
	C40.265644,63.679749 43.002327,64.646576 46.188046,63.843155 
	C53.911179,61.895435 61.595406,62.559681 69.257484,63.863518 
	C75.263237,64.885498 79.264778,62.322918 78.836082,56.222118 
	C78.540627,52.017502 77.410950,47.026295 74.781883,44.028641 
	C70.821815,39.513378 65.563919,35.745659 60.156754,33.084335 
	C58.021645,32.033474 53.894157,34.562595 50.885860,35.928471 
	C49.064922,36.755238 47.565617,38.388100 46.068478,39.812908 
	C40.462055,45.148487 37.277691,51.410042 39.040436,60.197567 
M26.579468,94.892357 
	C24.770494,96.521858 20.890184,96.792427 22.341772,100.485428 
	C27.546881,99.581993 32.422230,98.191284 37.341625,98.012489 
	C44.320091,97.758873 51.224743,97.909485 57.641186,94.483536 
	C58.378437,94.089905 59.734146,94.846642 60.801003,95.079613 
	C65.249443,96.051025 69.657158,97.528244 74.154083,97.885765 
	C81.456818,98.466362 88.995117,96.735817 95.880005,100.840866 
	C96.727180,101.345985 98.418320,100.435638 99.718361,100.181229 
	C92.506241,95.210831 84.954803,91.749718 76.576157,93.160034 
	C70.556114,94.173340 65.592033,92.909386 60.489841,90.145103 
	C59.297382,89.499054 56.900318,89.803802 55.725273,90.625763 
	C51.396809,93.653580 46.573120,96.127754 41.750427,93.653893 
	C36.317810,90.867165 31.990654,92.562759 26.579468,94.892357 
M45.003994,74.240334 
	C54.607353,70.864685 64.218849,71.356094 74.121490,74.385033 
	C73.197891,71.956055 72.305504,69.011627 70.651962,68.492737 
	C63.502930,66.249321 56.204815,65.528236 48.678753,67.591927 
	C44.854233,68.640617 43.856133,70.528358 45.003994,74.240334 
M66.829414,82.150734 
	C68.937836,81.635818 71.046257,81.120903 73.826538,80.441910 
	C64.384743,74.309479 51.087582,74.575134 44.217033,80.481819 
	C51.345833,83.306252 58.641773,83.513611 66.829414,82.150734 
M60.503857,27.107311 
	C61.020451,25.575285 62.345798,23.651899 61.843124,22.613108 
	C61.252522,21.392611 58.425880,19.923758 57.723881,20.371868 
	C56.373070,21.234142 55.835278,23.370073 54.960304,24.977781 
	C56.605934,25.840290 58.251560,26.702801 60.503857,27.107311 
z"/>
<path fill="#CC0000" opacity="1.000000" stroke="none" 
	d="
M38.965851,59.802925 
	C37.277691,51.410042 40.462055,45.148487 46.068478,39.812908 
	C47.565617,38.388100 49.064922,36.755238 50.885860,35.928471 
	C53.894157,34.562595 58.021645,32.033474 60.156754,33.084335 
	C65.563919,35.745659 70.821815,39.513378 74.781883,44.028641 
	C77.410950,47.026295 78.540627,52.017502 78.836082,56.222118 
	C79.264778,62.322918 75.263237,64.885498 69.257484,63.863518 
	C61.595406,62.559681 53.911179,61.895435 46.188046,63.843155 
	C43.002327,64.646576 40.265644,63.679749 38.965851,59.802925 
M59.951981,42.647343 
	C58.997604,42.539413 58.043224,42.431488 57.088848,42.323563 
	C57.719166,45.599667 55.461697,45.973331 53.110851,46.514153 
	C52.339867,46.691521 51.315678,47.675610 51.229572,48.389915 
	C51.142258,49.114239 52.102795,50.664040 52.549976,50.643906 
	C56.404930,50.470310 56.903561,53.264488 57.751766,55.944023 
	C57.901348,56.416573 58.953621,56.603374 60.151001,57.204056 
	C60.151001,54.896023 60.151001,53.215004 60.151001,51.498814 
	C62.555679,50.927441 64.780609,50.398781 67.005539,49.870117 
	C67.077194,49.434708 67.148849,48.999298 67.220505,48.563889 
	C65.983299,47.986122 64.624779,47.575386 63.540154,46.787560 
	C62.236607,45.840717 61.166225,44.572887 59.951981,42.647343 
z"/>
<path fill="#CB0101" opacity="1.000000" stroke="none" 
	d="
M26.947758,94.776733 
	C31.990654,92.562759 36.317810,90.867165 41.750427,93.653893 
	C46.573120,96.127754 51.396809,93.653580 55.725273,90.625763 
	C56.900318,89.803802 59.297382,89.499054 60.489841,90.145103 
	C65.592033,92.909386 70.556114,94.173340 76.576157,93.160034 
	C84.954803,91.749718 92.506241,95.210831 99.718361,100.181229 
	C98.418320,100.435638 96.727180,101.345985 95.880005,100.840866 
	C88.995117,96.735817 81.456818,98.466362 74.154083,97.885765 
	C69.657158,97.528244 65.249443,96.051025 60.801003,95.079613 
	C59.734146,94.846642 58.378437,94.089905 57.641186,94.483536 
	C51.224743,97.909485 44.320091,97.758873 37.341625,98.012489 
	C32.422230,98.191284 27.546881,99.581993 22.341772,100.485428 
	C20.890184,96.792427 24.770494,96.521858 26.947758,94.776733 
z"/>
<path fill="#CB0101" opacity="1.000000" stroke="none" 
	d="
M44.697784,74.109970 
	C43.856133,70.528358 44.854233,68.640617 48.678753,67.591927 
	C56.204815,65.528236 63.502930,66.249321 70.651962,68.492737 
	C72.305504,69.011627 73.197891,71.956055 74.121490,74.385033 
	C64.218849,71.356094 54.607353,70.864685 44.697784,74.109970 
z"/>
<path fill="#CB0101" opacity="1.000000" stroke="none" 
	d="
M66.444778,82.209663 
	C58.641773,83.513611 51.345833,83.306252 44.217033,80.481819 
	C51.087582,74.575134 64.384743,74.309479 73.826538,80.441910 
	C71.046257,81.120903 68.937836,81.635818 66.444778,82.209663 
z"/>
<path fill="#CC0000" opacity="1.000000" stroke="none" 
	d="
M60.200523,27.336311 
	C58.251560,26.702801 56.605934,25.840290 54.960304,24.977783 
	C55.835278,23.370073 56.373070,21.234142 57.723881,20.371868 
	C58.425880,19.923758 61.252522,21.392611 61.843124,22.613108 
	C62.345798,23.651899 61.020451,25.575285 60.200523,27.336311 
z"/>
<path fill="#020202" opacity="1.000000" stroke="none" 
	d="
M59.973434,43.045689 
	C61.166225,44.572887 62.236607,45.840717 63.540154,46.787560 
	C64.624779,47.575386 65.983299,47.986122 67.220505,48.563889 
	C67.148849,48.999298 67.077194,49.434708 67.005539,49.870117 
	C64.780609,50.398781 62.555679,50.927441 60.151001,51.498814 
	C60.151001,53.215004 60.151001,54.896023 60.151001,57.204056 
	C58.953621,56.603374 57.901348,56.416573 57.751766,55.944023 
	C56.903561,53.264488 56.404930,50.470310 52.549976,50.643906 
	C52.102795,50.664040 51.142258,49.114239 51.229572,48.389915 
	C51.315678,47.675610 52.339867,46.691521 53.110851,46.514153 
	C55.461697,45.973331 57.719166,45.599667 57.088848,42.323563 
	C58.043224,42.431488 58.997604,42.539413 59.973434,43.045689 
z"/>
</svg>