<svg version="1.1" id="Layer_1" xmlns="http://www.w3.org/2000/svg" xmlns:xlink="http://www.w3.org/1999/xlink" x="0px" y="0px"
	 width="100%" viewBox="0 0 120 120" enable-background="new 0 0 120 120" xml:space="preserve">
<path fill="#000000" opacity="1.000000" stroke="none" 
	d="
M82.000000,121.000000 
	C54.666668,121.000000 27.833334,121.000000 1.000000,121.000000 
	C1.000000,81.000000 1.000000,41.000000 1.000000,1.000000 
	C41.000000,1.000000 81.000000,1.000000 121.000000,1.000000 
	C121.000000,41.000000 121.000000,81.000000 121.000000,121.000000 
	C108.166664,121.000000 95.333336,121.000000 82.000000,121.000000 
M33.090889,102.030983 
	C39.163822,101.692604 45.248005,101.483841 51.304695,100.958260 
	C54.109642,100.714867 56.914845,99.191460 59.625462,99.411598 
	C65.227173,99.866547 70.751442,101.737228 76.333405,101.861076 
	C84.072792,102.032791 91.619530,102.084076 97.608597,106.974106 
	C101.125275,103.504807 104.367538,100.306221 107.997681,96.724983 
	C104.449860,95.414322 101.006798,94.174263 97.588120,92.870255 
	C94.297081,91.614929 91.125336,89.868065 87.728737,89.117134 
	C84.113991,88.317970 80.300949,88.335220 76.566841,88.180382 
	C73.203484,88.040909 69.829788,88.150963 66.460648,88.150963 
	C69.443794,86.033577 72.573204,85.365341 75.388512,84.033249 
	C78.196304,82.704712 82.307350,80.936684 80.340889,77.100189 
	C77.674507,71.898178 77.065598,68.222244 81.122894,63.028721 
	C86.458313,56.199139 83.556274,48.307087 79.240150,42.064682 
	C75.770004,37.045815 70.447037,33.308029 65.635071,28.704132 
	C67.722549,24.942402 68.401360,19.965031 63.350368,17.259109 
	C60.738892,15.860085 55.802666,15.940454 53.446301,17.567518 
	C49.497448,20.294193 49.532963,25.121557 52.229008,29.574518 
	C50.189987,30.840752 48.307392,31.786917 46.678284,33.057976 
	C36.667797,40.868320 26.637043,56.163364 40.275848,68.157829 
	C39.141453,72.189156 35.999359,77.880783 37.407475,79.426056 
	C40.961617,83.326385 46.564125,85.360153 51.855488,88.438362 
	C49.207203,88.736473 46.162437,90.001152 43.866734,89.177650 
	C34.060230,85.659904 20.939489,89.541061 15.028286,98.301834 
	C17.546362,101.276779 20.064438,104.251717 22.319134,106.915489 
	C25.922623,105.223633 29.082726,103.739952 33.090889,102.030983 
z"/>
<path fill="#F7F7F7" opacity="1.000000" stroke="none" 
	d="
M32.666859,102.143623 
	C29.082726,103.739952 25.922623,105.223633 22.319134,106.915489 
	C20.064438,104.251717 17.546362,101.276779 15.026280,98.299271 
	C20.939489,89.541061 34.060230,85.659904 43.866734,89.177650 
	C46.162437,90.001152 49.207203,88.736473 51.855488,88.438362 
	C46.564125,85.360153 40.961617,83.326385 37.407475,79.426056 
	C35.999359,77.880783 39.141453,72.189156 40.275848,68.157829 
	C26.637043,56.163364 36.667797,40.868320 46.678284,33.057976 
	C48.307392,31.786917 50.189987,30.840752 52.229008,29.574518 
	C49.532963,25.121557 49.497448,20.294193 53.446301,17.567518 
	C55.802666,15.940454 60.738892,15.860085 63.350368,17.259109 
	C68.401360,19.965031 67.722549,24.942402 65.635071,28.704132 
	C70.447037,33.308029 75.770004,37.045815 79.240150,42.064682 
	C83.556274,48.307087 86.458313,56.199139 81.122894,63.028721 
	C77.065598,68.222244 77.674507,71.898178 80.340889,77.100189 
	C82.307350,80.936684 78.196304,82.704712 75.388512,84.033249 
	C72.573204,85.365341 69.443794,86.033577 66.460648,88.150963 
	C69.829788,88.150963 73.203484,88.040909 76.566841,88.180382 
	C80.300949,88.335220 84.113991,88.317970 87.728737,89.117134 
	C91.125336,89.868065 94.297081,91.614929 97.588120,92.870255 
	C101.006798,94.174263 104.449860,95.414322 107.997681,96.724983 
	C104.367538,100.306221 101.125275,103.504807 97.608597,106.974106 
	C91.619530,102.084076 84.072792,102.032791 76.333405,101.861076 
	C70.751442,101.737228 65.227173,99.866547 59.625462,99.411598 
	C56.914845,99.191460 54.109642,100.714867 51.304695,100.958260 
	C45.248005,101.483841 39.163822,101.692604 32.666859,102.143623 
M77.744270,61.032921 
	C81.371292,53.140301 78.477715,46.417366 72.912552,41.159527 
	C60.455318,29.390217 57.186455,29.454891 44.661465,40.853493 
	C40.240170,44.877174 37.608234,50.157803 38.120960,56.442875 
	C38.543034,61.616669 41.924099,64.881386 45.990585,63.814014 
	C54.265663,61.641979 62.414612,62.161148 70.710518,63.759979 
	C72.679611,64.139473 75.050659,62.433346 77.744270,61.032921 
M75.693497,97.472542 
	C82.327934,98.536613 88.948792,99.703430 95.607468,100.584229 
	C97.063713,100.776863 98.654900,99.949295 100.183937,99.591568 
	C100.150093,98.889565 100.116249,98.187553 100.082405,97.485550 
	C93.076279,95.742912 86.020485,92.451897 79.077415,92.674652 
	C71.490669,92.918053 64.573112,93.634529 58.818726,87.801857 
	C57.061317,89.079414 55.733765,90.625824 54.089542,91.121254 
	C50.431816,92.223358 45.835976,94.537659 43.007931,93.269157 
	C33.964966,89.212975 27.841568,94.163109 20.991623,98.715912 
	C22.348915,99.653488 23.840710,100.365028 25.220514,100.190620 
	C30.592760,99.511520 35.943863,98.631416 41.275372,97.673286 
	C46.593998,96.717484 51.876492,95.561836 57.183117,94.536720 
	C58.072243,94.364960 59.041332,94.218468 59.909035,94.388718 
	C64.867531,95.361633 69.806526,96.433891 75.693497,97.472542 
M73.615013,72.112366 
	C72.129227,70.543121 70.793449,67.827896 69.130737,67.610252 
	C63.105659,66.821541 56.927006,66.300102 50.889767,66.764015 
	C44.805084,67.231583 44.485020,68.208939 43.554310,75.068535 
	C53.238590,71.137520 62.920650,70.601395 72.686981,74.477402 
	C72.856430,74.544647 73.498413,73.421280 73.615013,72.112366 
M52.014278,76.292465 
	C50.594383,76.735092 49.152802,77.119362 47.760731,77.636833 
	C46.381779,78.149422 45.052750,78.796310 42.813057,79.771126 
	C53.960880,83.863609 63.962814,84.072159 74.648010,79.668991 
	C67.269684,75.918129 60.250519,74.710075 52.014278,76.292465 
M62.567406,22.757647 
	C61.365108,19.933033 59.127964,18.900862 56.672359,20.575306 
	C55.566990,21.329041 54.883167,23.777531 55.199818,25.189856 
	C55.440857,26.264929 58.047241,27.905304 58.748817,27.560364 
	C60.360622,26.767897 61.452110,24.917158 62.567406,22.757647 
z"/>
<path fill="#050505" opacity="1.000000" stroke="none" 
	d="
M77.490540,61.359741 
	C75.050659,62.433346 72.679611,64.139473 70.710518,63.759979 
	C62.414612,62.161148 54.265663,61.641979 45.990585,63.814014 
	C41.924099,64.881386 38.543034,61.616669 38.120960,56.442875 
	C37.608234,50.157803 40.240170,44.877174 44.661465,40.853493 
	C57.186455,29.454891 60.455318,29.390217 72.912552,41.159527 
	C78.477715,46.417366 81.371292,53.140301 77.490540,61.359741 
M58.405964,40.943962 
	C57.624462,42.741024 56.842957,44.538090 56.310101,45.763393 
	C54.304932,46.753719 52.676571,47.557941 51.048210,48.362171 
	C52.791977,49.451702 54.535744,50.541229 56.113403,51.526966 
	C56.908825,53.042656 57.734348,54.615696 58.559868,56.188740 
	C59.599827,54.587376 60.639786,52.986015 61.508293,51.648659 
	C63.126827,50.541348 64.691933,49.470589 66.257034,48.399826 
	C64.662895,47.560200 63.068756,46.720573 61.281193,45.779072 
	C60.731853,44.478180 59.998363,42.741199 58.405964,40.943962 
z"/>
<path fill="#101010" opacity="1.000000" stroke="none" 
	d="
M75.222824,97.472473 
	C69.806526,96.433891 64.867531,95.361633 59.909035,94.388718 
	C59.041332,94.218468 58.072243,94.364960 57.183117,94.536720 
	C51.876492,95.561836 46.593998,96.717484 41.275372,97.673286 
	C35.943863,98.631416 30.592760,99.511520 25.220514,100.190620 
	C23.840710,100.365028 22.348915,99.653488 20.991623,98.715912 
	C27.841568,94.163109 33.964966,89.212975 43.007931,93.269157 
	C45.835976,94.537659 50.431816,92.223358 54.089542,91.121254 
	C55.733765,90.625824 57.061317,89.079414 58.818726,87.801857 
	C64.573112,93.634529 71.490669,92.918053 79.077415,92.674652 
	C86.020485,92.451897 93.076279,95.742912 100.082405,97.485550 
	C100.116249,98.187553 100.150093,98.889565 100.183937,99.591568 
	C98.654900,99.949295 97.063713,100.776863 95.607468,100.584229 
	C88.948792,99.703430 82.327934,98.536613 75.222824,97.472473 
z"/>
<path fill="#0C0C0C" opacity="1.000000" stroke="none" 
	d="
M73.767456,72.482925 
	C73.498413,73.421280 72.856430,74.544647 72.686981,74.477402 
	C62.920650,70.601395 53.238590,71.137520 43.554310,75.068535 
	C44.485020,68.208939 44.805084,67.231583 50.889767,66.764015 
	C56.927006,66.300102 63.105659,66.821541 69.130737,67.610252 
	C70.793449,67.827896 72.129227,70.543121 73.767456,72.482925 
z"/>
<path fill="#0F0F0F" opacity="1.000000" stroke="none" 
	d="
M52.414108,76.202316 
	C60.250519,74.710075 67.269684,75.918129 74.648010,79.668991 
	C63.962814,84.072159 53.960880,83.863609 42.813057,79.771126 
	C45.052750,78.796310 46.381779,78.149422 47.760731,77.636833 
	C49.152802,77.119362 50.594383,76.735092 52.414108,76.202316 
z"/>
<path fill="#141414" opacity="1.000000" stroke="none" 
	d="
M62.661102,23.126804 
	C61.452110,24.917158 60.360622,26.767897 58.748817,27.560364 
	C58.047241,27.905304 55.440857,26.264929 55.199818,25.189856 
	C54.883167,23.777531 55.566990,21.329041 56.672359,20.575306 
	C59.127964,18.900862 61.365108,19.933033 62.661102,23.126804 
z"/>
<path fill="#E8E8E8" opacity="1.000000" stroke="none" 
	d="
M58.835419,40.974091 
	C59.998363,42.741199 60.731853,44.478180 61.281193,45.779072 
	C63.068756,46.720573 64.662895,47.560200 66.257034,48.399826 
	C64.691933,49.470589 63.126827,50.541348 61.508293,51.648659 
	C60.639786,52.986015 59.599827,54.587376 58.559868,56.188740 
	C57.734348,54.615696 56.908825,53.042656 56.113403,51.526966 
	C54.535744,50.541229 52.791977,49.451702 51.048210,48.362167 
	C52.676571,47.557941 54.304932,46.753719 56.310101,45.763393 
	C56.842957,44.538090 57.624462,42.741024 58.835419,40.974091 
z"/>
</svg>