<svg version="1.1" id="Layer_1" xmlns="http://www.w3.org/2000/svg" xmlns:xlink="http://www.w3.org/1999/xlink" x="0px" y="0px"
	 width="100%" viewBox="0 0 120 120" enable-background="new 0 0 120 120" xml:space="preserve">
<path fill="#010101" opacity="1.000000" stroke="none" 
	d="
M56.000000,121.000000 
	C37.333332,121.000000 19.166666,121.000000 1.000000,121.000000 
	C1.000000,81.000000 1.000000,41.000000 1.000000,1.000000 
	C41.000000,1.000000 81.000000,1.000000 121.000000,1.000000 
	C121.000000,41.000000 121.000000,81.000000 121.000000,121.000000 
	C99.500000,121.000000 78.000000,121.000000 56.000000,121.000000 
M50.181778,62.905407 
	C56.285355,63.127174 62.475166,62.790306 68.470123,63.715721 
	C75.556946,64.809685 78.541122,62.687798 79.089516,55.536987 
	C79.926392,44.624531 66.990036,35.047920 59.202698,32.718040 
	C58.216904,32.423103 56.856621,32.528591 55.940201,32.987942 
	C48.736813,36.598602 42.405579,41.390564 39.536137,49.156471 
	C37.995930,53.324917 37.365860,58.236454 40.200714,62.257759 
	C42.638428,65.715721 46.211380,63.598942 50.181778,62.905407 
M44.296051,94.043877 
	C43.469917,93.984650 42.467342,94.209404 41.844749,93.822578 
	C35.110382,89.638474 29.558336,93.390999 24.032137,96.553673 
	C22.926991,97.186150 22.495918,98.996445 21.540110,100.629059 
	C27.596447,99.575363 32.493134,98.095856 37.411919,98.018341 
	C44.365746,97.908745 51.152012,97.868584 57.525665,94.564339 
	C58.291374,94.167374 59.626419,94.811356 60.682541,95.041779 
	C65.136513,96.013519 69.543106,97.510155 74.044617,97.886322 
	C81.350487,98.496849 88.903267,96.720695 95.799934,100.831039 
	C96.678696,101.354767 98.394531,100.473984 99.722580,100.243874 
	C92.618904,95.089821 85.036346,91.814362 76.695290,93.159462 
	C70.682243,94.129135 65.674278,92.946053 60.597095,90.153770 
	C59.375751,89.482079 56.858303,89.023720 56.289497,89.665680 
	C53.195198,93.158005 49.300632,94.178528 44.296051,94.043877 
M48.219807,73.203423 
	C56.857449,71.033195 65.381279,71.840958 74.038086,75.027748 
	C72.400688,67.807800 62.958397,64.625374 51.005375,66.484482 
	C45.892654,67.279694 44.159245,69.287903 44.465012,74.530487 
	C45.580246,74.041954 46.556503,73.614304 48.219807,73.203423 
M54.360207,76.029572 
	C50.760803,77.134949 47.161400,78.240326 43.320312,79.419922 
	C51.378651,84.166153 67.071289,84.164223 73.104431,78.241409 
	C67.132332,77.495918 61.160233,76.750420 54.360207,76.029572 
M54.798855,23.487036 
	C56.180592,24.961779 57.363419,26.828020 59.057201,27.688591 
	C59.613556,27.971262 62.635780,25.499212 62.512367,24.548948 
	C62.306767,22.965870 60.723385,20.909128 59.240288,20.368692 
	C58.211956,19.993975 56.377876,21.830442 54.798855,23.487036 
z"/>
<path fill="#040FC9" opacity="1.000000" stroke="none" 
	d="
M49.767258,62.963509 
	C46.211380,63.598942 42.638428,65.715721 40.200714,62.257759 
	C37.365860,58.236454 37.995930,53.324917 39.536137,49.156471 
	C42.405579,41.390564 48.736813,36.598602 55.940201,32.987942 
	C56.856621,32.528591 58.216904,32.423103 59.202698,32.718040 
	C66.990036,35.047920 79.926392,44.624531 79.089516,55.536987 
	C78.541122,62.687798 75.556946,64.809685 68.470123,63.715721 
	C62.475166,62.790306 56.285355,63.127174 49.767258,62.963509 
M60.311615,55.969860 
	C60.311615,54.410732 60.311615,52.851604 60.311615,51.382149 
	C62.682049,50.883965 64.793633,50.440182 66.905212,49.996395 
	C67.174622,49.460117 67.444031,48.923836 67.713440,48.387558 
	C63.242519,47.278084 59.174763,45.729527 58.844315,41.929111 
	C56.554298,43.723248 54.561680,45.204185 52.673332,46.807899 
	C52.024162,47.359222 51.307220,48.186283 51.235817,48.945190 
	C51.182709,49.509682 52.137871,50.712048 52.613575,50.696571 
	C56.127045,50.582272 57.086124,52.685928 57.530262,55.614716 
	C57.593098,56.029091 59.033245,56.234604 60.311615,55.969860 
z"/>
<path fill="#040FC9" opacity="1.000000" stroke="none" 
	d="
M44.626289,94.203461 
	C49.300632,94.178528 53.195198,93.158005 56.289497,89.665680 
	C56.858303,89.023720 59.375751,89.482079 60.597095,90.153770 
	C65.674278,92.946053 70.682243,94.129135 76.695290,93.159462 
	C85.036346,91.814362 92.618904,95.089821 99.722580,100.243874 
	C98.394531,100.473984 96.678696,101.354767 95.799934,100.831039 
	C88.903267,96.720695 81.350487,98.496849 74.044617,97.886322 
	C69.543106,97.510155 65.136513,96.013519 60.682541,95.041779 
	C59.626419,94.811356 58.291374,94.167374 57.525665,94.564339 
	C51.152012,97.868584 44.365746,97.908745 37.411919,98.018341 
	C32.493134,98.095856 27.596447,99.575363 21.540110,100.629059 
	C22.495918,98.996445 22.926991,97.186150 24.032137,96.553673 
	C29.558336,93.390999 35.110382,89.638474 41.844749,93.822578 
	C42.467342,94.209404 43.469917,93.984650 44.626289,94.203461 
z"/>
<path fill="#0913C5" opacity="1.000000" stroke="none" 
	d="
M47.876282,73.195038 
	C46.556503,73.614304 45.580246,74.041954 44.465012,74.530487 
	C44.159245,69.287903 45.892654,67.279694 51.005375,66.484482 
	C62.958397,64.625374 72.400688,67.807800 74.038086,75.027748 
	C65.381279,71.840958 56.857449,71.033195 47.876282,73.195038 
z"/>
<path fill="#0510C8" opacity="1.000000" stroke="none" 
	d="
M54.774170,76.017250 
	C61.160233,76.750420 67.132332,77.495918 73.104431,78.241409 
	C67.071289,84.164223 51.378651,84.166153 43.320312,79.419922 
	C47.161400,78.240326 50.760803,77.134949 54.774170,76.017250 
z"/>
<path fill="#030ECA" opacity="1.000000" stroke="none" 
	d="
M54.851334,23.082993 
	C56.377876,21.830442 58.211956,19.993975 59.240288,20.368692 
	C60.723385,20.909128 62.306767,22.965870 62.512367,24.548948 
	C62.635780,25.499212 59.613556,27.971262 59.057201,27.688591 
	C57.363419,26.828020 56.180592,24.961779 54.851334,23.082993 
z"/>
<path fill="#020202" opacity="1.000000" stroke="none" 
	d="
M60.073761,56.253323 
	C59.033245,56.234604 57.593098,56.029091 57.530262,55.614716 
	C57.086124,52.685928 56.127045,50.582272 52.613575,50.696571 
	C52.137871,50.712048 51.182709,49.509682 51.235817,48.945190 
	C51.307220,48.186283 52.024162,47.359222 52.673332,46.807899 
	C54.561680,45.204185 56.554298,43.723248 58.844315,41.929111 
	C59.174763,45.729527 63.242519,47.278084 67.713440,48.387558 
	C67.444031,48.923836 67.174622,49.460117 66.905212,49.996395 
	C64.793633,50.440182 62.682049,50.883965 60.311615,51.382149 
	C60.311615,52.851604 60.311615,54.410732 60.073761,56.253323 
z"/>
</svg>