<svg version="1.1" id="Layer_1" xmlns="http://www.w3.org/2000/svg" xmlns:xlink="http://www.w3.org/1999/xlink" x="0px" y="0px"
	 width="100%" viewBox="0 0 120 120" enable-background="new 0 0 120 120" xml:space="preserve">
<path fill="#010101" opacity="1.000000" stroke="none" 
	d="
M69.000000,121.000000 
	C46.000000,121.000000 23.500000,121.000000 1.000000,121.000000 
	C1.000000,81.000000 1.000000,41.000000 1.000000,1.000000 
	C41.000000,1.000000 81.000000,1.000000 121.000000,1.000000 
	C121.000000,41.000000 121.000000,81.000000 121.000000,121.000000 
	C103.833336,121.000000 86.666664,121.000000 69.000000,121.000000 
M57.635128,66.093178 
	C53.591286,66.729820 49.562004,67.498306 45.497429,67.947212 
	C43.479828,68.170044 41.338097,67.447891 39.355740,67.776299 
	C34.058159,68.653923 28.785746,69.745262 23.575377,71.041313 
	C22.366295,71.342072 20.550913,72.796600 20.550018,73.721710 
	C20.546707,77.142532 26.719566,81.054878 29.956911,79.972237 
	C50.109825,73.232605 70.383499,73.275421 90.517128,79.637505 
	C95.187462,81.113289 97.604637,79.800812 99.893524,76.351311 
	C100.522194,75.403862 101.044220,74.385651 102.066383,72.620941 
	C100.090073,72.016991 98.380981,71.352692 96.610329,70.984131 
	C93.263039,70.287407 89.893921,69.664024 86.508713,69.189697 
	C82.921913,68.687126 79.294243,68.477905 75.705750,67.985229 
	C71.930199,67.466873 68.190613,66.685234 64.414162,66.175262 
	C62.437408,65.908318 60.415295,65.977272 57.635128,66.093178 
M75.837395,87.595268 
	C79.495018,88.565468 83.221298,89.336586 86.789223,90.566902 
	C89.810944,91.608871 91.514450,90.778786 92.592308,87.905342 
	C93.864120,84.514885 91.104271,84.335716 89.229378,83.909065 
	C84.132202,82.749184 78.976746,81.839554 73.833900,80.887390 
	C58.285828,78.008759 43.276207,80.656555 28.232361,85.080818 
	C29.789650,88.144333 29.934614,92.499710 34.921776,90.619263 
	C47.989723,85.691887 61.382053,84.924690 75.837395,87.595268 
M38.709198,99.091095 
	C56.392323,95.197807 73.943176,96.625740 91.528427,101.290993 
	C90.851730,95.921852 87.144867,94.965309 83.774986,94.005211 
	C69.759659,90.012192 55.629009,89.824699 41.423416,93.084686 
	C33.651733,94.868195 32.099903,95.910263 30.712578,101.160301 
	C33.220608,100.455055 35.547962,99.800606 38.709198,99.091095 
M78.876472,108.910263 
	C82.227745,108.168953 85.579010,107.427643 88.930283,106.686333 
	C70.206703,100.139984 51.721741,100.075470 33.218735,106.148514 
	C47.961132,110.728195 63.108067,108.496086 78.876472,108.910263 
M86.050171,33.826576 
	C85.998894,32.857555 85.947624,31.888536 85.896355,30.919516 
	C85.648094,30.862185 85.399834,30.804852 85.151566,30.747520 
	C81.490456,41.380333 77.829346,52.013149 74.161423,62.665741 
	C79.178116,62.915989 83.396759,63.126427 88.169113,63.364483 
	C87.625175,54.064159 87.069656,44.546112 86.500679,35.028870 
	C86.492325,34.889156 86.316338,34.759464 86.050171,33.826576 
M47.233459,60.322849 
	C43.742603,50.327011 40.251747,40.331173 36.760887,30.335333 
	C36.420490,30.395954 36.080093,30.456573 35.739697,30.517193 
	C35.149750,41.797695 34.559803,53.078201 34.026703,63.271774 
	C38.851437,63.271774 43.297997,63.271774 47.936283,63.271774 
	C47.774963,62.596741 47.592987,61.835274 47.233459,60.322849 
M62.319553,32.442188 
	C62.075394,31.175995 61.831238,29.909801 61.587078,28.643608 
	C61.246845,28.643194 60.906609,28.642780 60.566372,28.642366 
	C58.584404,39.609264 56.602436,50.576160 54.620464,61.543060 
	C54.877628,61.853737 55.134789,62.164413 55.391949,62.475094 
	C59.119598,58.869671 62.874977,58.672966 66.663948,62.604618 
	C66.916130,62.224144 67.168312,61.843670 67.420494,61.463192 
	C65.767548,52.059761 64.114601,42.656334 62.319553,32.442188 
M18.152967,67.182472 
	C21.009466,66.679482 23.865963,66.176498 27.237797,65.582764 
	C23.687195,58.190868 20.229738,50.992889 16.772282,43.794907 
	C16.266268,43.849709 15.760256,43.904510 15.254243,43.959309 
	C16.168310,51.450943 17.082376,58.942574 18.152967,67.182472 
M104.202728,62.682056 
	C105.052673,56.570637 105.902611,50.459217 106.752548,44.347797 
	C106.319283,44.230309 105.886017,44.112823 105.452751,43.995338 
	C101.923462,51.124310 98.394173,58.253277 94.889328,65.332886 
	C98.110558,66.179535 100.736549,66.869736 103.656845,67.637291 
	C103.828384,66.356850 104.016792,64.950462 104.202728,62.682056 
M57.956329,10.861609 
	C58.805256,12.227090 59.654186,13.592571 60.503113,14.958054 
	C61.719864,14.155177 63.756878,13.509689 63.948666,12.510147 
	C64.196259,11.219756 62.968403,9.646261 62.375927,8.194679 
	C60.908241,8.825635 59.440559,9.456590 57.956329,10.861609 
M34.144299,13.020822 
	C33.107597,13.509905 31.137331,14.157238 31.188963,14.461838 
	C31.477657,16.164946 31.852119,18.266315 33.022385,19.246437 
	C33.683872,19.800444 35.927959,18.464823 37.459198,17.980343 
	C36.622967,16.346468 35.786739,14.712593 34.144299,13.020822 
M90.968475,16.287638 
	C89.713638,15.198959 88.597359,13.714816 87.139992,13.204218 
	C86.501862,12.980644 84.332603,14.753002 84.339752,15.606612 
	C84.351082,16.958797 85.607155,18.300554 86.336540,19.646725 
	C87.859116,18.789862 89.381699,17.932999 90.968475,16.287638 
M7.009462,25.686089 
	C8.325901,26.781013 9.513265,28.182838 11.023131,28.817848 
	C11.616290,29.067318 13.773174,27.565527 13.745877,26.923891 
	C13.684480,25.480734 12.703027,24.076723 12.096050,22.656778 
	C10.425629,23.405111 8.755208,24.153442 7.009462,25.686089 
M109.809677,28.878628 
	C111.528091,28.045904 113.246513,27.213181 114.964928,26.380457 
	C114.333611,25.131260 113.974113,23.534180 112.976067,22.754339 
	C112.303032,22.228466 109.843178,22.586723 109.713196,23.014523 
	C109.186913,24.746616 109.253471,26.658838 109.809677,28.878628 
z"/>
<path fill="#CC0000" opacity="1.000000" stroke="none" 
	d="
M58.024399,65.993851 
	C60.415295,65.977272 62.437408,65.908318 64.414162,66.175262 
	C68.190613,66.685234 71.930199,67.466873 75.705750,67.985229 
	C79.294243,68.477905 82.921913,68.687126 86.508713,69.189697 
	C89.893921,69.664024 93.263039,70.287407 96.610329,70.984131 
	C98.380981,71.352692 100.090073,72.016991 102.066383,72.620941 
	C101.044220,74.385651 100.522194,75.403862 99.893524,76.351311 
	C97.604637,79.800812 95.187462,81.113289 90.517128,79.637505 
	C70.383499,73.275421 50.109825,73.232605 29.956911,79.972237 
	C26.719566,81.054878 20.546707,77.142532 20.550018,73.721710 
	C20.550913,72.796600 22.366295,71.342072 23.575377,71.041313 
	C28.785746,69.745262 34.058159,68.653923 39.355740,67.776299 
	C41.338097,67.447891 43.479828,68.170044 45.497429,67.947212 
	C49.562004,67.498306 53.591286,66.729820 58.024399,65.993851 
z"/>
<path fill="#CB0101" opacity="1.000000" stroke="none" 
	d="
M75.441849,87.422516 
	C61.382053,84.924690 47.989723,85.691887 34.921776,90.619263 
	C29.934614,92.499710 29.789650,88.144333 28.232361,85.080818 
	C43.276207,80.656555 58.285828,78.008759 73.833900,80.887390 
	C78.976746,81.839554 84.132202,82.749184 89.229378,83.909065 
	C91.104271,84.335716 93.864120,84.514885 92.592308,87.905342 
	C91.514450,90.778786 89.810944,91.608871 86.789223,90.566902 
	C83.221298,89.336586 79.495018,88.565468 75.441849,87.422516 
z"/>
<path fill="#CB0101" opacity="1.000000" stroke="none" 
	d="
M38.292259,99.118629 
	C35.547962,99.800606 33.220608,100.455055 30.712578,101.160301 
	C32.099903,95.910263 33.651733,94.868195 41.423416,93.084686 
	C55.629009,89.824699 69.759659,90.012192 83.774986,94.005211 
	C87.144867,94.965309 90.851730,95.921852 91.528427,101.290993 
	C73.943176,96.625740 56.392323,95.197807 38.292259,99.118629 
z"/>
<path fill="#CC0000" opacity="1.000000" stroke="none" 
	d="
M78.492172,108.784882 
	C63.108067,108.496086 47.961132,110.728195 33.218735,106.148514 
	C51.721741,100.075470 70.206703,100.139984 88.930283,106.686333 
	C85.579010,107.427643 82.227745,108.168953 78.492172,108.784882 
z"/>
<path fill="#CB0101" opacity="1.000000" stroke="none" 
	d="
M86.134377,34.225834 
	C86.316338,34.759464 86.492325,34.889156 86.500679,35.028870 
	C87.069656,44.546112 87.625175,54.064159 88.169113,63.364483 
	C83.396759,63.126427 79.178116,62.915989 74.161423,62.665741 
	C77.829346,52.013149 81.490456,41.380333 85.151566,30.747520 
	C85.399834,30.804852 85.648094,30.862185 85.896355,30.919516 
	C85.947624,31.888536 85.998894,32.857555 86.134377,34.225834 
z"/>
<path fill="#CC0000" opacity="1.000000" stroke="none" 
	d="
M47.322235,60.698330 
	C47.592987,61.835274 47.774963,62.596741 47.936283,63.271774 
	C43.297997,63.271774 38.851437,63.271774 34.026703,63.271774 
	C34.559803,53.078201 35.149750,41.797695 35.739697,30.517193 
	C36.080093,30.456573 36.420490,30.395954 36.760887,30.335333 
	C40.251747,40.331173 43.742603,50.327011 47.322235,60.698330 
z"/>
<path fill="#CC0000" opacity="1.000000" stroke="none" 
	d="
M62.390602,32.847546 
	C64.114601,42.656334 65.767548,52.059761 67.420494,61.463192 
	C67.168312,61.843670 66.916130,62.224144 66.663948,62.604618 
	C62.874977,58.672966 59.119598,58.869671 55.391949,62.475094 
	C55.134789,62.164413 54.877628,61.853737 54.620464,61.543060 
	C56.602436,50.576160 58.584404,39.609264 60.566372,28.642366 
	C60.906609,28.642780 61.246845,28.643194 61.587078,28.643608 
	C61.831238,29.909801 62.075394,31.175995 62.390602,32.847546 
z"/>
<path fill="#CC0000" opacity="1.000000" stroke="none" 
	d="
M18.074707,66.808334 
	C17.082376,58.942574 16.168310,51.450943 15.254243,43.959309 
	C15.760256,43.904510 16.266268,43.849709 16.772282,43.794907 
	C20.229738,50.992889 23.687195,58.190868 27.237797,65.582764 
	C23.865963,66.176498 21.009466,66.679482 18.074707,66.808334 
z"/>
<path fill="#CC0000" opacity="1.000000" stroke="none" 
	d="
M104.203964,63.113064 
	C104.016792,64.950462 103.828384,66.356850 103.656845,67.637291 
	C100.736549,66.869736 98.110558,66.179535 94.889328,65.332886 
	C98.394173,58.253277 101.923462,51.124310 105.452751,43.995338 
	C105.886017,44.112823 106.319283,44.230309 106.752548,44.347797 
	C105.902611,50.459217 105.052673,56.570637 104.203964,63.113064 
z"/>
<path fill="#CC0000" opacity="1.000000" stroke="none" 
	d="
M57.964600,10.474577 
	C59.440559,9.456590 60.908241,8.825635 62.375923,8.194679 
	C62.968403,9.646261 64.196259,11.219756 63.948666,12.510147 
	C63.756878,13.509689 61.719864,14.155177 60.503113,14.958054 
	C59.654186,13.592571 58.805256,12.227090 57.964600,10.474577 
z"/>
<path fill="#CC0000" opacity="1.000000" stroke="none" 
	d="
M34.547401,13.049770 
	C35.786739,14.712593 36.622967,16.346468 37.459198,17.980343 
	C35.927959,18.464823 33.683872,19.800444 33.022385,19.246437 
	C31.852119,18.266315 31.477657,16.164946 31.188963,14.461838 
	C31.137331,14.157238 33.107597,13.509905 34.547401,13.049770 
z"/>
<path fill="#CC0000" opacity="1.000000" stroke="none" 
	d="
M90.936371,16.681887 
	C89.381699,17.932999 87.859116,18.789862 86.336548,19.646725 
	C85.607155,18.300554 84.351082,16.958797 84.339752,15.606612 
	C84.332603,14.753002 86.501862,12.980644 87.139992,13.204218 
	C88.597359,13.714816 89.713638,15.198959 90.936371,16.681887 
z"/>
<path fill="#CC0000" opacity="1.000000" stroke="none" 
	d="
M7.047125,25.293932 
	C8.755208,24.153442 10.425629,23.405111 12.096050,22.656778 
	C12.703027,24.076723 13.684480,25.480734 13.745877,26.923891 
	C13.773174,27.565527 11.616290,29.067318 11.023131,28.817848 
	C9.513265,28.182838 8.325901,26.781013 7.047125,25.293932 
z"/>
<path fill="#CC0000" opacity="1.000000" stroke="none" 
	d="
M109.455475,28.691610 
	C109.253471,26.658838 109.186913,24.746616 109.713196,23.014523 
	C109.843178,22.586723 112.303032,22.228466 112.976067,22.754339 
	C113.974113,23.534180 114.333611,25.131260 114.964928,26.380455 
	C113.246513,27.213181 111.528091,28.045904 109.455475,28.691610 
z"/>
</svg>