<svg version="1.1" id="Layer_1" xmlns="http://www.w3.org/2000/svg" xmlns:xlink="http://www.w3.org/1999/xlink" x="0px" y="0px"
	 width="100%" viewBox="0 0 120 120" enable-background="new 0 0 120 120" xml:space="preserve">
<path fill="#020202" opacity="1.000000" stroke="none" 
	d="
M68.000000,121.000000 
	C45.333332,121.000000 23.166666,121.000000 1.000000,121.000000 
	C1.000000,81.000000 1.000000,41.000000 1.000000,1.000000 
	C41.000000,1.000000 81.000000,1.000000 121.000000,1.000000 
	C121.000000,41.000000 121.000000,81.000000 121.000000,121.000000 
	C103.500000,121.000000 86.000000,121.000000 68.000000,121.000000 
M81.210320,66.889328 
	C74.740639,68.614639 68.452087,68.769142 62.518784,64.981133 
	C61.854797,64.557228 60.575054,64.347328 59.965187,64.700974 
	C49.743587,70.628059 37.459522,65.592636 27.136183,70.906784 
	C26.615282,71.174934 25.788591,70.775307 25.162594,70.927101 
	C23.401730,71.354057 21.671341,71.906708 19.308765,72.588867 
	C22.059254,75.969009 24.132549,78.516930 26.250999,81.120346 
	C49.534466,72.871498 72.604584,72.995789 95.815063,81.101295 
	C97.956802,78.438789 100.008003,75.888847 102.423264,72.886322 
	C95.309349,70.825035 88.679817,68.904091 81.210320,66.889328 
M44.458965,80.951164 
	C39.222160,82.163124 33.985355,83.375092 28.231348,84.706757 
	C29.473915,87.439339 30.338245,89.340118 31.400105,91.675301 
	C51.156345,84.089561 70.872978,84.064949 90.540833,91.659180 
	C91.331947,90.009094 91.921539,88.842438 92.451912,87.649467 
	C92.771072,86.931580 92.998016,86.172691 93.432045,84.975235 
	C77.531143,79.513077 61.625515,78.098030 44.458965,80.951164 
M41.597595,102.989502 
	C38.464294,103.785088 35.330994,104.580673 31.911186,105.449013 
	C40.518299,110.626717 83.345596,110.449181 89.747375,105.384155 
	C74.139389,100.841660 58.413357,99.633896 41.597595,102.989502 
M32.461044,100.957916 
	C52.204842,94.819717 72.008820,95.800491 92.221466,100.331123 
	C90.365959,97.814079 88.321693,95.800041 85.864685,94.794563 
	C74.342979,90.079506 62.202343,89.916565 50.112110,91.206223 
	C44.607174,91.793442 39.202175,93.761635 33.886562,95.512436 
	C30.718752,96.555824 29.967117,99.115738 32.461044,100.957916 
M45.160202,54.281925 
	C42.346889,46.067078 39.533577,37.852230 36.720264,29.637381 
	C36.424694,29.673374 36.129120,29.709368 35.833549,29.745361 
	C35.150314,41.339638 34.467079,52.933910 33.854153,63.335060 
	C38.925735,63.335060 43.355305,63.335060 48.247723,63.335060 
	C47.318863,60.503204 46.415462,57.748978 45.160202,54.281925 
M79.633636,46.058216 
	C77.646248,51.848312 75.658859,57.638405 73.257629,64.634186 
	C79.107742,62.009731 83.635246,61.056625 88.327812,65.900787 
	C87.545441,52.833008 86.852333,41.256245 86.159233,29.679485 
	C85.892471,29.643818 85.625717,29.608149 85.358963,29.572481 
	C83.542633,34.818977 81.726303,40.065472 79.633636,46.058216 
M59.750824,32.297962 
	C57.961945,42.128105 56.173069,51.958252 54.384190,61.788395 
	C58.904793,58.759609 62.804138,58.012135 66.724983,62.811817 
	C66.973068,62.446583 67.221153,62.081348 67.469238,61.716114 
	C65.493454,50.331459 63.517666,38.946808 61.541878,27.562153 
	C61.164757,27.599531 60.787636,27.636908 60.410515,27.674286 
	C60.238483,28.947584 60.066452,30.220884 59.750824,32.297962 
M19.179018,67.893356 
	C21.837099,67.022797 24.495178,66.152229 27.482071,65.173981 
	C23.632067,57.316574 19.688585,49.268394 15.745105,41.220215 
	C15.430813,41.315559 15.116521,41.410900 14.802230,41.506241 
	C15.979091,50.308681 17.155952,59.111118 19.179018,67.893356 
M101.851425,50.339642 
	C99.351158,55.439499 96.850899,60.539360 94.464005,65.407982 
	C97.943588,66.214439 100.859138,66.890175 103.866913,67.587280 
	C104.930511,58.980412 106.007790,50.262886 107.085068,41.545364 
	C106.800728,41.479675 106.516388,41.413990 106.232048,41.348301 
	C104.836945,44.103367 103.441833,46.858433 101.851425,50.339642 
M62.740875,14.480249 
	C63.260372,12.945349 64.433029,11.236608 64.085907,9.932359 
	C63.823730,8.947307 61.464264,7.743541 60.320335,7.983254 
	C59.117722,8.235265 58.250778,10.089106 57.237152,11.242986 
	C58.858631,12.447205 60.480110,13.651423 62.740875,14.480249 
M12.098074,28.732668 
	C14.842363,25.515274 14.628023,22.390327 11.505386,22.178469 
	C10.061771,22.080521 7.528142,23.439556 7.182600,24.629784 
	C6.305748,27.650116 8.267833,29.095675 12.098074,28.732668 
M113.713539,28.242540 
	C115.979568,25.717968 115.875931,23.413351 112.586021,22.163998 
	C111.513229,21.756601 109.561493,22.368229 108.663475,23.209497 
	C107.955841,23.872408 107.690231,26.317070 108.205688,26.719995 
	C109.534485,27.758715 111.405289,28.104067 113.713539,28.242540 
M34.438183,12.171064 
	C31.273411,12.980575 29.856195,14.898876 31.418491,17.955801 
	C31.886946,18.872417 33.710125,19.803493 34.658550,19.591433 
	C35.880310,19.318254 37.842491,17.734634 37.721149,17.011551 
	C37.444576,15.363425 36.092480,13.895782 34.438183,12.171064 
M87.566551,19.800093 
	C88.752365,18.323971 90.328773,16.983425 90.913544,15.298680 
	C91.120094,14.703639 89.024216,12.661510 87.756104,12.410995 
	C86.771614,12.216508 84.360153,13.979578 84.461189,14.523891 
	C84.790077,16.295645 85.980980,17.907385 87.566551,19.800093 
z"/>
<path fill="#FAFAFA" opacity="1.000000" stroke="none" 
	d="
M81.630295,66.936241 
	C88.679817,68.904091 95.309349,70.825035 102.423264,72.886322 
	C100.008003,75.888847 97.956802,78.438789 95.815063,81.101295 
	C72.604584,72.995789 49.534466,72.871498 26.250999,81.120346 
	C24.132549,78.516930 22.059254,75.969009 19.308765,72.588867 
	C21.671341,71.906708 23.401730,71.354057 25.162594,70.927101 
	C25.788591,70.775307 26.615282,71.174934 27.136183,70.906784 
	C37.459522,65.592636 49.743587,70.628059 59.965187,64.700974 
	C60.575054,64.347328 61.854797,64.557228 62.518784,64.981133 
	C68.452087,68.769142 74.740639,68.614639 81.630295,66.936241 
z"/>
<path fill="#F7F7F7" opacity="1.000000" stroke="none" 
	d="
M44.893047,80.901863 
	C61.625515,78.098030 77.531143,79.513077 93.432045,84.975235 
	C92.998016,86.172691 92.771072,86.931580 92.451912,87.649467 
	C91.921539,88.842438 91.331947,90.009094 90.540833,91.659180 
	C70.872978,84.064949 51.156345,84.089561 31.400105,91.675301 
	C30.338245,89.340118 29.473915,87.439339 28.231348,84.706757 
	C33.985355,83.375092 39.222160,82.163124 44.893047,80.901863 
z"/>
<path fill="#F5F5F5" opacity="1.000000" stroke="none" 
	d="
M42.023853,102.973938 
	C58.413357,99.633896 74.139389,100.841660 89.747375,105.384155 
	C83.345596,110.449181 40.518299,110.626717 31.911186,105.449013 
	C35.330994,104.580673 38.464294,103.785088 42.023853,102.973938 
z"/>
<path fill="#F8F8F8" opacity="1.000000" stroke="none" 
	d="
M32.056816,100.992813 
	C29.967117,99.115738 30.718752,96.555824 33.886562,95.512436 
	C39.202175,93.761635 44.607174,91.793442 50.112110,91.206223 
	C62.202343,89.916565 74.342979,90.079506 85.864685,94.794563 
	C88.321693,95.800041 90.365959,97.814079 92.221466,100.331123 
	C72.008820,95.800491 52.204842,94.819717 32.056816,100.992813 
z"/>
<path fill="#F7F7F7" opacity="1.000000" stroke="none" 
	d="
M45.336136,54.638336 
	C46.415462,57.748978 47.318863,60.503204 48.247723,63.335060 
	C43.355305,63.335060 38.925735,63.335060 33.854153,63.335060 
	C34.467079,52.933910 35.150314,41.339638 35.833549,29.745361 
	C36.129120,29.709368 36.424694,29.673374 36.720264,29.637381 
	C39.533577,37.852230 42.346889,46.067078 45.336136,54.638336 
z"/>
<path fill="#F7F7F7" opacity="1.000000" stroke="none" 
	d="
M79.771805,45.685089 
	C81.726303,40.065472 83.542633,34.818977 85.358963,29.572481 
	C85.625717,29.608149 85.892471,29.643818 86.159233,29.679485 
	C86.852333,41.256245 87.545441,52.833008 88.327812,65.900787 
	C83.635246,61.056625 79.107742,62.009731 73.257629,64.634186 
	C75.658859,57.638405 77.646248,51.848312 79.771805,45.685089 
z"/>
<path fill="#F6F6F6" opacity="1.000000" stroke="none" 
	d="
M59.822620,31.896072 
	C60.066452,30.220884 60.238483,28.947584 60.410515,27.674286 
	C60.787636,27.636908 61.164757,27.599531 61.541878,27.562153 
	C63.517666,38.946808 65.493454,50.331459 67.469238,61.716114 
	C67.221153,62.081348 66.973068,62.446583 66.724983,62.811817 
	C62.804138,58.012135 58.904793,58.759609 54.384190,61.788395 
	C56.173069,51.958252 57.961945,42.128105 59.822620,31.896072 
z"/>
<path fill="#F6F6F6" opacity="1.000000" stroke="none" 
	d="
M18.755917,67.903458 
	C17.155952,59.111118 15.979091,50.308681 14.802230,41.506241 
	C15.116521,41.410900 15.430813,41.315559 15.745105,41.220215 
	C19.688585,49.268394 23.632067,57.316574 27.482071,65.173981 
	C24.495178,66.152229 21.837099,67.022797 18.755917,67.903458 
z"/>
<path fill="#F6F6F6" opacity="1.000000" stroke="none" 
	d="
M101.949081,49.976570 
	C103.441833,46.858433 104.836945,44.103367 106.232048,41.348301 
	C106.516388,41.413990 106.800728,41.479675 107.085068,41.545364 
	C106.007790,50.262886 104.930511,58.980412 103.866913,67.587280 
	C100.859138,66.890175 97.943588,66.214439 94.464005,65.407982 
	C96.850899,60.539360 99.351158,55.439499 101.949081,49.976570 
z"/>
<path fill="#F1F1F1" opacity="1.000000" stroke="none" 
	d="
M62.421234,14.667946 
	C60.480110,13.651423 58.858631,12.447205 57.237152,11.242987 
	C58.250778,10.089106 59.117722,8.235265 60.320335,7.983254 
	C61.464264,7.743541 63.823730,8.947307 64.085907,9.932359 
	C64.433029,11.236608 63.260372,12.945349 62.421234,14.667946 
z"/>
<path fill="#F2F2F2" opacity="1.000000" stroke="none" 
	d="
M11.711087,28.854424 
	C8.267833,29.095675 6.305748,27.650116 7.182600,24.629784 
	C7.528142,23.439556 10.061771,22.080521 11.505386,22.178469 
	C14.628023,22.390327 14.842363,25.515274 11.711087,28.854424 
z"/>
<path fill="#F2F2F2" opacity="1.000000" stroke="none" 
	d="
M113.386551,28.484478 
	C111.405289,28.104067 109.534485,27.758715 108.205688,26.719995 
	C107.690231,26.317070 107.955841,23.872408 108.663475,23.209497 
	C109.561493,22.368229 111.513229,21.756601 112.586021,22.163998 
	C115.875931,23.413351 115.979568,25.717968 113.386551,28.484478 
z"/>
<path fill="#F0F0F0" opacity="1.000000" stroke="none" 
	d="
M34.807785,12.262936 
	C36.092480,13.895782 37.444576,15.363425 37.721149,17.011551 
	C37.842491,17.734634 35.880310,19.318254 34.658550,19.591433 
	C33.710125,19.803493 31.886946,18.872417 31.418491,17.955801 
	C29.856195,14.898876 31.273411,12.980575 34.807785,12.262936 
z"/>
<path fill="#F3F3F3" opacity="1.000000" stroke="none" 
	d="
M87.203339,19.690399 
	C85.980980,17.907385 84.790077,16.295645 84.461189,14.523891 
	C84.360153,13.979578 86.771614,12.216508 87.756104,12.410995 
	C89.024216,12.661510 91.120094,14.703639 90.913544,15.298680 
	C90.328773,16.983425 88.752365,18.323971 87.203339,19.690399 
z"/>
</svg>