<svg version="1.1" id="Layer_1" xmlns="http://www.w3.org/2000/svg" xmlns:xlink="http://www.w3.org/1999/xlink" x="0px" y="0px"
	 width="100%" viewBox="0 0 120 120" enable-background="new 0 0 120 120" xml:space="preserve">
<path fill="#FAFAFA" opacity="1.000000" stroke="none" 
	d="
M1.000000,29.000000 
	C1.000000,26.958008 1.000000,24.916016 1.302389,22.727530 
	C1.999366,22.276091 2.510117,22.048107 2.770889,21.654507 
	C6.007868,16.768698 10.688457,15.387638 15.205388,18.026201 
	C19.236708,20.381094 20.078588,24.740807 17.631287,29.964174 
	C17.262360,30.751587 17.021029,31.946516 17.351786,32.660622 
	C20.947371,40.423534 24.668934,48.128094 28.356161,55.848557 
	C29.617558,54.430393 29.896051,53.229317 29.973825,52.015377 
	C30.341949,46.269558 31.041466,40.508148 30.862270,34.776073 
	C30.726147,30.421762 32.820766,25.642439 28.416885,21.748066 
	C24.973581,18.703136 25.011412,13.687034 27.671165,10.801714 
	C30.764164,7.446413 36.583794,6.858079 40.069412,9.548316 
	C43.420460,12.134689 43.819832,16.828163 41.596134,21.083471 
	C40.784470,22.636690 40.801346,24.852278 41.061592,26.677065 
	C41.373440,28.863667 42.311020,30.968964 43.045593,33.085884 
	C45.438946,39.983154 47.863270,46.869682 50.701023,54.975273 
	C52.620007,43.425743 53.941612,33.138584 56.232658,23.072060 
	C56.940926,19.960043 56.119228,18.709871 54.364628,16.852041 
	C51.744026,14.077258 52.498230,7.870879 55.579075,4.919802 
	C58.548946,2.075023 63.534298,2.122041 66.518326,5.022973 
	C69.989189,8.397174 70.062737,13.930597 66.877792,17.696497 
	C66.008217,18.724689 64.987244,20.321680 65.189415,21.451132 
	C67.109795,32.179707 69.279053,42.863735 71.556465,54.477154 
	C74.902908,44.664734 78.104095,35.649921 80.971115,26.530058 
	C81.489090,24.882437 81.131302,22.546362 80.317360,20.973385 
	C78.180382,16.843582 78.696465,11.922183 82.026772,9.443918 
	C85.260063,7.037846 91.198677,7.428942 93.706795,10.213108 
	C96.954742,13.818549 96.678307,18.067476 93.573891,22.092308 
	C92.216805,23.851744 91.129478,26.365467 91.135674,28.533180 
	C91.159248,36.780373 91.652138,45.027454 92.053886,53.270470 
	C92.095215,54.118587 92.699837,54.939251 93.261040,56.301846 
	C95.922234,51.080120 98.745262,46.544674 100.586578,41.640625 
	C102.365616,36.902439 106.022537,32.624508 103.232559,26.517298 
	C101.494476,22.712656 104.102768,18.576309 108.381332,17.337828 
	C112.436531,16.164001 116.583557,16.597620 119.075798,21.035223 
	C119.366905,21.553549 120.342003,21.687731 121.000000,22.000000 
	C121.000000,24.041992 121.000000,26.083984 120.701218,28.271809 
	C118.804062,32.019260 113.404564,31.955198 112.885712,36.932808 
	C111.911644,46.277470 109.895935,55.524666 109.156937,64.879028 
	C108.615906,71.727531 106.352791,77.273781 101.514717,82.046135 
	C95.691216,87.790543 94.512634,94.629341 98.037971,101.876305 
	C99.761475,105.419296 99.306297,108.091202 95.384308,109.120972 
	C88.419945,110.949539 81.426048,113.182968 74.317253,113.814415 
	C65.227280,114.621834 55.959900,114.603241 46.866470,113.815369 
	C40.074505,113.226891 33.386909,111.036812 26.752224,109.200798 
	C23.530191,108.309174 21.676615,106.195847 23.864107,102.521599 
	C29.146708,93.648613 25.576395,89.214066 20.000341,81.374290 
	C17.747816,78.207291 14.204986,76.066322 13.831216,71.270493 
	C12.998051,60.580170 11.283170,49.959866 9.987477,39.303749 
	C9.317541,33.794025 5.281661,31.311632 1.000000,29.000000 
M45.814911,67.984482 
	C42.395031,66.777283 39.358311,67.180244 35.906345,68.736015 
	C32.562248,70.243179 28.514406,70.141335 24.814020,70.926926 
	C23.136311,71.283089 21.551346,72.076111 19.490351,72.829620 
	C22.175848,76.119392 24.156574,78.545807 26.137300,80.972229 
	C26.153193,80.493500 26.169083,80.014771 26.184973,79.536041 
	C37.764191,78.024628 49.346325,75.309898 60.921814,75.337936 
	C72.655914,75.366333 84.383453,78.104973 96.911636,79.762085 
	C98.062126,78.325478 100.027069,75.871872 102.650230,72.596352 
	C100.358231,71.922218 98.653969,71.276566 96.890701,70.939690 
	C94.790184,70.538368 92.506584,70.776764 90.534851,70.079956 
	C84.773010,68.043701 79.136520,67.109840 72.854179,67.734634 
	C68.694870,68.148293 64.256462,64.882431 59.945782,64.889801 
	C55.528339,64.897354 51.114292,66.885674 45.814911,67.984482 
M34.864750,90.468155 
	C53.540821,83.921394 72.147202,84.666946 90.693977,91.653519 
	C91.738594,89.193466 92.546860,87.289993 93.343811,85.413185 
	C77.243355,77.555969 40.417500,77.805634 28.633154,85.797417 
	C30.486868,87.505829 29.164507,92.364586 34.864750,90.468155 
M75.222931,102.042389 
	C60.646725,100.075470 46.330715,101.093239 31.939445,105.569328 
	C40.930279,110.391624 81.334328,110.366280 90.286385,105.407257 
	C85.220589,104.250420 80.655983,103.208031 75.222931,102.042389 
M55.603134,96.980232 
	C67.692108,97.911674 79.781090,98.843117 92.897949,99.853752 
	C90.480461,98.043907 88.558594,95.791618 86.140282,94.925522 
	C69.353905,88.913597 52.438286,88.948372 35.669933,94.996796 
	C33.331997,95.840103 31.518055,98.136093 29.461550,99.759613 
	C29.754370,100.058899 30.047192,100.358185 30.340012,100.657471 
	C38.439152,99.438309 46.538296,98.219139 55.603134,96.980232 
M36.869911,30.163851 
	C36.728760,30.076433 36.596470,29.958679 36.442890,29.913811 
	C36.360416,29.889715 36.154873,29.984436 36.151039,30.036348 
	C35.302017,41.522709 34.465992,53.010036 33.715042,63.323608 
	C38.835857,63.323608 43.269844,63.323608 48.391727,63.323608 
	C44.588009,52.441605 40.817081,41.653416 36.869911,30.163851 
M83.965408,33.609402 
	C80.532051,43.479240 77.098694,53.349083 73.826897,62.754478 
	C78.876915,63.047585 83.425842,63.311607 88.191902,63.588234 
	C87.536888,52.787567 86.840607,41.306393 86.060493,28.443027 
	C85.011253,30.821451 84.559532,31.845402 83.965408,33.609402 
M55.351593,55.946411 
	C55.124680,57.925560 54.897762,59.904705 54.670845,61.883854 
	C59.157471,58.058907 63.045353,58.792221 67.772285,63.407711 
	C65.486809,50.215878 63.531948,38.932404 61.577091,27.648924 
	C61.197571,27.641506 60.818050,27.634089 60.438530,27.626671 
	C58.845005,36.792004 57.251480,45.957336 55.351593,55.946411 
M16.070107,52.350498 
	C16.805557,57.545135 17.541006,62.739773 18.220131,67.536583 
	C21.350004,66.853554 24.279383,66.214279 27.619507,65.485367 
	C23.669868,57.427460 19.709375,49.347404 15.748883,41.267349 
	C15.487288,41.378510 15.225692,41.489674 14.964096,41.600834 
	C15.310731,44.888699 15.657366,48.176567 16.070107,52.350498 
M102.420898,48.954247 
	C99.744720,54.520267 97.068542,60.086288 94.507019,65.413834 
	C97.944191,66.205864 100.861115,66.878014 103.860138,67.569084 
	C104.923683,58.975395 106.002472,50.258461 107.187035,40.686893 
	C106.269341,41.666248 106.002930,41.848259 105.877647,42.100395 
	C104.849876,44.168720 103.848381,46.250088 102.420898,48.954247 
M108.092667,23.819338 
	C108.190620,28.197903 110.648865,30.458042 113.256653,28.382280 
	C114.319260,27.536457 115.176201,24.950718 114.651077,23.880930 
	C113.297302,21.122963 110.842087,21.338755 108.092667,23.819338 
M64.214127,12.789231 
	C63.447330,11.133917 62.909039,9.282036 61.764557,7.951632 
	C61.450405,7.586447 58.665764,8.439965 58.192936,9.347836 
	C57.605007,10.476718 57.948402,13.413721 58.397484,13.525282 
	C60.128429,13.955280 62.061928,13.569915 64.214127,12.789231 
M12.761652,28.240585 
	C14.927829,25.730583 14.951559,23.407566 11.624856,22.168919 
	C10.550472,21.768890 8.615394,22.385508 7.715854,23.224882 
	C7.009515,23.883978 6.736751,26.321489 7.241245,26.710196 
	C8.582459,27.743589 10.448069,28.096384 12.761652,28.240585 
M84.110481,17.123062 
	C85.832932,17.803490 87.531334,18.821825 89.293274,18.947182 
	C89.786797,18.982294 91.056633,16.305277 90.877975,15.024759 
	C90.731972,13.978318 88.317154,12.198783 88.016479,12.400037 
	C86.479004,13.429116 85.300880,14.995078 84.110481,17.123062 
M30.950474,17.155941 
	C32.661880,17.816395 34.361839,18.865316 36.091202,18.916262 
	C36.658909,18.932989 37.913754,16.269779 37.722595,15.002843 
	C37.563816,13.950480 35.106846,12.180531 34.770733,12.402014 
	C33.249901,13.404182 32.120579,15.000482 30.950474,17.155941 
z"/>
<path fill="#000000" opacity="1.000000" stroke="none" 
	d="
M1.000000,29.468658 
	C5.281661,31.311632 9.317541,33.794025 9.987477,39.303749 
	C11.283170,49.959866 12.998051,60.580170 13.831216,71.270493 
	C14.204986,76.066322 17.747816,78.207291 20.000341,81.374290 
	C25.576395,89.214066 29.146708,93.648613 23.864107,102.521599 
	C21.676615,106.195847 23.530191,108.309174 26.752224,109.200798 
	C33.386909,111.036812 40.074505,113.226891 46.866470,113.815369 
	C55.959900,114.603241 65.227280,114.621834 74.317253,113.814415 
	C81.426048,113.182968 88.419945,110.949539 95.384308,109.120972 
	C99.306297,108.091202 99.761475,105.419296 98.037971,101.876305 
	C94.512634,94.629341 95.691216,87.790543 101.514717,82.046135 
	C106.352791,77.273781 108.615906,71.727531 109.156937,64.879028 
	C109.895935,55.524666 111.911644,46.277470 112.885712,36.932808 
	C113.404564,31.955198 118.804062,32.019260 120.701218,28.708820 
	C121.000000,59.622482 121.000000,90.244965 121.000000,120.933723 
	C81.101913,120.933723 41.203682,120.933723 1.000000,120.933723 
	C1.000000,90.646454 1.000000,60.291885 1.000000,29.468658 
z"/>
<path fill="#000000" opacity="1.000000" stroke="none" 
	d="
M121.000000,21.531090 
	C120.342003,21.687731 119.366905,21.553549 119.075798,21.035223 
	C116.583557,16.597620 112.436531,16.164001 108.381332,17.337828 
	C104.102768,18.576309 101.494476,22.712656 103.232559,26.517298 
	C106.022537,32.624508 102.365616,36.902439 100.586578,41.640625 
	C98.745262,46.544674 95.922234,51.080120 93.261040,56.301846 
	C92.699837,54.939251 92.095215,54.118587 92.053886,53.270470 
	C91.652138,45.027454 91.159248,36.780373 91.135674,28.533180 
	C91.129478,26.365467 92.216805,23.851744 93.573891,22.092308 
	C96.678307,18.067476 96.954742,13.818549 93.706795,10.213108 
	C91.198677,7.428942 85.260063,7.037846 82.026772,9.443918 
	C78.696465,11.922183 78.180382,16.843582 80.317360,20.973385 
	C81.131302,22.546362 81.489090,24.882437 80.971115,26.530058 
	C78.104095,35.649921 74.902908,44.664734 71.556465,54.477154 
	C69.279053,42.863735 67.109795,32.179707 65.189415,21.451132 
	C64.987244,20.321680 66.008217,18.724689 66.877792,17.696497 
	C70.062737,13.930597 69.989189,8.397174 66.518326,5.022973 
	C63.534298,2.122041 58.548946,2.075023 55.579075,4.919802 
	C52.498230,7.870879 51.744026,14.077258 54.364628,16.852041 
	C56.119228,18.709871 56.940926,19.960043 56.232658,23.072060 
	C53.941612,33.138584 52.620007,43.425743 50.701023,54.975273 
	C47.863270,46.869682 45.438946,39.983154 43.045593,33.085884 
	C42.311020,30.968964 41.373440,28.863667 41.061592,26.677065 
	C40.801346,24.852278 40.784470,22.636690 41.596134,21.083471 
	C43.819832,16.828163 43.420460,12.134689 40.069412,9.548316 
	C36.583794,6.858079 30.764164,7.446413 27.671165,10.801714 
	C25.011412,13.687034 24.973581,18.703136 28.416885,21.748066 
	C32.820766,25.642439 30.726147,30.421762 30.862270,34.776073 
	C31.041466,40.508148 30.341949,46.269558 29.973825,52.015377 
	C29.896051,53.229317 29.617558,54.430393 28.356161,55.848557 
	C24.668934,48.128094 20.947371,40.423534 17.351786,32.660622 
	C17.021029,31.946516 17.262360,30.751587 17.631287,29.964174 
	C20.078588,24.740807 19.236708,20.381094 15.205388,18.026201 
	C10.688457,15.387638 6.007868,16.768698 2.770889,21.654507 
	C2.510117,22.048107 1.999366,22.276091 1.302389,22.290518 
	C1.000000,15.018978 1.000000,8.037956 1.000013,1.057559 
	C41.000038,1.058184 81.000046,1.058184 121.000000,1.058184 
	C121.000000,7.764971 121.000000,14.413573 121.000000,21.531090 
z"/>
<path fill="#050505" opacity="1.000000" stroke="none" 
	d="
M46.256836,67.995758 
	C51.114292,66.885674 55.528339,64.897354 59.945782,64.889801 
	C64.256462,64.882431 68.694870,68.148293 72.854179,67.734634 
	C79.136520,67.109840 84.773010,68.043701 90.534851,70.079956 
	C92.506584,70.776764 94.790184,70.538368 96.890701,70.939690 
	C98.653969,71.276566 100.358231,71.922218 102.650230,72.596352 
	C100.027069,75.871872 98.062126,78.325478 96.911636,79.762085 
	C84.383453,78.104973 72.655914,75.366333 60.921814,75.337936 
	C49.346325,75.309898 37.764191,78.024628 26.184973,79.536041 
	C26.169083,80.014771 26.153193,80.493500 26.137300,80.972229 
	C24.156574,78.545807 22.175848,76.119392 19.490351,72.829620 
	C21.551346,72.076111 23.136311,71.283089 24.814020,70.926926 
	C28.514406,70.141335 32.562248,70.243179 35.906345,68.736015 
	C39.358311,67.180244 42.395031,66.777283 46.256836,67.995758 
z"/>
<path fill="#080808" opacity="1.000000" stroke="none" 
	d="
M34.496620,90.653915 
	C29.164507,92.364586 30.486868,87.505829 28.633154,85.797417 
	C40.417500,77.805634 77.243355,77.555969 93.343811,85.413185 
	C92.546860,87.289993 91.738594,89.193466 90.693977,91.653519 
	C72.147202,84.666946 53.540821,83.921394 34.496620,90.653915 
z"/>
<path fill="#0A0A0A" opacity="1.000000" stroke="none" 
	d="
M75.657150,102.104019 
	C80.655983,103.208031 85.220589,104.250420 90.286385,105.407257 
	C81.334328,110.366280 40.930279,110.391624 31.939445,105.569328 
	C46.330715,101.093239 60.646725,100.075470 75.657150,102.104019 
z"/>
<path fill="#070707" opacity="1.000000" stroke="none" 
	d="
M55.120285,96.990105 
	C46.538296,98.219139 38.439152,99.438309 30.340012,100.657471 
	C30.047192,100.358185 29.754370,100.058899 29.461550,99.759613 
	C31.518055,98.136093 33.331997,95.840103 35.669933,94.996796 
	C52.438286,88.948372 69.353905,88.913597 86.140282,94.925522 
	C88.558594,95.791618 90.480461,98.043907 92.897949,99.853752 
	C79.781090,98.843117 67.692108,97.911674 55.120285,96.990105 
z"/>
<path fill="#080808" opacity="1.000000" stroke="none" 
	d="
M36.958031,30.514540 
	C40.817081,41.653416 44.588009,52.441605 48.391727,63.323608 
	C43.269844,63.323608 38.835857,63.323608 33.715042,63.323608 
	C34.465992,53.010036 35.302017,41.522709 36.151039,30.036348 
	C36.154873,29.984436 36.360416,29.889715 36.442890,29.913811 
	C36.596470,29.958679 36.728760,30.076433 36.958031,30.514540 
z"/>
<path fill="#080808" opacity="1.000000" stroke="none" 
	d="
M84.036606,33.239376 
	C84.559532,31.845402 85.011253,30.821451 86.060493,28.443027 
	C86.840607,41.306393 87.536888,52.787567 88.191902,63.588234 
	C83.425842,63.311607 78.876915,63.047585 73.826897,62.754478 
	C77.098694,53.349083 80.532051,43.479240 84.036606,33.239376 
z"/>
<path fill="#090909" opacity="1.000000" stroke="none" 
	d="
M55.504776,55.534538 
	C57.251480,45.957336 58.845005,36.792004 60.438530,27.626671 
	C60.818050,27.634089 61.197571,27.641506 61.577091,27.648924 
	C63.531948,38.932404 65.486809,50.215878 67.772285,63.407711 
	C63.045353,58.792221 59.157471,58.058907 54.670845,61.883854 
	C54.897762,59.904705 55.124680,57.925560 55.504776,55.534538 
z"/>
<path fill="#090909" opacity="1.000000" stroke="none" 
	d="
M16.037052,51.907463 
	C15.657366,48.176567 15.310731,44.888699 14.964096,41.600834 
	C15.225692,41.489674 15.487288,41.378510 15.748883,41.267349 
	C19.709375,49.347404 23.669868,57.427460 27.619507,65.485367 
	C24.279383,66.214279 21.350004,66.853554 18.220131,67.536583 
	C17.541006,62.739773 16.805557,57.545135 16.037052,51.907463 
z"/>
<path fill="#090909" opacity="1.000000" stroke="none" 
	d="
M102.629898,48.640873 
	C103.848381,46.250088 104.849876,44.168720 105.877647,42.100395 
	C106.002930,41.848259 106.269341,41.666248 107.187035,40.686893 
	C106.002472,50.258461 104.923683,58.975395 103.860138,67.569084 
	C100.861115,66.878014 97.944191,66.205864 94.507019,65.413834 
	C97.068542,60.086288 99.744720,54.520267 102.629898,48.640873 
z"/>
<path fill="#0D0D0D" opacity="1.000000" stroke="none" 
	d="
M108.310822,23.469269 
	C110.842087,21.338755 113.297302,21.122963 114.651077,23.880930 
	C115.176201,24.950718 114.319260,27.536457 113.256653,28.382280 
	C110.648865,30.458042 108.190620,28.197903 108.310822,23.469269 
z"/>
<path fill="#0E0E0E" opacity="1.000000" stroke="none" 
	d="
M64.067024,13.138861 
	C62.061928,13.569915 60.128429,13.955280 58.397484,13.525282 
	C57.948402,13.413721 57.605007,10.476718 58.192936,9.347836 
	C58.665764,8.439965 61.450405,7.586447 61.764557,7.951632 
	C62.909039,9.282036 63.447330,11.133917 64.067024,13.138861 
z"/>
<path fill="#0D0D0D" opacity="1.000000" stroke="none" 
	d="
M12.433390,28.480217 
	C10.448069,28.096384 8.582459,27.743589 7.241245,26.710196 
	C6.736751,26.321489 7.009515,23.883978 7.715854,23.224882 
	C8.615394,22.385508 10.550472,21.768890 11.624856,22.168919 
	C14.951559,23.407566 14.927829,25.730583 12.433390,28.480217 
z"/>
<path fill="#0C0C0C" opacity="1.000000" stroke="none" 
	d="
M84.053787,16.748180 
	C85.300880,14.995078 86.479004,13.429116 88.016479,12.400037 
	C88.317154,12.198783 90.731972,13.978318 90.877975,15.024759 
	C91.056633,16.305277 89.786797,18.982294 89.293274,18.947182 
	C87.531334,18.821825 85.832932,17.803490 84.053787,16.748180 
z"/>
<path fill="#0F0F0F" opacity="1.000000" stroke="none" 
	d="
M30.900372,16.769384 
	C32.120579,15.000482 33.249901,13.404182 34.770733,12.402014 
	C35.106846,12.180531 37.563816,13.950480 37.722595,15.002843 
	C37.913754,16.269779 36.658909,18.932989 36.091202,18.916262 
	C34.361839,18.865316 32.661880,17.816395 30.900372,16.769384 
z"/>
</svg>