<svg version="1.1" id="Layer_1" xmlns="http://www.w3.org/2000/svg" xmlns:xlink="http://www.w3.org/1999/xlink" x="0px" y="0px"
	 width="100%" viewBox="0 0 120 120" enable-background="new 0 0 120 120" xml:space="preserve">
<path fill="#010101" opacity="1.000000" stroke="none" 
	d="
M78.000000,121.000000 
	C52.000000,121.000000 26.500000,121.000000 1.000000,121.000000 
	C1.000000,81.000000 1.000000,41.000000 1.000000,1.000000 
	C41.000000,1.000000 81.000000,1.000000 121.000000,1.000000 
	C121.000000,41.000000 121.000000,81.000000 121.000000,121.000000 
	C106.833336,121.000000 92.666664,121.000000 78.000000,121.000000 
M14.495831,80.573418 
	C14.946928,80.792633 15.398026,81.011856 16.167181,81.640961 
	C18.071985,81.002960 20.435314,80.865723 21.789175,79.626038 
	C24.914328,76.764442 25.898209,78.556328 26.761412,80.702614 
	C25.653988,82.882507 24.777386,84.608040 23.900785,86.333572 
	C24.454964,86.656639 25.009140,86.979706 25.563318,87.302773 
	C27.377287,84.871140 28.932367,82.180206 31.056606,80.059334 
	C36.223461,74.900650 40.872074,68.333084 47.160175,65.393005 
	C56.919079,60.830093 64.798729,56.023239 65.979210,43.890240 
	C67.440498,45.427898 69.144470,47.270603 68.785698,48.521881 
	C67.732063,52.196678 65.853348,55.634079 64.310028,59.169807 
	C63.847515,60.229408 63.086838,61.290916 63.036415,62.378155 
	C62.456486,74.883194 56.094547,84.330048 47.876629,93.201736 
	C43.813309,97.588295 40.269798,102.882607 39.870701,109.997917 
	C43.355709,109.997917 46.481167,109.997948 49.606625,109.997902 
	C68.430588,109.997627 87.254662,109.963364 106.078407,110.028542 
	C109.444458,110.040192 111.036369,109.758720 110.247688,105.366325 
	C108.909737,97.914864 109.064079,90.205399 107.916374,82.707672 
	C105.786263,68.792061 102.994331,54.992496 95.634209,42.662296 
	C89.181335,31.851984 81.118256,23.479563 67.051369,25.012777 
	C61.116360,25.659658 57.543312,23.336023 56.250267,17.408756 
	C56.028763,16.393404 54.886749,15.578861 54.766319,15.426420 
	C50.475204,18.549318 47.024689,21.580082 43.111805,23.793449 
	C36.234581,27.683628 28.874485,30.880295 25.498011,38.763214 
	C24.814278,40.359497 24.649469,42.212200 24.442368,43.969894 
	C24.179846,46.197956 24.826233,48.841850 23.841183,50.619648 
	C20.545721,56.567215 16.656109,62.182907 13.076405,67.976585 
	C10.706791,71.811760 11.143508,77.430199 14.495831,80.573418 
M40.902473,20.666151 
	C40.851238,19.888910 41.075123,18.623356 40.703842,18.414171 
	C38.402500,17.117580 35.967453,16.058302 32.831448,14.565421 
	C33.068745,18.252859 33.243919,20.975016 33.463192,24.382334 
	C36.492794,22.881392 38.382961,21.944952 40.902473,20.666151 
z"/>
<path fill="#CC0000" opacity="1.000000" stroke="none" 
	d="
M13.877163,80.147827 
	C11.143508,77.430199 10.706791,71.811760 13.076405,67.976585 
	C16.656109,62.182907 20.545721,56.567215 23.841183,50.619648 
	C24.826233,48.841850 24.179846,46.197956 24.442368,43.969894 
	C24.649469,42.212200 24.814278,40.359497 25.498011,38.763214 
	C28.874485,30.880295 36.234581,27.683628 43.111805,23.793449 
	C47.024689,21.580082 50.475204,18.549318 54.766319,15.426420 
	C54.886749,15.578861 56.028763,16.393404 56.250267,17.408756 
	C57.543312,23.336023 61.116360,25.659658 67.051369,25.012777 
	C81.118256,23.479563 89.181335,31.851984 95.634209,42.662296 
	C102.994331,54.992496 105.786263,68.792061 107.916374,82.707672 
	C109.064079,90.205399 108.909737,97.914864 110.247688,105.366325 
	C111.036369,109.758720 109.444458,110.040192 106.078407,110.028542 
	C87.254662,109.963364 68.430588,109.997627 49.606625,109.997902 
	C46.481167,109.997948 43.355709,109.997917 39.870701,109.997917 
	C40.269798,102.882607 43.813309,97.588295 47.876629,93.201736 
	C56.094547,84.330048 62.456486,74.883194 63.036415,62.378155 
	C63.086838,61.290916 63.847515,60.229408 64.310028,59.169807 
	C65.853348,55.634079 67.732063,52.196678 68.785698,48.521881 
	C69.144470,47.270603 67.440498,45.427898 65.979210,43.890240 
	C64.798729,56.023239 56.919079,60.830093 47.160175,65.393005 
	C40.872074,68.333084 36.223461,74.900650 31.056606,80.059334 
	C28.932367,82.180206 27.377287,84.871140 25.563318,87.302773 
	C25.009140,86.979706 24.454964,86.656639 23.900785,86.333572 
	C24.777386,84.608040 25.653988,82.882507 26.761412,80.702614 
	C25.898209,78.556328 24.914328,76.764442 21.789175,79.626038 
	C20.435314,80.865723 18.071985,81.002960 16.038279,81.396591 
	C15.909376,81.152222 15.829613,81.092552 15.882425,80.909271 
	C15.998361,80.408119 15.873353,80.205254 15.919404,80.051079 
	C16.874746,79.332901 17.470900,78.681046 18.359104,77.874176 
	C18.762053,75.884857 18.872950,74.050537 18.983845,72.216217 
	C18.285570,72.060684 17.587294,71.905151 16.889019,71.749619 
	C15.936396,74.472382 14.983773,77.195152 13.948596,79.945885 
	C13.866042,79.973854 13.877163,80.147827 13.877163,80.147827 
z"/>
<path fill="#CC0000" opacity="1.000000" stroke="none" 
	d="
M40.587799,20.837334 
	C38.382961,21.944952 36.492794,22.881392 33.463192,24.382334 
	C33.243919,20.975016 33.068745,18.252859 32.831448,14.565421 
	C35.967453,16.058302 38.402500,17.117580 40.703842,18.414171 
	C41.075123,18.623356 40.851238,19.888910 40.587799,20.837334 
z"/>
<path fill="#090909" opacity="1.000000" stroke="none" 
	d="
M15.829612,81.092552 
	C15.829613,81.092552 15.909376,81.152222 15.879250,81.191650 
	C15.398026,81.011856 14.946928,80.792633 14.186497,80.360626 
	C13.877163,80.147827 13.866042,79.973854 14.385870,80.258743 
	C15.213669,80.726601 15.521640,80.909576 15.829612,81.092552 
z"/>
<path fill="#010101" opacity="1.000000" stroke="none" 
	d="
M15.560218,80.117401 
	C15.873353,80.205254 15.998361,80.408119 15.882424,80.909271 
	C15.521640,80.909576 15.213669,80.726601 14.468424,80.230774 
	C14.983773,77.195152 15.936396,74.472382 16.889019,71.749619 
	C17.587294,71.905151 18.285570,72.060684 18.983845,72.216217 
	C18.872950,74.050537 18.762053,75.884857 18.082684,78.046829 
	C16.862879,78.955460 16.211550,79.536430 15.560218,80.117401 
z"/>
<path fill="#090909" opacity="1.000000" stroke="none" 
	d="
M15.919405,80.051079 
	C16.211550,79.536430 16.862879,78.955460 17.790630,78.201836 
	C17.470900,78.681046 16.874746,79.332901 15.919405,80.051079 
z"/>
</svg>