<svg version="1.1" id="Layer_1" xmlns="http://www.w3.org/2000/svg" xmlns:xlink="http://www.w3.org/1999/xlink" x="0px" y="0px"
	 width="100%" viewBox="0 0 120 120" enable-background="new 0 0 120 120" xml:space="preserve">
<path fill="#010101" opacity="1.000000" stroke="none" 
	d="
M78.000000,121.000000 
	C52.000000,121.000000 26.500000,121.000000 1.000000,121.000000 
	C1.000000,81.000000 1.000000,41.000000 1.000000,1.000000 
	C41.000000,1.000000 81.000000,1.000000 121.000000,1.000000 
	C121.000000,41.000000 121.000000,81.000000 121.000000,121.000000 
	C106.833336,121.000000 92.666664,121.000000 78.000000,121.000000 
M13.810413,79.836685 
	C13.810413,79.836685 13.731602,79.870735 13.996058,80.590652 
	C17.172251,82.741142 19.830015,82.020950 22.434881,79.401039 
	C23.138401,78.693466 24.669937,78.809151 25.821405,78.546944 
	C25.718313,79.737770 25.880070,81.037148 25.447351,82.092865 
	C24.861990,83.520996 23.820286,84.762077 22.974365,86.083412 
	C23.419640,86.524513 23.864914,86.965614 24.310188,87.406715 
	C25.962158,85.797775 28.003820,84.434608 29.199850,82.538132 
	C34.929142,73.453583 41.870926,66.259743 52.522343,62.609356 
	C59.330021,60.276276 64.258026,55.099072 64.659180,47.021225 
	C64.712143,45.954613 65.534615,44.926216 66.204659,43.422344 
	C69.036011,47.931923 68.311859,52.601955 64.813820,57.769028 
	C63.744499,59.348560 62.401779,61.215328 62.389671,62.958927 
	C62.327473,71.917313 58.685440,79.367661 53.391029,86.228981 
	C49.935951,90.706619 46.151733,94.965271 43.075741,99.687332 
	C41.222691,102.531998 40.445141,106.077240 39.036095,109.687378 
	C63.733799,109.687378 87.134888,109.687378 111.199524,109.687378 
	C109.429550,96.906990 108.111481,84.487907 105.903938,72.228989 
	C103.477837,58.756416 99.603340,45.692696 90.618927,34.809231 
	C85.128746,28.158571 77.916420,23.324802 69.529411,24.431318 
	C60.762367,25.587973 57.242805,21.957542 55.041016,14.786914 
	C54.969856,14.555157 54.613033,14.411112 53.948193,13.861383 
	C50.114964,21.434135 42.439873,23.810804 35.692490,27.498989 
	C34.530121,28.134354 33.300560,28.705387 32.275906,29.523817 
	C28.152882,32.817020 23.981977,36.646599 24.735077,42.246510 
	C25.463240,47.661007 23.328661,51.567684 20.727016,55.641468 
	C18.135633,59.699177 15.084409,63.538952 13.061103,67.861092 
	C11.260801,71.706863 8.914829,76.202736 13.810413,79.836685 
M38.255898,21.971872 
	C39.687271,21.180611 41.118649,20.389347 43.011417,19.343025 
	C39.938961,17.639145 37.185566,16.112202 33.928314,14.305838 
	C33.928314,18.003525 33.928314,20.779766 33.928314,23.955362 
	C35.300949,23.314917 36.435181,22.785706 38.255898,21.971872 
z"/>
<path fill="#FDFDFD" opacity="1.000000" stroke="none" 
	d="
M13.799489,79.908913 
	C8.914829,76.202736 11.260801,71.706863 13.061103,67.861092 
	C15.084409,63.538952 18.135633,59.699177 20.727016,55.641468 
	C23.328661,51.567684 25.463240,47.661007 24.735077,42.246510 
	C23.981977,36.646599 28.152882,32.817020 32.275906,29.523817 
	C33.300560,28.705387 34.530121,28.134354 35.692490,27.498989 
	C42.439873,23.810804 50.114964,21.434135 53.948193,13.861383 
	C54.613033,14.411112 54.969856,14.555157 55.041016,14.786914 
	C57.242805,21.957542 60.762367,25.587973 69.529411,24.431318 
	C77.916420,23.324802 85.128746,28.158571 90.618927,34.809231 
	C99.603340,45.692696 103.477837,58.756416 105.903938,72.228989 
	C108.111481,84.487907 109.429550,96.906990 111.199524,109.687378 
	C87.134888,109.687378 63.733799,109.687378 39.036095,109.687378 
	C40.445141,106.077240 41.222691,102.531998 43.075741,99.687332 
	C46.151733,94.965271 49.935951,90.706619 53.391029,86.228981 
	C58.685440,79.367661 62.327473,71.917313 62.389671,62.958927 
	C62.401779,61.215328 63.744499,59.348560 64.813820,57.769028 
	C68.311859,52.601955 69.036011,47.931923 66.204659,43.422344 
	C65.534615,44.926216 64.712143,45.954613 64.659180,47.021225 
	C64.258026,55.099072 59.330021,60.276276 52.522343,62.609356 
	C41.870926,66.259743 34.929142,73.453583 29.199850,82.538132 
	C28.003820,84.434608 25.962158,85.797775 24.310188,87.406715 
	C23.864914,86.965614 23.419640,86.524513 22.974365,86.083412 
	C23.820286,84.762077 24.861990,83.520996 25.447351,82.092865 
	C25.880070,81.037148 25.718313,79.737770 25.821404,78.546944 
	C24.669937,78.809151 23.138401,78.693466 22.434881,79.401039 
	C19.830015,82.020950 17.172251,82.741142 14.241753,80.000641 
	C18.815500,79.306488 20.516094,75.882065 17.498766,70.177567 
	C15.994806,74.133896 14.897148,77.021400 13.799489,79.908913 
M31.883659,44.410156 
	C33.947910,42.042358 35.756195,39.628567 33.521057,36.299450 
	C28.904507,39.673779 28.293159,42.178284 31.883659,44.410156 
z"/>
<path fill="#F3F3F3" opacity="1.000000" stroke="none" 
	d="
M37.912655,22.114183 
	C36.435181,22.785706 35.300949,23.314917 33.928314,23.955362 
	C33.928314,20.779766 33.928314,18.003525 33.928314,14.305838 
	C37.185566,16.112202 39.938961,17.639145 43.011417,19.343025 
	C41.118649,20.389347 39.687271,21.180611 37.912655,22.114183 
z"/>
<path fill="#202020" opacity="1.000000" stroke="none" 
	d="
M31.577572,44.613674 
	C28.293159,42.178284 28.904507,39.673779 33.521057,36.299450 
	C35.756195,39.628567 33.947910,42.042358 31.577572,44.613674 
z"/>
<path fill="#1B1B1B" opacity="1.000000" stroke="none" 
	d="
M13.804951,79.872803 
	C14.897148,77.021400 15.994806,74.133896 17.498766,70.177567 
	C20.516094,75.882065 18.815500,79.306488 14.109524,79.640678 
	C13.731602,79.870735 13.810413,79.836685 13.804951,79.872803 
z"/>
</svg>