<svg version="1.1" id="Layer_1" xmlns="http://www.w3.org/2000/svg" xmlns:xlink="http://www.w3.org/1999/xlink" x="0px" y="0px"
	 width="100%" viewBox="0 0 120 120" enable-background="new 0 0 120 120" xml:space="preserve">
<path fill="#000000" opacity="1.000000" stroke="none" 
	d="
M56.000000,121.000000 
	C37.333332,121.000000 19.166666,121.000000 1.000000,121.000000 
	C1.000000,81.000000 1.000000,41.000000 1.000000,1.000000 
	C41.000000,1.000000 81.000000,1.000000 121.000000,1.000000 
	C121.000000,41.000000 121.000000,81.000000 121.000000,121.000000 
	C99.500000,121.000000 78.000000,121.000000 56.000000,121.000000 
M39.502403,102.000000 
	C59.364834,102.000000 79.227264,102.000000 99.089691,102.000000 
	C99.196190,101.570374 99.302689,101.140755 99.409180,100.711128 
	C98.078835,100.070595 96.796852,99.289207 95.410057,98.813065 
	C88.053215,96.287201 85.331497,92.814827 85.020889,84.981628 
	C84.614197,74.725266 84.661354,64.438446 83.867073,54.214931 
	C83.442390,48.748676 82.197357,43.198860 80.373917,38.020813 
	C77.097496,28.716747 68.809288,24.104404 60.927837,19.035692 
	C53.471897,24.283005 44.748192,28.415323 41.676548,37.933388 
	C39.887905,43.475822 38.620090,49.321953 38.129566,55.117065 
	C37.320988,64.669731 37.429893,74.296471 36.970215,83.883270 
	C36.517479,93.325310 34.477734,95.886169 25.691381,98.998558 
	C24.441647,99.441254 23.278929,100.129608 22.075935,100.704262 
	C22.170210,101.136177 22.264482,101.568085 22.358755,102.000000 
	C27.740427,102.000000 33.122101,102.000000 39.502403,102.000000 
z"/>
<path fill="#CC0000" opacity="1.000000" stroke="none" 
	d="
M39.003090,102.000000 
	C33.122101,102.000000 27.740427,102.000000 22.358755,102.000000 
	C22.264482,101.568085 22.170210,101.136177 22.075935,100.704262 
	C23.278929,100.129608 24.441647,99.441254 25.691381,98.998558 
	C34.477734,95.886169 36.517479,93.325310 36.970215,83.883270 
	C37.429893,74.296471 37.320988,64.669731 38.129566,55.117065 
	C38.620090,49.321953 39.887905,43.475822 41.676548,37.933388 
	C44.748192,28.415323 53.471897,24.283005 60.927837,19.035692 
	C68.809288,24.104404 77.097496,28.716747 80.373917,38.020813 
	C82.197357,43.198860 83.442390,48.748676 83.867073,54.214931 
	C84.661354,64.438446 84.614197,74.725266 85.020889,84.981628 
	C85.331497,92.814827 88.053215,96.287201 95.410057,98.813065 
	C96.796852,99.289207 98.078835,100.070595 99.409180,100.711128 
	C99.302689,101.140755 99.196190,101.570374 99.089691,102.000000 
	C79.227264,102.000000 59.364834,102.000000 39.003090,102.000000 
M66.000000,69.558678 
	C66.000000,66.802193 66.000000,64.045708 66.000000,61.241035 
	C69.346519,61.048946 71.943848,60.899860 74.604553,60.747135 
	C74.604553,57.368999 74.604553,54.338860 74.604553,51.296192 
	C65.300003,51.296192 56.393028,51.296192 47.383804,51.296192 
	C47.383804,54.636368 47.383804,57.671837 47.383804,60.779434 
	C50.354397,60.951996 52.948017,61.102661 56.141457,61.288170 
	C56.141457,68.967285 56.141457,76.348480 56.141457,83.694008 
	C59.691658,83.694008 62.610733,83.694008 66.000000,83.694008 
	C66.000000,79.113701 66.000000,74.826591 66.000000,69.558678 
z"/>
<path fill="#000000" opacity="1.000000" stroke="none" 
	d="
M66.000000,70.049088 
	C66.000000,74.826591 66.000000,79.113701 66.000000,83.694008 
	C62.610733,83.694008 59.691658,83.694008 56.141457,83.694008 
	C56.141457,76.348480 56.141457,68.967285 56.141457,61.288170 
	C52.948017,61.102661 50.354397,60.951996 47.383804,60.779434 
	C47.383804,57.671837 47.383804,54.636368 47.383804,51.296192 
	C56.393028,51.296192 65.300003,51.296192 74.604553,51.296192 
	C74.604553,54.338860 74.604553,57.368999 74.604553,60.747135 
	C71.943848,60.899860 69.346519,61.048946 66.000000,61.241035 
	C66.000000,64.045708 66.000000,66.802193 66.000000,70.049088 
z"/>
</svg>