<svg version="1.1" id="Layer_1" xmlns="http://www.w3.org/2000/svg" xmlns:xlink="http://www.w3.org/1999/xlink" x="0px" y="0px"
	 width="100%" viewBox="0 0 120 120" enable-background="new 0 0 120 120" xml:space="preserve">
<path fill="#000000" opacity="1.000000" stroke="none" 
	d="
M55.000000,121.000000 
	C36.666668,121.000000 18.833334,121.000000 1.000000,121.000000 
	C1.000000,81.000000 1.000000,41.000000 1.000000,1.000000 
	C41.000000,1.000000 81.000000,1.000000 121.000000,1.000000 
	C121.000000,41.000000 121.000000,81.000000 121.000000,121.000000 
	C99.166664,121.000000 77.333336,121.000000 55.000000,121.000000 
M52.275257,33.168568 
	C51.322021,34.106323 50.444538,35.759258 49.403648,35.869514 
	C40.492592,36.813370 31.983681,39.052681 24.134226,43.390526 
	C11.631780,50.299751 10.373074,64.692490 19.656630,72.725777 
	C27.322498,79.359230 30.539852,86.392342 28.992189,96.045502 
	C28.914110,96.532501 28.796417,97.150818 29.013374,97.524307 
	C30.126024,99.439720 30.932665,102.312881 32.598087,102.983101 
	C37.903835,105.118309 43.455460,106.875076 49.070004,107.963516 
	C62.005600,110.471207 74.562386,109.207214 86.573395,103.280556 
	C89.140221,102.014000 90.240967,100.840172 90.091568,97.923241 
	C89.828140,92.780022 90.017853,87.613586 90.017853,82.787056 
	C92.698235,81.029419 95.292465,79.670776 97.485229,77.833122 
	C109.093620,68.104652 114.744865,50.856300 95.165741,42.160259 
	C87.479965,38.746635 79.012619,37.092705 70.069244,34.385555 
	C69.697212,31.644848 67.601944,28.475290 63.118088,28.049788 
	C59.000355,27.659029 54.715481,27.572716 52.275257,33.168568 
z"/>
<path fill="#F6F6F6" opacity="1.000000" stroke="none" 
	d="
M52.573711,32.886829 
	C54.715481,27.572716 59.000355,27.659029 63.118088,28.049788 
	C67.601944,28.475290 69.697212,31.644848 70.069244,34.385555 
	C79.012619,37.092705 87.479965,38.746635 95.165741,42.160259 
	C114.744865,50.856300 109.093620,68.104652 97.485229,77.833122 
	C95.292465,79.670776 92.698235,81.029419 90.017853,82.787056 
	C90.017853,87.613586 89.828140,92.780022 90.091568,97.923241 
	C90.240967,100.840172 89.140221,102.014000 86.573395,103.280556 
	C74.562386,109.207214 62.005600,110.471207 49.070004,107.963516 
	C43.455460,106.875076 37.903835,105.118309 32.598087,102.983101 
	C30.932665,102.312881 30.126024,99.439720 29.013374,97.524307 
	C28.796417,97.150818 28.914110,96.532501 28.992189,96.045502 
	C30.539852,86.392342 27.322498,79.359230 19.656630,72.725777 
	C10.373074,64.692490 11.631780,50.299751 24.134226,43.390526 
	C31.983681,39.052681 40.492592,36.813370 49.403648,35.869514 
	C50.444538,35.759258 51.322021,34.106323 52.573711,32.886829 
M97.054893,71.537575 
	C99.026909,68.137360 101.853722,64.955406 102.789505,61.290588 
	C104.627235,54.093479 100.835251,49.174156 91.262535,45.199009 
	C77.511719,39.488873 63.051773,38.409779 48.601334,40.725754 
	C40.720203,41.988865 32.802185,44.691441 25.623333,48.216339 
	C17.807718,52.053905 16.316994,60.477940 21.285257,67.695305 
	C23.403936,70.773094 26.553446,73.150139 29.282631,75.795990 
	C31.414339,77.862610 33.636105,77.823807 36.494610,76.831863 
	C51.771889,71.530380 67.264503,71.405182 82.477203,76.767319 
	C86.909004,78.329422 89.982376,77.988350 93.171120,75.008598 
	C94.264481,73.986893 95.420715,73.032494 97.054893,71.537575 
M60.400513,104.735214 
	C67.917160,104.140930 75.491814,103.783928 82.700874,99.652687 
	C67.767166,94.273758 46.372772,94.546852 37.180077,101.376450 
	C44.620495,102.498535 52.060909,103.620613 60.400513,104.735214 
M36.615391,90.187569 
	C33.397835,91.112595 33.237900,93.272537 34.200397,96.080353 
	C51.310883,90.129990 68.360336,90.344162 85.319313,96.055611 
	C86.653595,92.231026 84.830154,90.881325 81.911270,89.923698 
	C67.056801,85.050232 52.233963,85.019562 36.615391,90.187569 
M85.650848,82.963669 
	C85.192543,82.509796 84.815582,81.848824 84.264084,81.632179 
	C68.307030,75.363686 52.232960,75.348755 36.217499,81.226738 
	C34.792202,81.749840 34.123543,84.334511 33.103470,85.961708 
	C51.289886,80.772301 68.331215,80.863457 85.593269,86.895241 
	C85.655273,85.661522 85.704025,84.691437 85.650848,82.963669 
z"/>
<path fill="#020202" opacity="1.000000" stroke="none" 
	d="
M96.801559,71.792458 
	C95.420715,73.032494 94.264481,73.986893 93.171120,75.008598 
	C89.982376,77.988350 86.909004,78.329422 82.477203,76.767319 
	C67.264503,71.405182 51.771889,71.530380 36.494610,76.831863 
	C33.636105,77.823807 31.414339,77.862610 29.282631,75.795990 
	C26.553446,73.150139 23.403936,70.773094 21.285257,67.695305 
	C16.316994,60.477940 17.807718,52.053905 25.623333,48.216339 
	C32.802185,44.691441 40.720203,41.988865 48.601334,40.725754 
	C63.051773,38.409779 77.511719,39.488873 91.262535,45.199009 
	C100.835251,49.174156 104.627235,54.093479 102.789505,61.290588 
	C101.853722,64.955406 99.026909,68.137360 96.801559,71.792458 
z"/>
<path fill="#0B0B0B" opacity="1.000000" stroke="none" 
	d="
M59.950920,104.738953 
	C52.060909,103.620613 44.620495,102.498535 37.180077,101.376450 
	C46.372772,94.546852 67.767166,94.273758 82.700874,99.652687 
	C75.491814,103.783928 67.917160,104.140930 59.950920,104.738953 
z"/>
<path fill="#0F0F0F" opacity="1.000000" stroke="none" 
	d="
M37.007965,90.071548 
	C52.233963,85.019562 67.056801,85.050232 81.911270,89.923698 
	C84.830154,90.881325 86.653595,92.231026 85.319313,96.055611 
	C68.360336,90.344162 51.310883,90.129990 34.200397,96.080353 
	C33.237900,93.272537 33.397835,91.112595 37.007965,90.071548 
z"/>
<path fill="#0E0E0E" opacity="1.000000" stroke="none" 
	d="
M85.701813,83.342506 
	C85.704025,84.691437 85.655273,85.661522 85.593269,86.895241 
	C68.331215,80.863457 51.289886,80.772301 33.103470,85.961708 
	C34.123543,84.334511 34.792202,81.749840 36.217499,81.226738 
	C52.232960,75.348755 68.307030,75.363686 84.264084,81.632179 
	C84.815582,81.848824 85.192543,82.509796 85.701813,83.342506 
z"/>
</svg>