<svg version="1.1" id="Layer_1" xmlns="http://www.w3.org/2000/svg" xmlns:xlink="http://www.w3.org/1999/xlink" x="0px" y="0px"
	 width="100%" viewBox="0 0 120 120" enable-background="new 0 0 120 120" xml:space="preserve">
<path fill="#020202" opacity="1.000000" stroke="none" 
	d="
M62.000000,121.000000 
	C41.333332,121.000000 21.166666,121.000000 1.000000,121.000000 
	C1.000000,81.000000 1.000000,41.000000 1.000000,1.000000 
	C41.000000,1.000000 81.000000,1.000000 121.000000,1.000000 
	C121.000000,41.000000 121.000000,81.000000 121.000000,121.000000 
	C101.500000,121.000000 82.000000,121.000000 62.000000,121.000000 
M20.921722,67.305328 
	C23.830997,70.231133 26.503258,73.468781 29.756777,75.941673 
	C31.224222,77.057037 34.091637,77.399940 35.912273,76.814125 
	C52.339062,71.528595 68.602936,71.552582 84.859207,77.443390 
	C86.142128,77.908272 88.277870,78.416405 88.951508,77.778671 
	C93.469055,73.501923 98.540985,69.452484 101.796677,64.296089 
	C105.475143,58.470108 103.673546,51.976288 97.474968,48.962284 
	C89.978806,45.317341 81.886795,42.100822 73.718483,40.804550 
	C57.739613,38.268772 41.757591,39.247517 27.043528,47.096958 
	C18.323133,51.748985 16.618868,57.524433 20.921722,67.305328 
M68.303993,96.087547 
	C57.724953,95.384163 47.235203,95.466171 37.039688,99.482628 
	C45.464920,106.469398 75.206177,106.159409 82.491539,99.060318 
	C77.845314,98.053505 73.515205,97.115196 68.303993,96.087547 
M36.848476,85.964912 
	C53.129616,80.662323 69.364960,81.347595 85.381020,86.771416 
	C86.636330,82.985878 84.926987,81.627007 81.953804,80.593590 
	C71.853508,77.082947 61.498188,76.104134 50.991875,77.558731 
	C45.935223,78.258835 40.940022,79.681526 36.072376,81.257065 
	C34.962006,81.616470 34.493931,83.960274 33.730236,85.390739 
	C34.529266,85.643776 35.328297,85.896812 36.848476,85.964912 
M63.378273,91.873856 
	C70.707405,93.020782 78.036545,94.167702 85.575272,95.347427 
	C86.682068,92.702972 85.341866,91.026581 82.272964,90.008263 
	C67.261345,85.027100 52.256054,84.906364 37.269947,90.003632 
	C33.273479,91.362953 33.320805,91.502090 34.187382,94.687187 
	C43.744473,93.728706 53.079529,92.792496 63.378273,91.873856 
z"/>
<path fill="#FDFDFD" opacity="1.000000" stroke="none" 
	d="
M20.722637,66.974121 
	C16.618868,57.524433 18.323133,51.748985 27.043528,47.096958 
	C41.757591,39.247517 57.739613,38.268772 73.718483,40.804550 
	C81.886795,42.100822 89.978806,45.317341 97.474968,48.962284 
	C103.673546,51.976288 105.475143,58.470108 101.796677,64.296089 
	C98.540985,69.452484 93.469055,73.501923 88.951508,77.778671 
	C88.277870,78.416405 86.142128,77.908272 84.859207,77.443390 
	C68.602936,71.552582 52.339062,71.528595 35.912273,76.814125 
	C34.091637,77.399940 31.224222,77.057037 29.756777,75.941673 
	C26.503258,73.468781 23.830997,70.231133 20.722637,66.974121 
z"/>
<path fill="#F4F4F4" opacity="1.000000" stroke="none" 
	d="
M68.744545,96.132217 
	C73.515205,97.115196 77.845314,98.053505 82.491539,99.060318 
	C75.206177,106.159409 45.464920,106.469398 37.039688,99.482628 
	C47.235203,95.466171 57.724953,95.384163 68.744545,96.132217 
z"/>
<path fill="#F1F1F1" opacity="1.000000" stroke="none" 
	d="
M36.487900,86.057381 
	C35.328297,85.896812 34.529266,85.643776 33.730232,85.390747 
	C34.493931,83.960274 34.962006,81.616470 36.072376,81.257065 
	C40.940022,79.681526 45.935223,78.258835 50.991875,77.558731 
	C61.498188,76.104134 71.853508,77.082947 81.953804,80.593590 
	C84.926987,81.627007 86.636330,82.985878 85.381020,86.771416 
	C69.364960,81.347595 53.129616,80.662323 36.487900,86.057381 
z"/>
<path fill="#F0F0F0" opacity="1.000000" stroke="none" 
	d="
M62.896431,91.865067 
	C53.079529,92.792496 43.744473,93.728706 34.187382,94.687187 
	C33.320805,91.502090 33.273479,91.362953 37.269947,90.003632 
	C52.256054,84.906364 67.261345,85.027100 82.272964,90.008263 
	C85.341866,91.026581 86.682068,92.702972 85.575272,95.347427 
	C78.036545,94.167702 70.707405,93.020782 62.896431,91.865067 
z"/>
</svg>