<svg version="1.1" id="Layer_1" xmlns="http://www.w3.org/2000/svg" xmlns:xlink="http://www.w3.org/1999/xlink" x="0px" y="0px"
	 width="100%" viewBox="0 0 120 120" enable-background="new 0 0 120 120" xml:space="preserve">
<path fill="#020000" opacity="1.000000" stroke="none" 
	d="
M1.000000,49.000000 
	C1.000000,32.666668 1.000000,16.833334 1.000000,1.000000 
	C41.000000,1.000000 81.000000,1.000000 121.000000,1.000000 
	C121.000000,41.000000 121.000000,81.000000 121.000000,121.000000 
	C81.000000,121.000000 41.000000,121.000000 1.000000,121.000000 
	C1.000000,97.166664 1.000000,73.333336 1.000000,49.000000 
M49.515659,56.996208 
	C60.601322,56.996208 71.686981,56.996208 82.723885,56.996208 
	C82.723885,47.945763 82.723885,39.700111 82.723885,31.421898 
	C67.323807,31.421898 52.285366,31.421898 37.274597,31.421898 
	C37.274597,40.081272 37.274597,48.325951 37.274597,56.996208 
	C41.258335,56.996208 44.891155,56.996208 49.515659,56.996208 
M78.486191,69.026459 
	C63.164989,69.026779 47.841164,69.184883 32.524220,68.929634 
	C28.027140,68.854691 26.405174,70.363197 27.021952,74.663353 
	C27.203852,75.931549 27.220840,77.223396 27.317808,78.565338 
	C49.342907,78.565338 71.026184,78.565338 92.760635,78.565338 
	C92.845001,77.143196 92.827797,76.138634 92.975754,75.159019 
	C93.689087,70.436020 91.899879,68.351509 86.967094,68.973076 
	C84.508141,69.282928 81.977852,69.026649 78.486191,69.026459 
M35.949219,18.609497 
	C34.559990,18.745558 33.170761,18.881620 31.687971,19.026846 
	C34.994801,29.577890 35.489292,29.959572 45.379852,29.959652 
	C55.204998,29.959730 65.030144,29.959755 74.855293,29.959646 
	C84.382751,29.959539 85.614609,28.966946 88.287392,18.608187 
	C71.033302,18.608187 53.943615,18.608187 35.949219,18.609497 
M29.707058,5.014421 
	C24.198555,6.634669 28.259365,10.643929 27.053091,13.653059 
	C49.289627,13.653059 70.981804,13.653059 92.640762,13.653059 
	C92.640762,10.628777 92.640762,8.037110 92.640762,5.243723 
	C89.391655,5.243723 86.466011,5.243723 84.501556,5.243723 
	C82.939278,6.900144 82.011993,8.773392 80.956825,8.848426 
	C76.315186,9.178511 71.632805,9.081469 66.975609,8.888122 
	C66.286407,8.859509 65.791420,7.212286 64.963966,6.794976 
	C63.410744,6.011638 61.681965,5.133505 60.022949,5.127042 
	C58.354240,5.120542 56.622261,5.997792 55.029724,6.730576 
	C53.789684,7.301163 52.776958,8.791522 51.565399,8.915242 
	C48.432034,9.235208 45.233353,8.860178 42.081871,9.073947 
	C38.994041,9.283398 36.523331,8.948173 36.477425,5.004416 
	C34.270962,5.004416 32.445351,5.004416 29.707058,5.014421 
M28.874512,112.021103 
	C27.101784,113.336197 25.329054,114.651299 23.556326,115.966393 
	C23.715715,116.371811 23.875105,116.777229 24.034494,117.182648 
	C35.575230,115.842903 47.115612,113.459244 58.656788,113.455399 
	C70.325386,113.451515 81.994766,115.804657 93.883247,117.150124 
	C93.712677,116.001907 93.773773,115.595711 93.599022,115.398392 
	C93.167992,114.911697 92.627151,114.522667 92.133232,114.091187 
	C87.390167,109.947830 81.456627,110.546394 75.795647,109.594421 
	C70.520035,108.707260 65.527565,105.035782 60.358795,104.921234 
	C55.113644,104.804993 49.823158,107.609711 44.515598,108.993523 
	C42.463821,109.528473 40.300121,109.618469 38.206062,110.010742 
	C35.329517,110.549591 32.470703,111.183090 28.874512,112.021103 
M32.554989,83.005020 
	C29.454159,83.005020 26.353331,83.005020 23.527313,83.005020 
	C22.214527,87.337654 23.703777,88.444893 27.251242,88.429123 
	C49.066612,88.332092 70.882912,88.324173 92.698174,88.432930 
	C96.624664,88.452499 97.760078,87.062027 96.397835,83.005020 
	C75.435333,83.005020 54.487114,83.005020 32.554989,83.005020 
M37.936195,64.996773 
	C53.836586,64.996773 69.736977,64.996773 85.858276,64.996773 
	C85.173401,60.261066 83.045868,58.809036 78.765495,58.903877 
	C66.121864,59.184021 53.462833,59.211143 40.820930,58.894295 
	C36.255089,58.779858 34.854057,60.835300 34.273453,64.797356 
	C35.394669,64.876846 36.218342,64.935242 37.936195,64.996773 
M65.427658,99.076363 
	C67.582870,99.050293 69.739281,99.060883 71.893044,98.990410 
	C76.173820,98.850311 77.802246,96.743050 76.581772,92.033936 
	C65.492241,92.033936 54.418808,91.955048 43.352406,92.197319 
	C42.546307,92.214958 40.923359,95.454460 41.154739,95.679420 
	C42.545437,97.031555 44.315144,98.739761 46.054089,98.853088 
	C52.164562,99.251320 58.314102,99.050087 65.427658,99.076363 
z"/>
<path fill="#CC0000" opacity="1.000000" stroke="none" 
	d="
M49.019821,56.996208 
	C44.891155,56.996208 41.258335,56.996208 37.274597,56.996208 
	C37.274597,48.325951 37.274597,40.081272 37.274597,31.421898 
	C52.285366,31.421898 67.323807,31.421898 82.723885,31.421898 
	C82.723885,39.700111 82.723885,47.945763 82.723885,56.996208 
	C71.686981,56.996208 60.601322,56.996208 49.019821,56.996208 
z"/>
<path fill="#CB0000" opacity="1.000000" stroke="none" 
	d="
M78.983009,69.026459 
	C81.977852,69.026649 84.508141,69.282928 86.967094,68.973076 
	C91.899879,68.351509 93.689087,70.436020 92.975754,75.159019 
	C92.827797,76.138634 92.845001,77.143196 92.760635,78.565338 
	C71.026184,78.565338 49.342907,78.565338 27.317808,78.565338 
	C27.220840,77.223396 27.203852,75.931549 27.021952,74.663353 
	C26.405174,70.363197 28.027140,68.854691 32.524220,68.929634 
	C47.841164,69.184883 63.164989,69.026779 78.983009,69.026459 
z"/>
<path fill="#CB0000" opacity="1.000000" stroke="none" 
	d="
M36.401573,18.608841 
	C53.943615,18.608187 71.033302,18.608187 88.287392,18.608187 
	C85.614609,28.966946 84.382751,29.959539 74.855293,29.959646 
	C65.030144,29.959755 55.204998,29.959730 45.379852,29.959652 
	C35.489292,29.959572 34.994801,29.577890 31.687971,19.026846 
	C33.170761,18.881620 34.559990,18.745558 36.401573,18.608841 
z"/>
<path fill="#CB0000" opacity="1.000000" stroke="none" 
	d="
M30.163397,5.009418 
	C32.445351,5.004416 34.270962,5.004416 36.477425,5.004416 
	C36.523331,8.948173 38.994041,9.283398 42.081871,9.073947 
	C45.233353,8.860178 48.432034,9.235208 51.565399,8.915242 
	C52.776958,8.791522 53.789684,7.301163 55.029724,6.730576 
	C56.622261,5.997792 58.354240,5.120542 60.022949,5.127042 
	C61.681965,5.133505 63.410744,6.011638 64.963966,6.794976 
	C65.791420,7.212286 66.286407,8.859509 66.975609,8.888122 
	C71.632805,9.081469 76.315186,9.178511 80.956825,8.848426 
	C82.011993,8.773392 82.939278,6.900144 84.501556,5.243723 
	C86.466011,5.243723 89.391655,5.243723 92.640762,5.243723 
	C92.640762,8.037110 92.640762,10.628777 92.640762,13.653059 
	C70.981804,13.653059 49.289627,13.653059 27.053091,13.653059 
	C28.259365,10.643929 24.198555,6.634669 30.163397,5.009418 
z"/>
<path fill="#C90000" opacity="1.000000" stroke="none" 
	d="
M29.239403,111.898567 
	C32.470703,111.183090 35.329517,110.549591 38.206062,110.010742 
	C40.300121,109.618469 42.463821,109.528473 44.515598,108.993523 
	C49.823158,107.609711 55.113644,104.804993 60.358795,104.921234 
	C65.527565,105.035782 70.520035,108.707260 75.795647,109.594421 
	C81.456627,110.546394 87.390167,109.947830 92.133232,114.091187 
	C92.627151,114.522667 93.167992,114.911697 93.599022,115.398392 
	C93.773773,115.595711 93.712677,116.001907 93.883247,117.150124 
	C81.994766,115.804657 70.325386,113.451515 58.656788,113.455399 
	C47.115612,113.459244 35.575230,115.842903 24.034494,117.182648 
	C23.875105,116.777229 23.715715,116.371811 23.556326,115.966393 
	C25.329054,114.651299 27.101784,113.336197 29.239403,111.898567 
z"/>
<path fill="#CC0000" opacity="1.000000" stroke="none" 
	d="
M33.046940,83.005020 
	C54.487114,83.005020 75.435333,83.005020 96.397835,83.005020 
	C97.760078,87.062027 96.624664,88.452499 92.698174,88.432930 
	C70.882912,88.324173 49.066612,88.332092 27.251242,88.429123 
	C23.703777,88.444893 22.214527,87.337654 23.527313,83.005020 
	C26.353331,83.005020 29.454159,83.005020 33.046940,83.005020 
z"/>
<path fill="#CC0000" opacity="1.000000" stroke="none" 
	d="
M37.489105,64.995209 
	C36.218342,64.935242 35.394669,64.876846 34.273453,64.797356 
	C34.854057,60.835300 36.255089,58.779858 40.820930,58.894295 
	C53.462833,59.211143 66.121864,59.184021 78.765495,58.903877 
	C83.045868,58.809036 85.173401,60.261066 85.858276,64.996773 
	C69.736977,64.996773 53.836586,64.996773 37.489105,64.995209 
z"/>
<path fill="#CA0000" opacity="1.000000" stroke="none" 
	d="
M64.938232,99.076370 
	C58.314102,99.050087 52.164562,99.251320 46.054089,98.853088 
	C44.315144,98.739761 42.545437,97.031555 41.154739,95.679420 
	C40.923359,95.454460 42.546307,92.214958 43.352406,92.197319 
	C54.418808,91.955048 65.492241,92.033936 76.581772,92.033936 
	C77.802246,96.743050 76.173820,98.850311 71.893044,98.990410 
	C69.739281,99.060883 67.582870,99.050293 64.938232,99.076370 
z"/>
</svg>