<svg version="1.1" id="Layer_1" xmlns="http://www.w3.org/2000/svg" xmlns:xlink="http://www.w3.org/1999/xlink" x="0px" y="0px"
	 width="100%" viewBox="0 0 120 120" enable-background="new 0 0 120 120" xml:space="preserve">
<path fill="#F4F4F4" opacity="1.000000" stroke="none" 
	d="
M54.000000,121.000000 
	C41.312439,121.000000 28.624876,121.000000 15.458567,120.611649 
	C15.641222,114.791206 25.475828,106.553307 31.821047,105.950279 
	C35.559467,105.594986 39.271538,104.962395 42.995457,104.454521 
	C37.921028,102.182091 35.576374,98.589966 35.938751,92.815475 
	C29.784468,92.815475 23.898022,92.815475 18.146893,92.815475 
	C18.146893,87.659912 18.146893,83.033913 18.146893,78.218704 
	C19.814013,78.022476 21.342772,77.842537 23.188204,77.625320 
	C23.188204,73.227661 23.188204,69.148132 23.188204,65.101219 
	C28.322998,64.833344 31.859171,60.649296 31.957104,54.895451 
	C32.053329,49.241962 32.302036,43.560345 31.864529,37.939270 
	C31.571688,34.176861 31.283775,29.606310 29.102556,26.950615 
	C22.647589,19.091509 22.490267,10.233202 23.000000,1.000000 
	C29.021152,1.000000 35.042305,1.000000 41.541859,1.438213 
	C42.800945,8.441935 47.309860,3.448178 50.000000,5.093102 
	C50.000000,3.277703 50.000000,2.138851 50.000000,1.000000 
	C56.354397,1.000000 62.708797,1.000000 69.541733,1.438213 
	C70.800941,8.441950 75.309868,3.448162 78.000000,5.093107 
	C78.000000,3.277798 78.000000,2.138899 78.000000,1.000000 
	C84.021156,1.000000 90.042305,1.000000 96.541855,1.468088 
	C97.020767,6.602475 97.071709,11.269746 96.981834,15.934303 
	C96.962433,16.940630 96.601974,18.027687 96.114815,18.923166 
	C93.466393,23.791355 89.343590,28.347160 88.359413,33.511879 
	C87.011055,40.587738 87.897110,48.116096 88.064293,55.445076 
	C88.184906,60.732548 91.828712,64.710800 97.166931,65.560623 
	C97.166931,69.594444 97.166931,73.696510 97.166931,77.786453 
	C98.960968,77.940102 100.373833,78.061104 101.762291,78.180016 
	C101.762291,83.256920 101.762291,88.002823 101.762291,93.080894 
	C95.064377,93.080894 88.618202,93.080894 81.896530,93.080894 
	C82.763031,98.925507 79.622597,101.992233 74.894157,104.265991 
	C76.437569,104.766808 77.806076,104.862831 79.172783,104.979805 
	C85.000839,105.478668 91.005005,106.007591 95.414024,110.227112 
	C98.557358,113.235352 103.612167,115.232903 103.000000,121.000000 
	C90.312439,121.000000 77.624878,121.000000 64.768448,120.669960 
	C62.748188,119.582901 60.860939,118.162102 59.055729,118.259636 
	C57.326180,118.353081 55.681805,120.022949 54.000000,121.000000 
M80.317238,56.977821 
	C81.215584,56.371082 82.881248,55.781963 82.895645,55.154922 
	C83.074150,47.380962 83.012260,39.601479 83.012260,32.039902 
	C67.336143,32.039902 52.268288,32.039902 37.219543,32.039902 
	C37.219543,40.468887 37.219543,48.559624 37.219543,56.978111 
	C51.416908,56.978111 65.380447,56.978111 80.317238,56.977821 
M31.557747,69.762512 
	C23.854698,70.160698 29.715776,75.641563 27.422359,78.484856 
	C49.538177,78.484856 70.754784,78.484856 91.857925,78.484856 
	C91.857925,75.400925 91.857925,72.663467 91.857925,69.762367 
	C71.850998,69.762367 52.198177,69.762367 31.557747,69.762512 
M83.979836,27.978632 
	C85.392876,25.122023 86.805916,22.265413 88.260391,19.325035 
	C69.075569,19.325035 50.605526,19.325035 31.734947,19.325035 
	C33.121544,22.148649 34.152069,24.583393 35.497166,26.829775 
	C36.079594,27.802465 37.310871,29.048689 38.247234,29.048534 
	C53.353210,29.046040 68.459152,28.862616 83.979836,27.978632 
M75.440796,9.771266 
	C71.996895,9.771266 68.552986,9.771266 65.173531,9.771266 
	C64.765266,7.938731 64.456993,6.555012 64.147507,5.165850 
	C61.227695,5.165850 58.584419,5.165850 55.770924,5.165850 
	C55.483692,6.667016 55.211739,8.088343 54.924259,9.590805 
	C49.006565,9.590805 43.238773,9.590805 37.215076,9.590805 
	C37.046078,8.059126 36.893559,6.676800 36.740978,5.293945 
	C33.633667,5.293945 30.884371,5.293945 28.051876,5.293945 
	C28.051876,8.262232 28.051876,10.983061 28.051876,13.788725 
	C49.499893,13.788725 70.691467,13.788725 91.939545,13.788725 
	C91.939545,10.824602 91.939545,8.100262 91.939545,5.264756 
	C88.919937,5.264756 86.167679,5.264756 83.345253,5.264756 
	C83.116417,6.832831 82.915062,8.212609 82.687599,9.771264 
	C80.348808,9.771264 78.371590,9.771264 75.440796,9.771266 
M24.437853,115.975166 
	C35.338886,115.080139 46.237354,114.151192 57.143776,113.327530 
	C58.734787,113.207375 60.362553,113.603951 61.975327,113.736946 
	C72.246811,114.584030 82.518852,115.424240 92.790718,116.266716 
	C92.949783,115.660416 93.108849,115.054115 93.267914,114.447815 
	C89.678757,113.174683 86.147881,111.692314 82.488060,110.672905 
	C75.341759,108.682381 68.140831,106.876541 60.919746,105.175819 
	C59.515709,104.845139 57.857712,105.115875 56.418537,105.495102 
	C50.669201,107.010056 45.045601,109.260445 39.210804,110.117043 
	C33.839447,110.905617 28.767721,111.809097 24.437853,115.975166 
M37.505577,88.052895 
	C57.251839,88.052895 76.998100,88.052895 97.056877,88.052895 
	C96.844002,86.185860 96.704147,84.959236 96.549591,83.603676 
	C72.913193,83.603676 49.611164,83.653656 26.309801,83.551468 
	C22.685904,83.535576 22.617596,85.139969 23.507977,88.052895 
	C27.904108,88.052895 32.206795,88.052895 37.505577,88.052895 
M55.501160,59.178116 
	C50.845589,59.178116 46.162762,59.491451 41.542164,59.089470 
	C36.975365,58.692165 35.000778,60.661613 34.371399,64.741760 
	C51.600193,64.741760 68.623260,64.741760 85.698593,64.741760 
	C84.915688,60.445278 82.753181,58.852600 78.443123,59.074799 
	C71.146622,59.450951 63.816658,59.178116 55.501160,59.178116 
M56.522659,99.020462 
	C61.491650,98.991714 66.469742,99.135529 71.426468,98.874138 
	C74.786362,98.696976 77.439217,97.354759 76.811050,93.098724 
	C64.737122,93.098724 52.939777,93.098724 41.126133,93.098724 
	C40.626736,97.297173 43.106922,98.538513 46.103386,98.842712 
	C49.221668,99.159286 52.390083,98.982025 56.522659,99.020462 
z"/>
<path fill="#000000" opacity="1.000000" stroke="none" 
	d="
M103.469711,121.000000 
	C103.612167,115.232903 98.557358,113.235352 95.414024,110.227112 
	C91.005005,106.007591 85.000839,105.478668 79.172783,104.979805 
	C77.806076,104.862831 76.437569,104.766808 74.894157,104.265991 
	C79.622597,101.992233 82.763031,98.925507 81.896530,93.080894 
	C88.618202,93.080894 95.064377,93.080894 101.762291,93.080894 
	C101.762291,88.002823 101.762291,83.256920 101.762291,78.180016 
	C100.373833,78.061104 98.960968,77.940102 97.166931,77.786453 
	C97.166931,73.696510 97.166931,69.594444 97.166931,65.560623 
	C91.828712,64.710800 88.184906,60.732548 88.064293,55.445076 
	C87.897110,48.116096 87.011055,40.587738 88.359413,33.511879 
	C89.343590,28.347160 93.466393,23.791355 96.114815,18.923166 
	C96.601974,18.027687 96.962433,16.940630 96.981834,15.934303 
	C97.071709,11.269746 97.020767,6.602475 97.010132,1.468088 
	C104.978233,1.000000 112.956459,1.000000 120.940643,1.000011 
	C120.946594,41.000027 120.946594,81.000031 120.946594,121.000000 
	C115.241936,121.000000 109.590675,121.000000 103.469711,121.000000 
z"/>
<path fill="#000000" opacity="1.000000" stroke="none" 
	d="
M22.531218,1.000000 
	C22.490267,10.233202 22.647589,19.091509 29.102556,26.950615 
	C31.283775,29.606310 31.571688,34.176861 31.864529,37.939270 
	C32.302036,43.560345 32.053329,49.241962 31.957104,54.895451 
	C31.859171,60.649296 28.322998,64.833344 23.188204,65.101219 
	C23.188204,69.148132 23.188204,73.227661 23.188204,77.625320 
	C21.342772,77.842537 19.814013,78.022476 18.146893,78.218704 
	C18.146893,83.033913 18.146893,87.659912 18.146893,92.815475 
	C23.898022,92.815475 29.784468,92.815475 35.938751,92.815475 
	C35.576374,98.589966 37.921028,102.182091 42.995457,104.454521 
	C39.271538,104.962395 35.559467,105.594986 31.821047,105.950279 
	C25.475828,106.553307 15.641222,114.791206 14.989909,120.611649 
	C10.346465,121.000000 5.692929,121.000000 1.060767,121.000000 
	C1.060767,80.999954 1.060767,40.999935 1.060767,1.000000 
	C8.101834,1.000000 15.082134,1.000000 22.531218,1.000000 
z"/>
<path fill="#000000" opacity="1.000000" stroke="none" 
	d="
M49.555836,1.000000 
	C50.000000,2.138851 50.000000,3.277703 50.000000,5.093102 
	C47.309860,3.448178 42.800945,8.441935 42.010132,1.438213 
	C44.370556,1.000000 46.741116,1.000000 49.555836,1.000000 
z"/>
<path fill="#000000" opacity="1.000000" stroke="none" 
	d="
M77.555832,1.000000 
	C78.000000,2.138899 78.000000,3.277798 78.000000,5.093107 
	C75.309868,3.448162 70.800941,8.441950 70.010132,1.438213 
	C72.370560,1.000000 74.741112,1.000000 77.555832,1.000000 
z"/>
<path fill="#000000" opacity="1.000000" stroke="none" 
	d="
M54.454109,121.000000 
	C55.681805,120.022949 57.326180,118.353081 59.055729,118.259636 
	C60.860939,118.162102 62.748188,119.582901 64.299789,120.669960 
	C60.969406,121.000000 57.938812,121.000000 54.454109,121.000000 
z"/>
<path fill="#000000" opacity="1.000000" stroke="none" 
	d="
M79.830612,56.977966 
	C65.380447,56.978111 51.416908,56.978111 37.219543,56.978111 
	C37.219543,48.559624 37.219543,40.468887 37.219543,32.039902 
	C52.268288,32.039902 67.336143,32.039902 83.012260,32.039902 
	C83.012260,39.601479 83.074150,47.380962 82.895645,55.154922 
	C82.881248,55.781963 81.215584,56.371082 79.830612,56.977966 
z"/>
<path fill="#070707" opacity="1.000000" stroke="none" 
	d="
M32.051552,69.762436 
	C52.198177,69.762367 71.850998,69.762367 91.857925,69.762367 
	C91.857925,72.663467 91.857925,75.400925 91.857925,78.484856 
	C70.754784,78.484856 49.538177,78.484856 27.422359,78.484856 
	C29.715776,75.641563 23.854698,70.160698 32.051552,69.762436 
z"/>
<path fill="#010101" opacity="1.000000" stroke="none" 
	d="
M83.772476,28.349430 
	C68.459152,28.862616 53.353210,29.046040 38.247234,29.048534 
	C37.310871,29.048689 36.079594,27.802465 35.497166,26.829775 
	C34.152069,24.583393 33.121544,22.148649 31.734947,19.325035 
	C50.605526,19.325035 69.075569,19.325035 88.260391,19.325035 
	C86.805916,22.265413 85.392876,25.122023 83.772476,28.349430 
z"/>
<path fill="#040404" opacity="1.000000" stroke="none" 
	d="
M75.917587,9.771265 
	C78.371590,9.771264 80.348808,9.771264 82.687599,9.771264 
	C82.915062,8.212609 83.116417,6.832831 83.345253,5.264756 
	C86.167679,5.264756 88.919937,5.264756 91.939545,5.264756 
	C91.939545,8.100262 91.939545,10.824602 91.939545,13.788725 
	C70.691467,13.788725 49.499893,13.788725 28.051876,13.788725 
	C28.051876,10.983061 28.051876,8.262232 28.051876,5.293945 
	C30.884371,5.293945 33.633667,5.293945 36.740978,5.293945 
	C36.893559,6.676800 37.046078,8.059126 37.215076,9.590805 
	C43.238773,9.590805 49.006565,9.590805 54.924259,9.590805 
	C55.211739,8.088343 55.483692,6.667016 55.770924,5.165850 
	C58.584419,5.165850 61.227695,5.165850 64.147507,5.165850 
	C64.456993,6.555012 64.765266,7.938731 65.173531,9.771266 
	C68.552986,9.771266 71.996895,9.771266 75.917587,9.771265 
z"/>
<path fill="#0A0A0A" opacity="1.000000" stroke="none" 
	d="
M24.413521,115.573090 
	C28.767721,111.809097 33.839447,110.905617 39.210804,110.117043 
	C45.045601,109.260445 50.669201,107.010056 56.418537,105.495102 
	C57.857712,105.115875 59.515709,104.845139 60.919746,105.175819 
	C68.140831,106.876541 75.341759,108.682381 82.488060,110.672905 
	C86.147881,111.692314 89.678757,113.174683 93.267914,114.447815 
	C93.108849,115.054115 92.949783,115.660416 92.790718,116.266716 
	C82.518852,115.424240 72.246811,114.584030 61.975327,113.736946 
	C60.362553,113.603951 58.734787,113.207375 57.143776,113.327530 
	C46.237354,114.151192 35.338886,115.080139 24.413521,115.573090 
z"/>
<path fill="#010101" opacity="1.000000" stroke="none" 
	d="
M37.007530,88.052895 
	C32.206795,88.052895 27.904108,88.052895 23.507977,88.052895 
	C22.617596,85.139969 22.685904,83.535576 26.309801,83.551468 
	C49.611164,83.653656 72.913193,83.603676 96.549591,83.603676 
	C96.704147,84.959236 96.844002,86.185860 97.056877,88.052895 
	C76.998100,88.052895 57.251839,88.052895 37.007530,88.052895 
z"/>
<path fill="#0D0D0D" opacity="1.000000" stroke="none" 
	d="
M56.000961,59.178116 
	C63.816658,59.178116 71.146622,59.450951 78.443123,59.074799 
	C82.753181,58.852600 84.915688,60.445278 85.698593,64.741760 
	C68.623260,64.741760 51.600193,64.741760 34.371399,64.741760 
	C35.000778,60.661613 36.975365,58.692165 41.542164,59.089470 
	C46.162762,59.491451 50.845589,59.178116 56.000961,59.178116 
z"/>
<path fill="#040404" opacity="1.000000" stroke="none" 
	d="
M56.029617,99.020584 
	C52.390083,98.982025 49.221668,99.159286 46.103386,98.842712 
	C43.106922,98.538513 40.626736,97.297173 41.126133,93.098724 
	C52.939777,93.098724 64.737122,93.098724 76.811050,93.098724 
	C77.439217,97.354759 74.786362,98.696976 71.426468,98.874138 
	C66.469742,99.135529 61.491650,98.991714 56.029617,99.020584 
z"/>
</svg>