<svg version="1.1" id="Layer_1" xmlns="http://www.w3.org/2000/svg" xmlns:xlink="http://www.w3.org/1999/xlink" x="0px" y="0px"
	 width="100%" viewBox="0 0 120 120" enable-background="new 0 0 120 120" xml:space="preserve">
<path fill="#000000" opacity="1.000000" stroke="none" 
	d="
M62.000000,121.000000 
	C41.333332,121.000000 21.166666,121.000000 1.000000,121.000000 
	C1.000000,81.000000 1.000000,41.000000 1.000000,1.000000 
	C41.000000,1.000000 81.000000,1.000000 121.000000,1.000000 
	C121.000000,41.000000 121.000000,81.000000 121.000000,121.000000 
	C101.500000,121.000000 82.000000,121.000000 62.000000,121.000000 
M85.143852,54.546051 
	C80.611771,46.259171 73.564583,40.684814 65.199936,36.814957 
	C63.180004,35.880444 60.196400,35.917065 58.023354,36.628822 
	C50.812183,38.990765 44.759773,43.493561 40.253994,49.455742 
	C35.561310,55.665237 32.037270,62.616325 34.910648,70.914207 
	C36.761337,76.258720 39.680691,77.503029 45.316917,76.357269 
	C55.267162,74.334541 65.285110,74.074265 75.226433,76.638130 
	C82.558456,78.529060 87.906540,74.819328 87.860878,67.151184 
	C87.837051,63.150665 86.411537,59.158493 85.143852,54.546051 
M61.452194,80.999992 
	C58.457512,81.003471 55.451763,80.842216 52.470299,81.042473 
	C44.684952,81.565376 41.714188,84.490784 41.520229,91.569229 
	C54.394226,85.922058 67.425713,86.395493 80.718338,91.310417 
	C80.234398,85.274452 77.849075,82.141571 72.206757,81.951706 
	C68.936317,81.841652 65.679367,81.330597 61.452194,80.999992 
M54.622414,94.003662 
	C50.298931,95.216713 45.975449,96.429771 41.651966,97.642822 
	C54.781254,103.240982 67.608528,103.456558 80.420616,98.357994 
	C72.409706,94.825623 64.375862,91.858704 54.622414,94.003662 
M58.024570,27.524368 
	C60.861259,30.429585 63.396145,29.001839 64.859406,26.354166 
	C65.663788,24.898701 65.581947,21.665649 64.570366,20.815187 
	C63.259106,19.712774 60.204391,19.367737 58.650574,20.162899 
	C55.977142,21.531023 54.570000,24.138508 58.024570,27.524368 
z"/>
<path fill="#CC0000" opacity="1.000000" stroke="none" 
	d="
M85.381485,54.854301 
	C86.411537,59.158493 87.837051,63.150665 87.860878,67.151184 
	C87.906540,74.819328 82.558456,78.529060 75.226433,76.638130 
	C65.285110,74.074265 55.267162,74.334541 45.316917,76.357269 
	C39.680691,77.503029 36.761337,76.258720 34.910648,70.914207 
	C32.037270,62.616325 35.561310,55.665237 40.253994,49.455742 
	C44.759773,43.493561 50.812183,38.990765 58.023354,36.628822 
	C60.196400,35.917065 63.180004,35.880444 65.199936,36.814957 
	C73.564583,40.684814 80.611771,46.259171 85.381485,54.854301 
M69.651131,59.729362 
	C70.371880,58.693691 71.092636,57.658016 71.813385,56.622345 
	C69.364235,55.333813 66.915092,54.045284 64.796600,52.930717 
	C63.791031,50.550747 62.765255,48.122959 61.739479,45.695175 
	C61.069241,45.777584 60.399006,45.859993 59.728767,45.942406 
	C58.870617,48.566097 58.012463,51.189793 57.371193,53.150402 
	C54.598518,54.202293 52.209740,55.108543 49.820965,56.014793 
	C49.814980,56.684292 49.808990,57.353794 49.803001,58.023293 
	C52.336456,58.959362 54.869911,59.895435 57.223377,60.765003 
	C58.103500,63.135464 59.043617,65.667519 59.983738,68.199570 
	C60.675110,68.193527 61.366482,68.187477 62.057854,68.181427 
	C62.978523,65.630333 63.899193,63.079243 64.949409,60.169186 
	C65.964462,60.108887 67.419891,60.022423 69.651131,59.729362 
z"/>
<path fill="#CC0000" opacity="1.000000" stroke="none" 
	d="
M61.934273,81.000000 
	C65.679367,81.330597 68.936317,81.841652 72.206757,81.951706 
	C77.849075,82.141571 80.234398,85.274452 80.718338,91.310417 
	C67.425713,86.395493 54.394226,85.922058 41.520229,91.569229 
	C41.714188,84.490784 44.684952,81.565376 52.470299,81.042473 
	C55.451763,80.842216 58.457512,81.003471 61.934273,81.000000 
z"/>
<path fill="#CC0000" opacity="1.000000" stroke="none" 
	d="
M55.055752,93.999161 
	C64.375862,91.858704 72.409706,94.825623 80.420616,98.357994 
	C67.608528,103.456558 54.781254,103.240982 41.651966,97.642822 
	C45.975449,96.429771 50.298931,95.216713 55.055752,93.999161 
z"/>
<path fill="#CC0000" opacity="1.000000" stroke="none" 
	d="
M57.749771,27.249897 
	C54.570000,24.138508 55.977142,21.531023 58.650574,20.162899 
	C60.204391,19.367737 63.259106,19.712774 64.570366,20.815187 
	C65.581947,21.665649 65.663788,24.898701 64.859406,26.354166 
	C63.396145,29.001839 60.861259,30.429585 57.749771,27.249897 
z"/>
<path fill="#000000" opacity="1.000000" stroke="none" 
	d="
M69.263222,59.832661 
	C67.419891,60.022423 65.964462,60.108887 64.949409,60.169186 
	C63.899193,63.079243 62.978523,65.630333 62.057854,68.181427 
	C61.366482,68.187477 60.675110,68.193527 59.983738,68.199570 
	C59.043617,65.667519 58.103500,63.135464 57.223377,60.765003 
	C54.869911,59.895435 52.336456,58.959362 49.803001,58.023293 
	C49.808990,57.353794 49.814980,56.684292 49.820965,56.014793 
	C52.209740,55.108543 54.598518,54.202293 57.371193,53.150402 
	C58.012463,51.189793 58.870617,48.566097 59.728767,45.942406 
	C60.399006,45.859993 61.069241,45.777584 61.739479,45.695175 
	C62.765255,48.122959 63.791031,50.550747 64.796600,52.930717 
	C66.915092,54.045284 69.364235,55.333813 71.813385,56.622345 
	C71.092636,57.658016 70.371880,58.693691 69.263222,59.832661 
z"/>
</svg>