<?xml version="1.0" standalone="no"?>
<!DOCTYPE svg PUBLIC "-//W3C//DTD SVG 20010904//EN"
 "http://www.w3.org/TR/2001/REC-SVG-20010904/DTD/svg10.dtd">
<svg version="1.0" xmlns="http://www.w3.org/2000/svg"
 width="120.000000pt" height="120.000000pt" viewBox="0 0 120.000000 120.000000"
 preserveAspectRatio="xMidYMid meet">

<g transform="translate(0.000000,120.000000) scale(0.100000,-0.100000)"
fill="#000000" stroke="none">
<path d="M0 600 l0 -600 600 0 600 0 0 600 0 600 -600 0 -600 0 0 -600z m468
431 c16 12 16 12 0 -6 -18 -19 -18 -19 -35 0 -17 18 -17 18 0 6 14 -11 20 -11
35 0z m-16 -51 c16 0 32 9 42 25 18 28 36 25 36 -4 0 -14 11 -20 43 -25 70
-11 144 -53 176 -100 57 -82 91 -223 91 -373 l0 -83 -211 0 -211 0 6 31 c3 18
29 56 61 91 30 33 62 73 71 89 13 26 31 114 37 188 3 35 -19 37 -26 3 -4 -20
-30 -50 -78 -93 -40 -35 -92 -83 -115 -106 l-43 -43 6 30 c5 26 3 30 -17 30
-13 0 -24 -8 -27 -20 -10 -38 -50 -20 -59 26 -5 24 5 52 49 137 30 58 67 122
82 141 23 30 27 43 22 74 l-6 37 22 -27 c14 -18 32 -28 49 -28z m314 -62 l29
-33 -32 29 c-31 28 -38 36 -30 36 2 0 16 -15 33 -32z m-266 -232 c0 -2 -8 -10
-17 -17 -16 -13 -17 -12 -4 4 13 16 21 21 21 13z m377 -48 c-3 -8 -6 -5 -6 6
-1 11 2 17 5 13 3 -3 4 -12 1 -19z m-457 -12 c0 -2 -8 -10 -17 -17 -16 -13
-17 -12 -4 4 13 16 21 21 21 13z m467 -108 c-2 -13 -4 -5 -4 17 -1 22 1 32 4
23 2 -10 2 -28 0 -40z m-103 -152 c-11 -29 -67 -41 -184 -41 -117 0 -173 12
-184 41 -4 12 25 14 184 14 159 0 188 -2 184 -14z m-356 -93 c-16 -2 -40 -2
-55 0 -16 2 -3 4 27 4 30 0 43 -2 28 -4z m400 0 c-16 -2 -40 -2 -55 0 -16 2
-3 4 27 4 30 0 43 -2 28 -4z m-193 -19 c23 -9 91 -18 185 -23 103 -6 155 -13
169 -23 19 -13 5 -15 -131 -11 -84 2 -179 8 -211 14 -31 5 -63 7 -69 3 -12 -7
-369 -24 -376 -18 -2 1 7 8 20 15 13 7 85 16 164 20 117 6 178 17 210 38 1 1
18 -6 39 -15z m410 -34 c10 -11 16 -20 13 -20 -3 0 -13 9 -23 20 -10 11 -16
20 -13 20 3 0 13 -9 23 -20z m-478 -56 c-3 -3 -12 -4 -19 -1 -8 3 -5 6 6 6 11
1 17 -2 13 -5z m90 0 c-3 -3 -12 -4 -19 -1 -8 3 -5 6 6 6 11 1 17 -2 13 -5z"/>
<path d="M370 901 c-13 -26 -13 -48 2 -57 14 -9 48 31 48 57 0 25 -36 25 -50
0z"/>
<path d="M255 690 c-9 -15 4 -30 26 -30 12 0 19 7 19 20 0 21 -33 29 -45 10z"/>
</g>
</svg>
