<svg version="1.1" id="Layer_1" xmlns="http://www.w3.org/2000/svg" xmlns:xlink="http://www.w3.org/1999/xlink" x="0px" y="0px"
	 width="100%" viewBox="0 0 120 120" enable-background="new 0 0 120 120" xml:space="preserve">
<path fill="#010101" opacity="1.000000" stroke="none" 
	d="
M1.000000,47.000000 
	C1.000000,31.333334 1.000000,16.166666 1.000000,1.000000 
	C41.000000,1.000000 81.000000,1.000000 121.000000,1.000000 
	C121.000000,41.000000 121.000000,81.000000 121.000000,121.000000 
	C81.000000,121.000000 41.000000,121.000000 1.000000,121.000000 
	C1.000000,96.500000 1.000000,72.000000 1.000000,47.000000 
M76.281494,92.456551 
	C65.110191,92.330765 53.938969,92.190697 42.767307,92.125511 
	C42.261196,92.122559 41.751141,92.796165 41.012836,93.911552 
	C40.637749,97.401772 42.735813,98.873978 45.713863,98.924965 
	C54.501389,99.075409 63.295181,99.094566 72.082100,98.929596 
	C75.569717,98.864120 77.777916,97.164505 76.281494,92.456551 
M27.256987,70.783180 
	C26.959572,79.000114 26.959572,79.000938 34.890091,79.001091 
	C52.556030,79.001419 70.223419,78.880157 87.886810,79.092216 
	C91.902756,79.140434 93.426994,77.893021 92.866409,73.998764 
	C92.678772,72.695290 92.574661,71.379791 91.793678,69.417488 
	C91.149483,69.288033 90.505432,69.046295 89.861061,69.045418 
	C70.312012,69.018852 50.762859,68.997055 31.213968,69.054909 
	C29.997530,69.058517 28.783030,69.716347 27.256987,70.783180 
M82.524292,31.327990 
	C68.038765,31.228529 53.553272,31.114809 39.067585,31.076679 
	C38.423107,31.074984 37.776825,31.761337 36.992702,33.039394 
	C36.992702,40.939133 36.992702,48.838871 36.992702,56.706894 
	C52.704880,56.706894 67.605385,56.706894 82.868614,56.706894 
	C82.868614,48.325123 82.868614,40.226139 82.524292,31.327990 
M75.340546,29.783472 
	C84.135124,29.779863 86.643646,27.634016 87.707306,19.134531 
	C69.155006,19.134531 50.613697,19.134531 32.008747,19.134531 
	C34.347378,28.670120 35.675377,29.782770 44.472130,29.783333 
	C54.442238,29.783970 64.412346,29.783476 75.340546,29.783472 
M60.731071,104.851280 
	C59.672356,104.796486 58.437057,104.356308 57.582798,104.747726 
	C50.615685,107.940048 43.485004,110.042656 35.689648,110.133919 
	C30.207899,110.198082 26.066738,113.059685 24.228079,116.970131 
	C47.425179,113.421165 70.510521,113.678001 94.676697,117.003166 
	C90.394737,112.131561 85.839165,110.893501 80.928062,109.917191 
	C74.377167,108.614891 67.944275,106.719048 60.731071,104.851280 
M57.790230,5.010705 
	C56.866577,5.648008 55.906006,6.238691 55.028149,6.933827 
	C53.792065,7.912624 52.678246,9.752272 51.405369,9.851296 
	C46.808594,10.208905 42.167122,9.991972 37.332706,9.991972 
	C37.079521,8.160268 36.886456,6.763500 36.701427,5.424906 
	C33.298019,5.424906 30.259563,5.424906 27.344032,5.424906 
	C27.344032,8.438682 27.344032,11.026710 27.344032,13.646225 
	C49.031384,13.646225 70.376328,13.646225 91.695160,13.646225 
	C91.695160,10.645160 91.695160,8.051702 91.695160,5.237104 
	C88.801247,5.237104 86.206963,5.237104 83.213264,5.237104 
	C83.805275,11.279774 79.487602,9.907007 76.157562,9.983561 
	C72.548820,10.066521 68.936699,10.002361 65.469414,10.002361 
	C65.041077,7.971385 64.747459,6.579188 64.415314,5.004329 
	C62.327969,5.004329 60.508900,5.004329 57.790230,5.010705 
M71.499954,88.106979 
	C79.915436,88.106979 88.330917,88.106979 96.960594,88.106979 
	C96.868629,86.068367 96.811340,84.798279 96.743347,83.291016 
	C72.141869,83.291016 47.804901,83.291016 23.094868,83.291016 
	C23.179668,84.970314 23.248945,86.342232 23.338062,88.106979 
	C39.312431,88.106979 54.906189,88.106979 71.499954,88.106979 
M57.500050,64.998405 
	C66.893936,64.998405 76.287827,64.998405 85.926003,64.998405 
	C84.987793,60.449707 82.877342,58.868313 78.828857,58.930988 
	C66.172722,59.126934 53.506565,59.207127 40.855145,58.893917 
	C36.310051,58.781387 34.827316,60.779289 34.235161,64.998405 
	C41.863762,64.998405 49.181927,64.998405 57.500050,64.998405 
z"/>
<path fill="#030ECA" opacity="1.000000" stroke="none" 
	d="
M82.868614,32.127159 
	C82.868614,40.226139 82.868614,48.325123 82.868614,56.706894 
	C67.605385,56.706894 52.704880,56.706894 36.992702,56.706894 
	C36.992702,48.838871 36.992702,40.939133 37.521797,32.553440 
	C52.990135,32.087376 67.929375,32.107269 82.868614,32.127159 
z"/>
<path fill="#050FC8" opacity="1.000000" stroke="none" 
	d="
M92.432373,70.069794 
	C92.574661,71.379791 92.678772,72.695290 92.866409,73.998764 
	C93.426994,77.893021 91.902756,79.140434 87.886810,79.092216 
	C70.223419,78.880157 52.556030,79.001419 34.890091,79.001091 
	C26.959572,79.000938 26.959572,79.000114 27.910696,70.406738 
	C49.853729,70.043465 71.143051,70.056625 92.432373,70.069794 
z"/>
<path fill="#0812C3" opacity="1.000000" stroke="none" 
	d="
M74.861496,29.783474 
	C64.412346,29.783476 54.442238,29.783970 44.472130,29.783333 
	C35.675377,29.782770 34.347378,28.670120 32.008747,19.134531 
	C50.613697,19.134531 69.155006,19.134531 87.707306,19.134531 
	C86.643646,27.634016 84.135124,29.779863 74.861496,29.783474 
z"/>
<path fill="#0610C8" opacity="1.000000" stroke="none" 
	d="
M61.095882,104.964706 
	C67.944275,106.719048 74.377167,108.614891 80.928062,109.917191 
	C85.839165,110.893501 90.394737,112.131561 94.676697,117.003166 
	C70.510521,113.678001 47.425179,113.421165 24.228079,116.970131 
	C26.066738,113.059685 30.207899,110.198082 35.689648,110.133919 
	C43.485004,110.042656 50.615685,107.940048 57.582798,104.747726 
	C58.437057,104.356308 59.672356,104.796486 61.095882,104.964706 
z"/>
<path fill="#030ECA" opacity="1.000000" stroke="none" 
	d="
M58.240028,5.007517 
	C60.508900,5.004329 62.327969,5.004329 64.415314,5.004329 
	C64.747459,6.579188 65.041077,7.971385 65.469414,10.002361 
	C68.936699,10.002361 72.548820,10.066521 76.157562,9.983561 
	C79.487602,9.907007 83.805275,11.279774 83.213264,5.237104 
	C86.206963,5.237104 88.801247,5.237104 91.695160,5.237104 
	C91.695160,8.051702 91.695160,10.645160 91.695160,13.646225 
	C70.376328,13.646225 49.031384,13.646225 27.344032,13.646225 
	C27.344032,11.026710 27.344032,8.438682 27.344032,5.424906 
	C30.259563,5.424906 33.298019,5.424906 36.701427,5.424906 
	C36.886456,6.763500 37.079521,8.160268 37.332706,9.991972 
	C42.167122,9.991972 46.808594,10.208905 51.405369,9.851296 
	C52.678246,9.752272 53.792065,7.912624 55.028149,6.933827 
	C55.906006,6.238691 56.866577,5.648008 58.240028,5.007517 
z"/>
<path fill="#030ECA" opacity="1.000000" stroke="none" 
	d="
M70.999954,88.106979 
	C54.906189,88.106979 39.312431,88.106979 23.338062,88.106979 
	C23.248945,86.342232 23.179668,84.970314 23.094868,83.291016 
	C47.804901,83.291016 72.141869,83.291016 96.743347,83.291016 
	C96.811340,84.798279 96.868629,86.068367 96.960594,88.106979 
	C88.330917,88.106979 79.915436,88.106979 70.999954,88.106979 
z"/>
<path fill="#030ECA" opacity="1.000000" stroke="none" 
	d="
M57.000069,64.998405 
	C49.181927,64.998405 41.863762,64.998405 34.235161,64.998405 
	C34.827316,60.779289 36.310051,58.781387 40.855145,58.893917 
	C53.506565,59.207127 66.172722,59.126934 78.828857,58.930988 
	C82.877342,58.868313 84.987793,60.449707 85.926003,64.998405 
	C76.287827,64.998405 66.893936,64.998405 57.000069,64.998405 
z"/>
<path fill="#030ECA" opacity="1.000000" stroke="none" 
	d="
M76.750504,93.153160 
	C77.777916,97.164505 75.569717,98.864120 72.082100,98.929596 
	C63.295181,99.094566 54.501389,99.075409 45.713863,98.924965 
	C42.735813,98.873978 40.637749,97.401772 41.581474,93.501938 
	C53.683575,93.112595 65.217041,93.132881 76.750504,93.153160 
z"/>
<path fill="#393AA4" opacity="1.000000" stroke="none" 
	d="
M92.113022,69.743637 
	C71.143051,70.056625 49.853729,70.043465 28.066017,70.050049 
	C28.783030,69.716347 29.997530,69.058517 31.213968,69.054909 
	C50.762859,68.997055 70.312012,69.018852 89.861061,69.045418 
	C90.505432,69.046295 91.149483,69.288033 92.113022,69.743637 
z"/>
<path fill="#2D30BB" opacity="1.000000" stroke="none" 
	d="
M82.696457,31.727573 
	C67.929375,32.107269 52.990135,32.087376 37.591141,32.097343 
	C37.776825,31.761337 38.423107,31.074984 39.067585,31.076679 
	C53.553272,31.114809 68.038765,31.228529 82.696457,31.727573 
z"/>
<path fill="#2D30B7" opacity="1.000000" stroke="none" 
	d="
M76.515999,92.804855 
	C65.217041,93.132881 53.683575,93.112595 41.696514,93.123489 
	C41.751141,92.796165 42.261196,92.122559 42.767307,92.125511 
	C53.938969,92.190697 65.110191,92.330765 76.515999,92.804855 
z"/>
</svg>