<svg version="1.1" id="Layer_1" xmlns="http://www.w3.org/2000/svg" xmlns:xlink="http://www.w3.org/1999/xlink" x="0px" y="0px"
	 width="100%" viewBox="0 0 120 120" enable-background="new 0 0 120 120" xml:space="preserve">
<path fill="#020202" opacity="1.000000" stroke="none" 
	d="
M84.000000,121.000000 
	C56.000000,121.000000 28.500000,121.000000 1.000000,121.000000 
	C1.000000,81.000000 1.000000,41.000000 1.000000,1.000000 
	C41.000000,1.000000 81.000000,1.000000 121.000000,1.000000 
	C121.000000,41.000000 121.000000,81.000000 121.000000,121.000000 
	C108.833336,121.000000 96.666664,121.000000 84.000000,121.000000 
M37.005989,29.074368 
	C36.666752,29.668518 36.327515,30.262667 35.517166,31.366114 
	C32.071911,37.802826 28.343628,44.111301 25.337101,50.746796 
	C24.304569,53.025623 24.698610,56.202801 25.254805,58.794937 
	C25.420227,59.565884 29.742008,60.304348 29.820499,60.110523 
	C32.761414,52.848499 34.246197,57.561180 35.916203,60.875393 
	C43.036983,51.863285 55.770515,48.370842 59.892673,36.082031 
	C60.287933,39.121407 59.215057,41.790737 59.326927,44.409451 
	C59.757240,54.482544 54.884190,61.696430 47.963806,68.317528 
	C45.303246,70.863037 43.899483,74.722145 41.517017,78.652588 
	C56.955467,78.652588 70.850273,78.652588 84.910660,78.652588 
	C85.351250,65.471786 84.765556,52.756676 79.939804,40.589516 
	C76.312546,31.444128 70.003555,25.342037 60.051811,23.736107 
	C56.367672,23.141592 53.117989,22.423620 52.952976,17.542465 
	C46.122974,25.030458 44.386646,25.060303 40.186298,18.652882 
	C40.144890,18.610382 40.103485,18.567883 40.062077,18.525381 
	C40.180374,18.414480 40.298676,18.303579 39.821041,18.979076 
	C39.068188,22.344442 38.315334,25.709808 37.005989,29.074368 
M82.486732,100.873283 
	C88.829651,101.202072 95.172569,101.530869 101.515488,101.859657 
	C101.624695,101.399773 101.733902,100.939880 101.843109,100.479996 
	C97.679985,99.642029 93.550674,98.499817 89.346352,98.032608 
	C81.771507,97.190849 74.060448,97.266853 66.587776,95.938530 
	C62.626774,95.234444 59.218937,95.294769 55.275639,95.971169 
	C47.628311,97.282913 39.751949,97.194405 32.014793,98.075264 
	C28.222589,98.506996 24.529591,99.810158 20.791693,100.718933 
	C20.926912,101.113823 21.062132,101.508720 21.197353,101.903618 
	C26.464190,101.539902 31.730984,101.175552 36.997875,100.812614 
	C44.749527,100.278458 52.500858,99.739456 60.253651,99.222351 
	C60.903416,99.179001 61.564320,99.271912 62.218147,99.324936 
	C68.643677,99.846016 75.068802,100.372070 82.486732,100.873283 
M49.685249,82.992409 
	C47.319645,82.992409 44.954041,82.992409 42.588440,82.992409 
	C42.528393,83.694557 42.468349,84.396706 42.408302,85.098862 
	C50.549061,90.268959 59.885601,89.528381 69.057693,88.689400 
	C72.870071,88.340668 77.312431,87.947586 80.155388,82.992409 
	C69.556068,82.992409 60.094940,82.992409 49.685249,82.992409 
z"/>
<path fill="#FBFBFB" opacity="1.000000" stroke="none" 
	d="
M40.376095,18.177477 
	C44.386646,25.060303 46.122974,25.030458 52.952976,17.542465 
	C53.117989,22.423620 56.367672,23.141592 60.051811,23.736107 
	C70.003555,25.342037 76.312546,31.444128 79.939804,40.589516 
	C84.765556,52.756676 85.351250,65.471786 84.910660,78.652588 
	C70.850273,78.652588 56.955467,78.652588 41.517017,78.652588 
	C43.899483,74.722145 45.303246,70.863037 47.963806,68.317528 
	C54.884190,61.696430 59.757240,54.482544 59.326927,44.409451 
	C59.215057,41.790737 60.287933,39.121407 59.892673,36.082031 
	C55.770515,48.370842 43.036983,51.863285 35.916203,60.875393 
	C34.246197,57.561180 32.761414,52.848499 29.820499,60.110523 
	C29.742008,60.304348 25.420227,59.565884 25.254805,58.794937 
	C24.698610,56.202801 24.304569,53.025623 25.337101,50.746796 
	C28.343628,44.111301 32.071911,37.802826 36.125435,31.255655 
	C37.361431,32.966713 37.989159,34.788231 38.616882,36.609745 
	C40.085182,34.996765 42.522148,33.553207 42.839458,31.738926 
	C43.776928,26.378838 39.517879,29.699038 37.562485,29.075176 
	C38.315334,25.709808 39.068188,22.344442 40.091072,18.634117 
	C40.361103,18.289160 40.376095,18.177477 40.376095,18.177477 
z"/>
<path fill="#EAEAEA" opacity="1.000000" stroke="none" 
	d="
M81.990387,100.884995 
	C75.068802,100.372070 68.643677,99.846016 62.218147,99.324936 
	C61.564320,99.271912 60.903416,99.179001 60.253651,99.222351 
	C52.500858,99.739456 44.749527,100.278458 36.997875,100.812614 
	C31.730984,101.175552 26.464190,101.539902 21.197353,101.903618 
	C21.062132,101.508720 20.926912,101.113823 20.791693,100.718933 
	C24.529591,99.810158 28.222589,98.506996 32.014793,98.075264 
	C39.751949,97.194405 47.628311,97.282913 55.275639,95.971169 
	C59.218937,95.294769 62.626774,95.234444 66.587776,95.938530 
	C74.060448,97.266853 81.771507,97.190849 89.346352,98.032608 
	C93.550674,98.499817 97.679985,99.642029 101.843109,100.479996 
	C101.733902,100.939880 101.624695,101.399773 101.515488,101.859657 
	C95.172569,101.530869 88.829651,101.202072 81.990387,100.884995 
z"/>
<path fill="#F9F9F9" opacity="1.000000" stroke="none" 
	d="
M50.159531,82.992409 
	C60.094940,82.992409 69.556068,82.992409 80.155388,82.992409 
	C77.312431,87.947586 72.870071,88.340668 69.057693,88.689400 
	C59.885601,89.528381 50.549061,90.268959 42.408302,85.098862 
	C42.468349,84.396706 42.528393,83.694557 42.588440,82.992409 
	C44.954041,82.992409 47.319645,82.992409 50.159531,82.992409 
z"/>
<path fill="#141414" opacity="1.000000" stroke="none" 
	d="
M37.284237,29.074772 
	C39.517879,29.699038 43.776928,26.378838 42.839458,31.738926 
	C42.522148,33.553207 40.085182,34.996765 38.616882,36.609745 
	C37.989159,34.788231 37.361431,32.966713 36.360992,31.001007 
	C36.327515,30.262667 36.666752,29.668518 37.284237,29.074772 
z"/>
<path fill="#FBFBFB" opacity="1.000000" stroke="none" 
	d="
M40.389038,18.240917 
	C40.298676,18.303579 40.180374,18.414480 40.062077,18.525383 
	C40.103485,18.567883 40.144890,18.610382 40.281197,18.415180 
	C40.376095,18.177477 40.361103,18.289160 40.389038,18.240917 
z"/>
</svg>