<svg version="1.1" id="Layer_1" xmlns="http://www.w3.org/2000/svg" xmlns:xlink="http://www.w3.org/1999/xlink" x="0px" y="0px"
	 width="100%" viewBox="0 0 120 120" enable-background="new 0 0 120 120" xml:space="preserve">
<path fill="#010101" opacity="1.000000" stroke="none" 
	d="
M56.000000,121.000000 
	C37.333332,121.000000 19.166666,121.000000 1.000000,121.000000 
	C1.000000,81.000000 1.000000,41.000000 1.000000,1.000000 
	C41.000000,1.000000 81.000000,1.000000 121.000000,1.000000 
	C121.000000,41.000000 121.000000,81.000000 121.000000,121.000000 
	C99.500000,121.000000 78.000000,121.000000 56.000000,121.000000 
M65.414291,35.012028 
	C60.674698,31.264299 55.828884,31.594072 51.486008,35.361053 
	C47.530136,38.792347 43.628124,42.462749 40.537609,46.644970 
	C38.822014,48.966591 38.233257,52.536964 38.159012,55.569534 
	C38.000443,62.046562 41.611279,64.077522 47.981979,63.442894 
	C54.835701,62.760143 61.892830,62.786423 68.727745,63.610394 
	C76.039413,64.491837 79.429352,62.270508 79.163383,54.719902 
	C78.842247,45.602875 73.009003,40.064449 65.414291,35.012028 
M88.555962,93.977974 
	C85.470299,93.385048 82.189125,91.815781 79.336578,92.386986 
	C71.577614,93.940681 64.512871,93.723801 58.807098,87.737885 
	C53.629108,91.584572 48.872978,96.217758 42.642220,93.304657 
	C33.685707,89.117157 27.651913,94.213654 21.039827,98.927139 
	C22.535719,99.842911 24.066809,100.313110 25.499752,100.105591 
	C29.890717,99.469681 34.243851,98.572754 38.612003,97.779030 
	C44.900623,96.636337 51.184914,95.468384 57.483624,94.384247 
	C58.354778,94.234314 59.319561,94.401917 60.203934,94.593575 
	C64.520523,95.529045 68.785919,97.067101 73.141472,97.375916 
	C80.887268,97.925133 88.787895,96.777443 96.083199,100.761871 
	C96.970467,101.246460 98.842094,99.928703 100.257523,99.446243 
	C100.161690,99.047333 100.065865,98.648415 99.970032,98.249496 
	C96.425743,96.888992 92.881447,95.528488 88.555962,93.977974 
M43.688629,74.933784 
	C53.840710,70.861824 64.068245,70.884857 74.627823,75.130585 
	C72.074615,67.878433 72.097107,67.722580 65.199608,66.727104 
	C61.461739,66.187645 57.631584,66.127136 53.843533,66.133507 
	C48.181671,66.143028 43.959087,68.252403 43.688629,74.933784 
M71.349457,81.048286 
	C72.229858,80.627853 73.110268,80.207428 74.082565,79.743111 
	C66.850655,74.551620 51.917427,73.731331 43.573231,80.058548 
	C52.607773,83.537132 61.512642,83.884804 71.349457,81.048286 
M62.601471,22.791893 
	C60.738029,21.908154 58.874588,21.024416 57.011147,20.140676 
	C56.293907,21.668406 54.933346,23.255903 55.067932,24.704489 
	C55.171089,25.814751 57.728298,27.824207 58.210751,27.569708 
	C59.956604,26.648752 61.287441,24.941053 62.601471,22.791893 
z"/>
<path fill="#FAFAFA" opacity="1.000000" stroke="none" 
	d="
M65.738968,35.180351 
	C73.009003,40.064449 78.842247,45.602875 79.163383,54.719902 
	C79.429352,62.270508 76.039413,64.491837 68.727745,63.610394 
	C61.892830,62.786423 54.835701,62.760143 47.981979,63.442894 
	C41.611279,64.077522 38.000443,62.046562 38.159012,55.569534 
	C38.233257,52.536964 38.822014,48.966591 40.537609,46.644970 
	C43.628124,42.462749 47.530136,38.792347 51.486008,35.361053 
	C55.828884,31.594072 60.674698,31.264299 65.738968,35.180351 
M63.954742,50.581451 
	C64.728035,49.882347 65.501328,49.183239 66.274620,48.484131 
	C64.553215,47.594620 62.831810,46.705105 61.675583,46.107643 
	C60.592461,44.140102 59.721943,42.558769 58.851425,40.977436 
	C57.843918,42.732796 56.836407,44.488159 56.046223,45.864883 
	C54.259331,46.773155 52.646893,47.592754 51.034454,48.412350 
	C52.802353,49.484779 54.570255,50.557205 56.714626,51.858009 
	C56.698570,51.755161 56.674698,52.279037 56.867123,52.705257 
	C57.400482,53.886665 58.023952,55.027393 58.611816,56.184196 
	C59.311390,55.074165 59.927090,53.897758 60.736633,52.874748 
	C61.404335,52.030987 62.301521,51.368832 63.954742,50.581451 
z"/>
<path fill="#EFEFEF" opacity="1.000000" stroke="none" 
	d="
M88.946556,94.072975 
	C92.881447,95.528488 96.425743,96.888992 99.970032,98.249496 
	C100.065865,98.648415 100.161690,99.047333 100.257523,99.446243 
	C98.842094,99.928703 96.970467,101.246460 96.083199,100.761871 
	C88.787895,96.777443 80.887268,97.925133 73.141472,97.375916 
	C68.785919,97.067101 64.520523,95.529045 60.203934,94.593575 
	C59.319561,94.401917 58.354778,94.234314 57.483624,94.384247 
	C51.184914,95.468384 44.900623,96.636337 38.612003,97.779030 
	C34.243851,98.572754 29.890717,99.469681 25.499752,100.105591 
	C24.066809,100.313110 22.535719,99.842911 21.039827,98.927139 
	C27.651913,94.213654 33.685707,89.117157 42.642220,93.304657 
	C48.872978,96.217758 53.629108,91.584572 58.807098,87.737885 
	C64.512871,93.723801 71.577614,93.940681 79.336578,92.386986 
	C82.189125,91.815781 85.470299,93.385048 88.946556,94.072975 
z"/>
<path fill="#F3F3F3" opacity="1.000000" stroke="none" 
	d="
M43.362610,74.716782 
	C43.959087,68.252403 48.181671,66.143028 53.843533,66.133507 
	C57.631584,66.127136 61.461739,66.187645 65.199608,66.727104 
	C72.097107,67.722580 72.074615,67.878433 74.627823,75.130585 
	C64.068245,70.884857 53.840710,70.861824 43.362610,74.716782 
z"/>
<path fill="#F0F0F0" opacity="1.000000" stroke="none" 
	d="
M70.963127,81.148750 
	C61.512642,83.884804 52.607773,83.537132 43.573231,80.058548 
	C51.917427,73.731331 66.850655,74.551620 74.082565,79.743111 
	C73.110268,80.207428 72.229858,80.627853 70.963127,81.148750 
z"/>
<path fill="#EBEBEB" opacity="1.000000" stroke="none" 
	d="
M62.688194,23.161095 
	C61.287441,24.941053 59.956604,26.648752 58.210751,27.569708 
	C57.728298,27.824207 55.171089,25.814751 55.067932,24.704489 
	C54.933346,23.255903 56.293907,21.668406 57.011147,20.140676 
	C58.874588,21.024416 60.738029,21.908154 62.688194,23.161095 
z"/>
<path fill="#171717" opacity="1.000000" stroke="none" 
	d="
M63.525879,50.603825 
	C62.301521,51.368832 61.404335,52.030987 60.736633,52.874748 
	C59.927090,53.897758 59.311390,55.074165 58.611816,56.184196 
	C58.023952,55.027393 57.400482,53.886665 56.867123,52.705257 
	C56.674698,52.279037 56.698570,51.755161 56.714626,51.858009 
	C54.570255,50.557205 52.802353,49.484779 51.034454,48.412354 
	C52.646893,47.592754 54.259331,46.773155 56.046223,45.864883 
	C56.836407,44.488159 57.843918,42.732796 58.851425,40.977436 
	C59.721943,42.558769 60.592461,44.140102 61.675583,46.107643 
	C62.831810,46.705105 64.553215,47.594620 66.274620,48.484131 
	C65.501328,49.183239 64.728035,49.882347 63.525879,50.603825 
z"/>
</svg>