<svg version="1.1" id="Layer_1" xmlns="http://www.w3.org/2000/svg" xmlns:xlink="http://www.w3.org/1999/xlink" x="0px" y="0px"
	 width="100%" viewBox="0 0 120 120" enable-background="new 0 0 120 120" xml:space="preserve">
<path fill="#010101" opacity="1.000000" stroke="none" 
	d="
M78.000000,121.000000 
	C52.000000,121.000000 26.500000,121.000000 1.000000,121.000000 
	C1.000000,81.000000 1.000000,41.000000 1.000000,1.000000 
	C41.000000,1.000000 81.000000,1.000000 121.000000,1.000000 
	C121.000000,41.000000 121.000000,81.000000 121.000000,121.000000 
	C106.833336,121.000000 92.666664,121.000000 78.000000,121.000000 
M14.501424,80.591782 
	C14.950949,80.807030 15.400473,81.022278 16.170652,81.644539 
	C19.062820,80.584244 21.954988,79.523941 26.357767,77.909843 
	C25.572161,81.283630 24.937927,84.007339 24.303694,86.731049 
	C26.585562,85.733925 27.968754,84.246452 29.102974,82.588638 
	C34.180336,75.167427 39.369637,67.539116 48.240540,64.553963 
	C58.342274,61.154633 64.601891,55.189373 65.948128,43.963078 
	C67.356819,45.369766 69.124329,47.171688 68.786774,48.390717 
	C67.767769,52.070774 65.936188,55.526627 64.409821,59.064899 
	C63.950722,60.129131 63.052212,61.171726 63.038136,62.233295 
	C62.931175,70.299843 59.979565,77.403267 55.520988,83.862701 
	C51.552929,89.611504 46.919636,94.902672 42.982876,100.670822 
	C41.275440,103.172554 40.578804,106.364159 39.119556,109.998222 
	C51.584858,109.998222 62.717079,109.998657 73.849304,109.998085 
	C84.837585,109.997528 95.825882,110.004753 106.814133,109.986664 
	C108.772820,109.983444 110.923355,110.242683 110.535950,107.064278 
	C109.320007,97.088120 108.519096,87.048042 106.922485,77.134987 
	C104.945282,64.858879 102.081940,52.734306 95.363670,42.007336 
	C88.918648,31.716650 81.011154,23.558342 67.366028,24.996119 
	C61.643955,25.599051 57.603573,23.871542 56.476345,17.590265 
	C56.285751,16.528238 55.092247,15.646194 54.980999,15.499129 
	C50.018501,18.868599 45.851521,22.299284 41.165596,24.729244 
	C35.143505,27.852095 29.711792,31.516413 25.904264,37.139915 
	C24.785543,38.792202 23.638393,41.559193 24.279070,43.055279 
	C26.170187,47.471363 24.120510,50.590443 22.061041,53.942207 
	C18.696358,59.418205 14.834839,64.678787 12.247376,70.503128 
	C11.024064,73.256783 10.087943,77.521606 14.501424,80.591782 
M39.085327,21.670713 
	C40.007732,21.044441 40.930138,20.418169 42.454796,19.382994 
	C39.202820,17.698591 36.469967,16.283073 32.880283,14.423753 
	C33.070030,18.218132 33.207829,20.973749 33.376057,24.337778 
	C35.779861,23.228640 37.112019,22.613972 39.085327,21.670713 
z"/>
<path fill="#030ECA" opacity="1.000000" stroke="none" 
	d="
M13.884082,80.172264 
	C10.087943,77.521606 11.024064,73.256783 12.247376,70.503128 
	C14.834839,64.678787 18.696358,59.418205 22.061041,53.942207 
	C24.120510,50.590443 26.170187,47.471363 24.279070,43.055279 
	C23.638393,41.559193 24.785543,38.792202 25.904264,37.139915 
	C29.711792,31.516413 35.143505,27.852095 41.165596,24.729244 
	C45.851521,22.299284 50.018501,18.868599 54.980999,15.499129 
	C55.092247,15.646194 56.285751,16.528238 56.476345,17.590265 
	C57.603573,23.871542 61.643955,25.599051 67.366028,24.996119 
	C81.011154,23.558342 88.918648,31.716650 95.363670,42.007336 
	C102.081940,52.734306 104.945282,64.858879 106.922485,77.134987 
	C108.519096,87.048042 109.320007,97.088120 110.535950,107.064278 
	C110.923355,110.242683 108.772820,109.983444 106.814133,109.986664 
	C95.825882,110.004753 84.837585,109.997528 73.849304,109.998085 
	C62.717079,109.998657 51.584858,109.998222 39.119556,109.998222 
	C40.578804,106.364159 41.275440,103.172554 42.982876,100.670822 
	C46.919636,94.902672 51.552929,89.611504 55.520988,83.862701 
	C59.979565,77.403267 62.931175,70.299843 63.038136,62.233295 
	C63.052212,61.171726 63.950722,60.129131 64.409821,59.064899 
	C65.936188,55.526627 67.767769,52.070774 68.786774,48.390717 
	C69.124329,47.171688 67.356819,45.369766 65.948128,43.963078 
	C64.601891,55.189373 58.342274,61.154633 48.240540,64.553963 
	C39.369637,67.539116 34.180336,75.167427 29.102974,82.588638 
	C27.968754,84.246452 26.585562,85.733925 24.303694,86.731049 
	C24.937927,84.007339 25.572161,81.283630 26.357767,77.909843 
	C21.954988,79.523941 19.062820,80.584244 16.031139,81.400383 
	C15.891625,81.156227 15.809710,81.114929 15.866983,80.939690 
	C15.968512,80.456947 15.847439,80.240242 15.916389,80.043762 
	C16.867741,79.324646 17.463743,78.676102 18.352575,77.874069 
	C18.757778,75.887314 18.870152,74.054054 18.982523,72.220787 
	C18.283009,72.067619 17.583494,71.914444 16.883980,71.761276 
	C15.933389,74.486969 14.982800,77.212654 13.950087,79.968277 
	C13.867964,79.998199 13.884082,80.172264 13.884082,80.172264 
z"/>
<path fill="#0510C8" opacity="1.000000" stroke="none" 
	d="
M38.764751,21.835009 
	C37.112019,22.613972 35.779861,23.228640 33.376057,24.337778 
	C33.207829,20.973749 33.070030,18.218132 32.880283,14.423753 
	C36.469967,16.283073 39.202820,17.698591 42.454796,19.382994 
	C40.930138,20.418169 40.007732,21.044441 38.764751,21.835009 
z"/>
<path fill="#090909" opacity="1.000000" stroke="none" 
	d="
M15.809711,81.114929 
	C15.809710,81.114929 15.891625,81.156227 15.870811,81.196877 
	C15.400473,81.022278 14.950949,80.807030 14.192753,80.382019 
	C13.884082,80.172264 13.867964,79.998199 14.373647,80.294220 
	C15.189457,80.765137 15.499584,80.940033 15.809711,81.114929 
z"/>
<path fill="#010101" opacity="1.000000" stroke="none" 
	d="
M15.561043,80.114319 
	C15.847439,80.240242 15.968512,80.456947 15.866985,80.939690 
	C15.499584,80.940033 15.189457,80.765137 14.455770,80.264297 
	C14.982800,77.212654 15.933389,74.486969 16.883980,71.761276 
	C17.583494,71.914444 18.283009,72.067619 18.982523,72.220787 
	C18.870152,74.054054 18.757778,75.887314 18.077198,78.046577 
	C16.859674,78.953156 16.210358,79.533737 15.561043,80.114319 
z"/>
<path fill="#090909" opacity="1.000000" stroke="none" 
	d="
M15.916391,80.043762 
	C16.210358,79.533737 16.859674,78.953156 17.784367,78.200066 
	C17.463743,78.676102 16.867741,79.324646 15.916391,80.043762 
z"/>
</svg>