<svg version="1.1" id="Layer_1" xmlns="http://www.w3.org/2000/svg" xmlns:xlink="http://www.w3.org/1999/xlink" x="0px" y="0px"
	 width="100%" viewBox="0 0 120 120" enable-background="new 0 0 120 120" xml:space="preserve">
<path fill="#010101" opacity="1.000000" stroke="none" 
	d="
M89.000000,121.000000 
	C59.333332,121.000000 30.166666,121.000000 1.000000,121.000000 
	C1.000000,81.000000 1.000000,41.000000 1.000000,1.000000 
	C41.000000,1.000000 81.000000,1.000000 121.000000,1.000000 
	C121.000000,41.000000 121.000000,81.000000 121.000000,121.000000 
	C110.500000,121.000000 100.000000,121.000000 89.000000,121.000000 
M50.937313,73.908188 
	C60.981411,72.154648 71.126518,72.678322 80.424461,76.330566 
	C87.609909,79.153023 92.099861,77.071899 96.518959,72.173660 
	C98.167229,70.346687 99.775955,68.434998 101.087036,66.362259 
	C104.691078,60.664494 104.162529,54.530487 98.800438,50.526733 
	C94.573898,47.370872 89.678802,44.524799 84.641380,43.145988 
	C66.687943,38.231888 48.529808,38.313950 31.205591,45.395287 
	C17.955383,50.811356 12.958569,60.565853 25.007360,72.653542 
	C28.917656,76.576454 33.005592,77.863800 38.357426,76.159370 
	C42.172577,74.944344 46.215126,74.443336 50.937313,73.908188 
M62.212296,95.998703 
	C53.876339,95.829300 45.674614,96.458549 36.696812,100.075577 
	C52.420616,106.854332 66.910400,106.287979 81.430702,100.589569 
	C81.514626,100.056557 81.598549,99.523552 81.682465,98.990547 
	C75.489372,97.991562 69.296272,96.992584 62.212296,95.998703 
M61.897465,86.940742 
	C53.797813,87.976852 45.655788,88.766823 37.616055,90.150940 
	C33.478443,90.863266 32.857773,92.488274 34.004742,95.917343 
	C34.333309,95.936432 34.700848,96.062622 34.984852,95.959267 
	C50.626740,90.266609 66.347206,90.703667 82.174988,95.160690 
	C83.230499,95.457924 84.601936,94.633270 85.826431,94.330429 
	C84.736481,92.918205 83.859947,90.555595 82.520409,90.254776 
	C75.981590,88.786377 69.319168,87.868385 61.897465,86.940742 
M70.764847,78.026840 
	C59.001968,76.740280 47.417728,77.126877 36.133942,81.254265 
	C32.790218,82.477325 31.817989,83.928383 34.373005,86.764984 
	C51.433949,80.566444 68.611389,82.288643 86.142212,85.267693 
	C85.059311,83.223572 83.823875,81.741356 82.257812,81.177582 
	C78.772003,79.922729 75.120819,79.127281 70.764847,78.026840 
z"/>
<path fill="#030ECA" opacity="1.000000" stroke="none" 
	d="
M50.546753,73.765938 
	C46.215126,74.443336 42.172577,74.944344 38.357426,76.159370 
	C33.005592,77.863800 28.917656,76.576454 25.007360,72.653542 
	C12.958569,60.565853 17.955383,50.811356 31.205591,45.395287 
	C48.529808,38.313950 66.687943,38.231888 84.641380,43.145988 
	C89.678802,44.524799 94.573898,47.370872 98.800438,50.526733 
	C104.162529,54.530487 104.691078,60.664494 101.087036,66.362259 
	C99.775955,68.434998 98.167229,70.346687 96.518959,72.173660 
	C92.099861,77.071899 87.609909,79.153023 80.424461,76.330566 
	C71.126518,72.678322 60.981411,72.154648 50.546753,73.765938 
z"/>
<path fill="#040FC9" opacity="1.000000" stroke="none" 
	d="
M62.657734,95.996155 
	C69.296272,96.992584 75.489372,97.991562 81.682465,98.990547 
	C81.598549,99.523552 81.514626,100.056557 81.430702,100.589569 
	C66.910400,106.287979 52.420616,106.854332 36.696812,100.075577 
	C45.674614,96.458549 53.876339,95.829300 62.657734,95.996155 
z"/>
<path fill="#040FC8" opacity="1.000000" stroke="none" 
	d="
M62.298965,86.848221 
	C69.319168,87.868385 75.981590,88.786377 82.520409,90.254776 
	C83.859947,90.555595 84.736481,92.918205 85.826431,94.330429 
	C84.601936,94.633270 83.230499,95.457924 82.174988,95.160690 
	C66.347206,90.703667 50.626740,90.266609 34.984852,95.959267 
	C34.700848,96.062622 34.333309,95.936432 34.004944,95.913879 
	C32.857773,92.488274 33.478443,90.863266 37.616055,90.150940 
	C45.655788,88.766823 53.797813,87.976852 62.298965,86.848221 
z"/>
<path fill="#040FC9" opacity="1.000000" stroke="none" 
	d="
M71.150940,78.085724 
	C75.120819,79.127281 78.772003,79.922729 82.257812,81.177582 
	C83.823875,81.741356 85.059311,83.223572 86.142212,85.267693 
	C68.611389,82.288643 51.433949,80.566444 34.373005,86.764984 
	C31.817989,83.928383 32.790218,82.477325 36.133942,81.254265 
	C47.417728,77.126877 59.001968,76.740280 71.150940,78.085724 
z"/>
</svg>