<svg version="1.1" id="Layer_1" xmlns="http://www.w3.org/2000/svg" xmlns:xlink="http://www.w3.org/1999/xlink" x="0px" y="0px"
	 width="100%" viewBox="0 0 120 120" enable-background="new 0 0 120 120" xml:space="preserve">
<path fill="#040404" opacity="1.000000" stroke="none" 
	d="
M1.000000,49.000000 
	C1.000000,32.666668 1.000000,16.833334 1.000000,1.000000 
	C41.000000,1.000000 81.000000,1.000000 121.000000,1.000000 
	C121.000000,41.000000 121.000000,81.000000 121.000000,121.000000 
	C81.000000,121.000000 41.000000,121.000000 1.000000,121.000000 
	C1.000000,97.166664 1.000000,73.333336 1.000000,49.000000 
M93.154419,115.728081 
	C93.152145,115.952507 93.149879,116.176941 93.147614,116.401367 
	C93.326935,116.154160 93.506256,115.906952 93.057076,115.305046 
	C88.989426,113.701881 85.002586,111.835426 80.835442,110.556450 
	C74.377777,108.574486 67.813538,106.927322 61.255680,105.293976 
	C59.829346,104.938721 58.163486,104.937897 56.737316,105.293167 
	C50.179569,106.926743 43.655220,108.699646 37.143642,110.511490 
	C32.738007,111.737366 28.373474,113.110939 23.990557,114.418442 
	C24.645391,115.889984 24.910522,116.157196 25.150198,116.136040 
	C35.880508,115.188950 46.606091,114.186958 57.339901,113.282463 
	C58.770355,113.161919 60.238781,113.558571 61.693722,113.651329 
	C72.386856,114.333038 83.081024,114.998375 93.154419,115.728081 
M69.492210,56.991676 
	C73.923271,56.991676 78.354340,56.991676 82.722038,56.991676 
	C82.722038,48.237385 82.722038,40.015312 82.722038,31.958828 
	C67.364731,31.958828 52.317749,31.958828 37.295471,31.958828 
	C37.295471,40.440865 37.295471,48.641518 37.295471,56.991676 
	C47.912853,56.991676 58.204113,56.991676 69.492210,56.991676 
M48.500175,69.742096 
	C41.728527,69.742096 34.956879,69.742096 28.004440,69.742096 
	C28.004440,72.917061 28.004440,75.647995 28.004440,78.594193 
	C49.428604,78.594193 70.616020,78.594193 91.998718,78.594193 
	C91.998718,75.610893 91.998718,72.878006 91.998718,69.742096 
	C77.679344,69.742096 63.589764,69.742096 48.500175,69.742096 
M83.570969,28.738367 
	C85.121002,25.678841 86.671036,22.619316 88.434174,19.139141 
	C69.256943,19.139141 50.743717,19.139141 31.694340,19.139141 
	C32.920517,21.693987 33.670071,24.128616 35.130230,26.012453 
	C36.230412,27.431870 38.228958,29.014933 39.848259,29.037397 
	C54.153324,29.235853 68.463013,29.101418 83.570969,28.738367 
M27.776779,8.570510 
	C27.776779,10.316043 27.776779,12.061576 27.776779,13.760019 
	C49.606770,13.760019 70.814613,13.760019 91.913010,13.760019 
	C91.913010,10.742116 91.913010,8.008419 91.913010,5.274942 
	C88.839928,5.274942 86.080681,5.274942 83.363731,5.274942 
	C83.080482,6.885981 82.839333,8.257592 82.602951,9.602024 
	C76.605049,9.602024 70.981766,9.602024 65.108887,9.602024 
	C64.841827,8.115329 64.592430,6.726923 64.323746,5.231173 
	C61.359474,5.231173 58.597424,5.231173 55.705650,5.231173 
	C55.411579,6.774437 55.148457,8.155307 54.889660,9.513448 
	C48.814098,9.513448 43.047806,9.513448 37.304256,9.513448 
	C37.031937,7.894554 36.799316,6.511675 36.551411,5.037915 
	C34.229736,5.037915 32.187073,4.762476 30.281076,5.153388 
	C29.319038,5.350698 28.604525,6.754886 27.776779,8.570510 
M46.572449,59.159645 
	C44.907547,59.159645 43.211143,59.367123 41.583755,59.120045 
	C37.029202,58.428551 34.957130,60.601250 34.328087,64.778244 
	C51.548847,64.778244 68.606651,64.778244 85.695198,64.778244 
	C85.026970,60.028538 82.349060,58.930370 78.015610,59.061501 
	C67.869019,59.368526 57.706825,59.159645 46.572449,59.159645 
M38.502739,83.577477 
	C33.530720,83.577477 28.558697,83.577477 23.416855,83.577477 
	C23.416855,85.258125 23.416855,86.602890 23.416855,87.834602 
	C48.051712,87.834602 72.325043,87.834602 96.918274,87.834602 
	C96.840004,86.352020 96.774940,85.119621 96.693527,83.577454 
	C77.437218,83.577454 58.469337,83.577454 38.502739,83.577477 
M41.145641,95.851013 
	C42.758255,96.869972 44.342266,98.712784 45.988274,98.769928 
	C54.614635,99.069420 63.262028,99.091316 71.890511,98.828583 
	C75.022003,98.733223 77.661163,97.208626 76.693588,92.676262 
	C65.494965,92.676262 54.393238,92.629631 43.294056,92.775909 
	C42.512108,92.786224 41.748920,94.220108 41.145641,95.851013 
z"/>
<path fill="#FFFFFF" opacity="1.000000" stroke="none" 
	d="
M68.993790,56.991676 
	C58.204113,56.991676 47.912853,56.991676 37.295471,56.991676 
	C37.295471,48.641518 37.295471,40.440865 37.295471,31.958828 
	C52.317749,31.958828 67.364731,31.958828 82.722038,31.958828 
	C82.722038,40.015312 82.722038,48.237385 82.722038,56.991676 
	C78.354340,56.991676 73.923271,56.991676 68.993790,56.991676 
z"/>
<path fill="#F8F8F8" opacity="1.000000" stroke="none" 
	d="
M49.000179,69.742096 
	C63.589764,69.742096 77.679344,69.742096 91.998718,69.742096 
	C91.998718,72.878006 91.998718,75.610893 91.998718,78.594193 
	C70.616020,78.594193 49.428604,78.594193 28.004440,78.594193 
	C28.004440,75.647995 28.004440,72.917061 28.004440,69.742096 
	C34.956879,69.742096 41.728527,69.742096 49.000179,69.742096 
z"/>
<path fill="#FEFEFE" opacity="1.000000" stroke="none" 
	d="
M83.171150,28.901875 
	C68.463013,29.101418 54.153324,29.235853 39.848259,29.037397 
	C38.228958,29.014933 36.230412,27.431870 35.130230,26.012453 
	C33.670071,24.128616 32.920517,21.693987 31.694340,19.139141 
	C50.743717,19.139141 69.256943,19.139141 88.434174,19.139141 
	C86.671036,22.619316 85.121002,25.678841 83.171150,28.901875 
z"/>
<path fill="#FBFBFB" opacity="1.000000" stroke="none" 
	d="
M27.777435,8.091941 
	C28.604525,6.754886 29.319038,5.350698 30.281076,5.153388 
	C32.187073,4.762476 34.229736,5.037915 36.551411,5.037915 
	C36.799316,6.511675 37.031937,7.894554 37.304256,9.513448 
	C43.047806,9.513448 48.814098,9.513448 54.889660,9.513448 
	C55.148457,8.155307 55.411579,6.774437 55.705650,5.231173 
	C58.597424,5.231173 61.359474,5.231173 64.323746,5.231173 
	C64.592430,6.726923 64.841827,8.115329 65.108887,9.602024 
	C70.981766,9.602024 76.605049,9.602024 82.602951,9.602024 
	C82.839333,8.257592 83.080482,6.885981 83.363731,5.274942 
	C86.080681,5.274942 88.839928,5.274942 91.913010,5.274942 
	C91.913010,8.008419 91.913010,10.742116 91.913010,13.760019 
	C70.814613,13.760019 49.606770,13.760019 27.776779,13.760019 
	C27.776779,12.061576 27.776779,10.316043 27.777435,8.091941 
z"/>
<path fill="#F5F5F5" opacity="1.000000" stroke="none" 
	d="
M93.774872,115.668869 
	C83.081024,114.998375 72.386856,114.333038 61.693722,113.651329 
	C60.238781,113.558571 58.770355,113.161919 57.339901,113.282463 
	C46.606091,114.186958 35.880508,115.188950 25.150198,116.136040 
	C24.910522,116.157196 24.645391,115.889984 23.990557,114.418442 
	C28.373474,113.110939 32.738007,111.737366 37.143642,110.511490 
	C43.655220,108.699646 50.179569,106.926743 56.737316,105.293167 
	C58.163486,104.937897 59.829346,104.938721 61.255680,105.293976 
	C67.813538,106.927322 74.377777,108.574486 80.835442,110.556450 
	C85.002586,111.835426 88.989426,113.701881 93.385773,115.505798 
	C93.714478,115.706551 93.774872,115.668869 93.774872,115.668869 
z"/>
<path fill="#F2F2F2" opacity="1.000000" stroke="none" 
	d="
M47.061699,59.159645 
	C57.706825,59.159645 67.869019,59.368526 78.015610,59.061501 
	C82.349060,58.930370 85.026970,60.028538 85.695198,64.778244 
	C68.606651,64.778244 51.548847,64.778244 34.328087,64.778244 
	C34.957130,60.601250 37.029202,58.428551 41.583755,59.120045 
	C43.211143,59.367123 44.907547,59.159645 47.061699,59.159645 
z"/>
<path fill="#FEFEFE" opacity="1.000000" stroke="none" 
	d="
M39.002098,83.577469 
	C58.469337,83.577454 77.437218,83.577454 96.693527,83.577454 
	C96.774940,85.119621 96.840004,86.352020 96.918274,87.834602 
	C72.325043,87.834602 48.051712,87.834602 23.416855,87.834602 
	C23.416855,86.602890 23.416855,85.258125 23.416855,83.577477 
	C28.558697,83.577477 33.530720,83.577477 39.002098,83.577469 
z"/>
<path fill="#FBFBFB" opacity="1.000000" stroke="none" 
	d="
M41.061325,95.421524 
	C41.748920,94.220108 42.512108,92.786224 43.294056,92.775909 
	C54.393238,92.629631 65.494965,92.676262 76.693588,92.676262 
	C77.661163,97.208626 75.022003,98.733223 71.890511,98.828583 
	C63.262028,99.091316 54.614635,99.069420 45.988274,98.769928 
	C44.342266,98.712784 42.758255,96.869972 41.061325,95.421524 
z"/>
<path fill="#F5F5F5" opacity="1.000000" stroke="none" 
	d="
M93.700027,115.683151 
	C93.506256,115.906952 93.326935,116.154160 93.147614,116.401367 
	C93.149879,116.176941 93.152145,115.952507 93.464645,115.698471 
	C93.774872,115.668869 93.714478,115.706551 93.700027,115.683151 
z"/>
</svg>