<svg version="1.1" id="Layer_1" xmlns="http://www.w3.org/2000/svg" xmlns:xlink="http://www.w3.org/1999/xlink" x="0px" y="0px"
	 width="100%" viewBox="0 0 120 120" enable-background="new 0 0 120 120" xml:space="preserve">
<path fill="#000000" opacity="1.000000" stroke="none" 
	d="
M62.000000,121.000000 
	C41.333332,121.000000 21.166666,121.000000 1.000000,121.000000 
	C1.000000,81.000000 1.000000,41.000000 1.000000,1.000000 
	C41.000000,1.000000 81.000000,1.000000 121.000000,1.000000 
	C121.000000,41.000000 121.000000,81.000000 121.000000,121.000000 
	C101.500000,121.000000 82.000000,121.000000 62.000000,121.000000 
M85.093597,54.587399 
	C82.461449,51.289482 80.342537,47.334885 77.108406,44.807213 
	C63.039070,33.811199 61.740761,31.985065 48.425087,41.949661 
	C48.311394,42.034744 48.050488,41.927494 47.941933,42.014439 
	C39.755627,48.571369 33.454708,56.188046 34.016262,67.498924 
	C34.304588,73.306381 38.784512,78.071342 42.939297,77.014465 
	C54.219639,74.145004 65.460449,74.069763 76.759277,76.965645 
	C81.787804,78.254448 85.041031,76.050774 87.069984,71.159477 
	C89.429405,65.471512 87.181923,60.380558 85.093597,54.587399 
M61.456928,80.999687 
	C59.463955,80.999687 57.470978,80.999344 55.478004,80.999741 
	C45.353325,81.001740 43.774097,82.156197 40.921951,91.087402 
	C47.246639,89.774658 53.910294,87.369308 60.601555,87.289886 
	C67.308540,87.210289 74.043083,89.451836 81.063156,90.730240 
	C80.263725,86.397057 78.798271,82.808342 74.091995,82.082535 
	C70.238823,81.488297 66.316307,81.343643 61.456928,80.999687 
M57.240143,93.961334 
	C51.836472,95.108551 46.432800,96.255768 41.029129,97.402985 
	C54.458424,103.136810 67.567558,103.580498 82.154800,98.378883 
	C73.458038,94.921936 66.075729,92.579811 57.240143,93.961334 
M57.460552,26.975006 
	C59.511700,29.356905 61.523735,29.959927 64.122902,27.481155 
	C66.306458,25.398743 66.919861,23.035316 64.869446,21.131563 
	C63.545723,19.902523 60.498760,18.977346 59.146141,19.683132 
	C56.931217,20.838863 54.267242,23.071869 57.460552,26.975006 
z"/>
<path fill="#FFFFFF" opacity="1.000000" stroke="none" 
	d="
M85.380035,54.862350 
	C87.181923,60.380558 89.429405,65.471512 87.069984,71.159477 
	C85.041031,76.050774 81.787804,78.254448 76.759277,76.965645 
	C65.460449,74.069763 54.219639,74.145004 42.939297,77.014465 
	C38.784512,78.071342 34.304588,73.306381 34.016262,67.498924 
	C33.454708,56.188046 39.755627,48.571369 47.941933,42.014439 
	C48.050488,41.927494 48.311394,42.034744 48.425087,41.949661 
	C61.740761,31.985065 63.039070,33.811199 77.108406,44.807213 
	C80.342537,47.334885 82.461449,51.289482 85.380035,54.862350 
M60.592068,46.048084 
	C59.382278,48.524502 58.172485,51.000923 57.002926,53.395000 
	C54.796181,54.142246 52.242531,55.006966 49.688885,55.871681 
	C49.686203,56.624508 49.683521,57.377331 49.680843,58.130154 
	C52.377075,59.002048 55.073311,59.873940 57.238914,60.574238 
	C58.153137,63.232845 59.028248,65.777718 59.903358,68.322594 
	C60.657276,68.316925 61.411198,68.311264 62.165119,68.305595 
	C63.026169,65.598129 63.887222,62.890667 64.559471,60.776867 
	C67.270142,59.831299 69.802650,58.947876 72.335159,58.064453 
	C72.321991,57.310825 72.308823,56.557198 72.295647,55.803570 
	C69.578323,54.950539 66.861000,54.097504 65.385689,53.634369 
	C63.811153,50.628063 62.611320,48.337204 60.592068,46.048084 
z"/>
<path fill="#FFFFFF" opacity="1.000000" stroke="none" 
	d="
M61.940727,80.999687 
	C66.316307,81.343643 70.238823,81.488297 74.091995,82.082535 
	C78.798271,82.808342 80.263725,86.397057 81.063156,90.730240 
	C74.043083,89.451836 67.308540,87.210289 60.601555,87.289886 
	C53.910294,87.369308 47.246639,89.774658 40.921951,91.087402 
	C43.774097,82.156197 45.353325,81.001740 55.478004,80.999741 
	C57.470978,80.999344 59.463955,80.999687 61.940727,80.999687 
z"/>
<path fill="#FFFFFF" opacity="1.000000" stroke="none" 
	d="
M57.621445,93.729729 
	C66.075729,92.579811 73.458038,94.921936 82.154800,98.378883 
	C67.567558,103.580498 54.458424,103.136810 41.029129,97.402985 
	C46.432800,96.255768 51.836472,95.108551 57.621445,93.729729 
z"/>
<path fill="#FFFFFF" opacity="1.000000" stroke="none" 
	d="
M57.198853,26.687704 
	C54.267242,23.071869 56.931217,20.838863 59.146141,19.683132 
	C60.498760,18.977346 63.545723,19.902523 64.869446,21.131563 
	C66.919861,23.035316 66.306458,25.398743 64.122902,27.481155 
	C61.523735,29.959927 59.511700,29.356905 57.198853,26.687704 
z"/>
<path fill="#000000" opacity="1.000000" stroke="none" 
	d="
M61.001778,46.047211 
	C62.611320,48.337204 63.811153,50.628063 65.385689,53.634369 
	C66.861000,54.097504 69.578323,54.950539 72.295647,55.803570 
	C72.308823,56.557198 72.321991,57.310825 72.335159,58.064453 
	C69.802650,58.947876 67.270142,59.831299 64.559471,60.776867 
	C63.887222,62.890667 63.026169,65.598129 62.165119,68.305595 
	C61.411198,68.311264 60.657276,68.316925 59.903358,68.322594 
	C59.028248,65.777718 58.153137,63.232845 57.238914,60.574238 
	C55.073311,59.873940 52.377075,59.002048 49.680843,58.130154 
	C49.683521,57.377331 49.686203,56.624508 49.688885,55.871681 
	C52.242531,55.006966 54.796181,54.142246 57.002926,53.395000 
	C58.172485,51.000923 59.382278,48.524502 61.001778,46.047211 
z"/>
</svg>