<svg version="1.1" id="Layer_1" xmlns="http://www.w3.org/2000/svg" xmlns:xlink="http://www.w3.org/1999/xlink" x="0px" y="0px"
	 width="100%" viewBox="0 0 120 120" enable-background="new 0 0 120 120" xml:space="preserve">
<path fill="#000000" opacity="1.000000" stroke="none" 
	d="
M62.000000,121.000000 
	C41.333332,121.000000 21.166666,121.000000 1.000000,121.000000 
	C1.000000,81.000000 1.000000,41.000000 1.000000,1.000000 
	C41.000000,1.000000 81.000000,1.000000 121.000000,1.000000 
	C121.000000,41.000000 121.000000,81.000000 121.000000,121.000000 
	C101.500000,121.000000 82.000000,121.000000 62.000000,121.000000 
M85.144333,54.545639 
	C80.611305,46.260239 73.565506,40.684788 65.200943,36.815392 
	C63.180489,35.880737 60.196327,35.916969 58.022915,36.628902 
	C50.812248,38.990864 44.760315,43.493431 40.254459,49.455223 
	C35.561268,55.664886 32.038895,62.616619 34.910328,70.913887 
	C36.759575,76.257462 39.681915,77.503204 45.318382,76.357292 
	C55.267864,74.334526 65.284821,74.075264 75.225388,76.637123 
	C82.564194,78.528458 87.905365,74.824654 87.860680,67.150955 
	C87.837387,63.150700 86.411072,59.158607 85.144333,54.545639 
M61.452141,81.000000 
	C58.458481,81.003540 55.453793,80.842667 52.473305,81.042610 
	C44.687328,81.564896 41.714512,84.490501 41.522926,91.582596 
	C54.395828,85.904633 67.426582,86.417992 80.708939,91.298836 
	C80.240280,85.263779 77.840431,82.144707 72.204193,81.951813 
	C68.934525,81.839912 65.678452,81.330521 61.452141,81.000000 
M54.622559,94.003746 
	C50.300362,95.216171 45.978168,96.428589 40.561390,97.948051 
	C53.701065,103.559502 72.944008,103.372612 80.377693,98.152840 
	C72.193993,93.926323 62.981552,92.387138 54.622559,94.003746 
M58.024643,27.524178 
	C60.860523,30.426786 63.395660,29.002121 64.858856,26.354448 
	C65.663025,24.899298 65.580681,21.666985 64.569084,20.816341 
	C63.258118,19.713947 60.203777,19.368486 58.650299,20.163448 
	C55.976864,21.531525 54.572796,24.139242 58.024643,27.524178 
z"/>
<path fill="#030ECA" opacity="1.000000" stroke="none" 
	d="
M85.381409,54.854233 
	C86.411072,59.158607 87.837387,63.150700 87.860680,67.150955 
	C87.905365,74.824654 82.564194,78.528458 75.225388,76.637123 
	C65.284821,74.075264 55.267864,74.334526 45.318382,76.357292 
	C39.681915,77.503204 36.759575,76.257462 34.910328,70.913887 
	C32.038895,62.616619 35.561268,55.664886 40.254459,49.455223 
	C44.760315,43.493431 50.812248,38.990864 58.022915,36.628902 
	C60.196327,35.916969 63.180489,35.880737 65.200943,36.815392 
	C73.565506,40.684788 80.611305,46.260239 85.381409,54.854233 
M69.650383,59.728165 
	C70.274689,58.546600 70.898987,57.365036 71.523285,56.183468 
	C69.262794,55.124352 67.002296,54.065235 64.697861,52.985527 
	C63.896034,50.860912 62.938747,48.324379 61.981464,45.787849 
	C61.290165,45.807564 60.598866,45.827278 59.907566,45.846992 
	C59.004597,48.424576 58.101624,51.002159 57.382092,53.056107 
	C54.709076,54.137447 52.222763,55.143261 49.736454,56.149075 
	C49.789253,56.825020 49.842056,57.500965 49.894855,58.176910 
	C52.510563,59.058475 55.126270,59.940044 56.989079,60.567863 
	C58.197044,63.420647 59.230049,65.860237 60.263054,68.299820 
	C60.922295,68.218971 61.581535,68.138123 62.240776,68.057266 
	C63.083481,65.555588 63.926186,63.053905 64.895958,60.175022 
	C65.949852,60.111473 67.412445,60.023281 69.650383,59.728165 
z"/>
<path fill="#030ECA" opacity="1.000000" stroke="none" 
	d="
M61.934200,81.000000 
	C65.678452,81.330521 68.934525,81.839912 72.204193,81.951813 
	C77.840431,82.144707 80.240280,85.263779 80.708939,91.298836 
	C67.426582,86.417992 54.395828,85.904633 41.522926,91.582596 
	C41.714512,84.490501 44.687328,81.564896 52.473305,81.042610 
	C55.453793,80.842667 58.458481,81.003540 61.934200,81.000000 
z"/>
<path fill="#030ECA" opacity="1.000000" stroke="none" 
	d="
M55.055824,93.999138 
	C62.981552,92.387138 72.193993,93.926323 80.377693,98.152840 
	C72.944008,103.372612 53.701065,103.559502 40.561390,97.948051 
	C45.978168,96.428589 50.300362,95.216171 55.055824,93.999138 
z"/>
<path fill="#030ECA" opacity="1.000000" stroke="none" 
	d="
M57.749908,27.249767 
	C54.572796,24.139242 55.976864,21.531525 58.650299,20.163448 
	C60.203777,19.368486 63.258118,19.713947 64.569084,20.816341 
	C65.580681,21.666985 65.663025,24.899298 64.858856,26.354448 
	C63.395660,29.002121 60.860523,30.426786 57.749908,27.249767 
z"/>
<path fill="#000000" opacity="1.000000" stroke="none" 
	d="
M69.262711,59.831627 
	C67.412445,60.023281 65.949852,60.111473 64.895958,60.175022 
	C63.926186,63.053905 63.083481,65.555588 62.240776,68.057266 
	C61.581535,68.138123 60.922295,68.218971 60.263054,68.299820 
	C59.230049,65.860237 58.197044,63.420647 56.989079,60.567863 
	C55.126270,59.940044 52.510563,59.058475 49.894855,58.176910 
	C49.842056,57.500965 49.789253,56.825020 49.736454,56.149075 
	C52.222763,55.143261 54.709076,54.137447 57.382092,53.056107 
	C58.101624,51.002159 59.004597,48.424576 59.907566,45.846992 
	C60.598866,45.827278 61.290165,45.807564 61.981464,45.787849 
	C62.938747,48.324379 63.896034,50.860912 64.697861,52.985527 
	C67.002296,54.065235 69.262794,55.124352 71.523285,56.183468 
	C70.898987,57.365036 70.274689,58.546600 69.262711,59.831627 
z"/>
</svg>