<svg version="1.1" id="Layer_1" xmlns="http://www.w3.org/2000/svg" xmlns:xlink="http://www.w3.org/1999/xlink" x="0px" y="0px"
	 width="100%" viewBox="0 0 120 120" enable-background="new 0 0 120 120" xml:space="preserve">
<path fill="#030303" opacity="1.000000" stroke="none" 
	d="
M81.000000,121.000000 
	C54.000000,121.000000 27.500000,121.000000 1.000000,121.000000 
	C1.000000,81.000000 1.000000,41.000000 1.000000,1.000000 
	C41.000000,1.000000 81.000000,1.000000 121.000000,1.000000 
	C121.000000,41.000000 121.000000,81.000000 121.000000,121.000000 
	C107.833336,121.000000 94.666664,121.000000 81.000000,121.000000 
M37.966503,66.469933 
	C37.966503,69.568573 37.966503,72.667206 37.966503,75.776970 
	C53.568726,75.776970 68.619682,75.776970 83.765015,75.776970 
	C83.765015,67.339928 83.765015,59.121948 83.765015,50.900764 
	C68.446472,50.900764 53.397469,50.900764 37.966503,50.900764 
	C37.966503,55.903011 37.966503,60.691944 37.966503,66.469933 
M28.774372,90.475342 
	C28.774372,92.767288 28.774372,95.059227 28.774372,97.596245 
	C50.383419,97.596245 71.576912,97.596245 93.002846,97.596245 
	C93.002846,94.642456 93.002846,91.909912 93.002846,88.953186 
	C92.201462,88.871613 91.574982,88.752472 90.948425,88.752113 
	C71.324791,88.740807 51.701122,88.729103 32.077579,88.771965 
	C31.003380,88.774307 29.930204,89.245995 28.774372,90.475342 
M87.934898,41.182076 
	C88.270882,40.194103 88.606857,39.206131 88.984177,38.096584 
	C70.115036,38.096584 51.682068,38.096584 33.200985,38.096584 
	C36.112164,48.092175 36.218513,48.176403 45.764187,48.176407 
	C56.252949,48.176411 66.758720,47.821472 77.223465,48.322811 
	C82.636703,48.582146 86.129616,47.307861 87.934898,41.182076 
M38.227551,28.248024 
	C37.988358,26.860561 37.749168,25.473097 37.557705,24.362503 
	C34.404629,24.362503 31.652040,24.362503 28.925694,24.362503 
	C28.925694,27.315258 28.925694,29.938614 28.925694,32.725685 
	C50.426929,32.725685 71.774918,32.725685 92.869370,32.725685 
	C92.869370,29.667873 92.869370,26.928474 92.869370,24.306515 
	C89.744652,24.306515 86.981583,24.306515 84.368507,24.306515 
	C84.046021,25.968838 83.781303,27.333370 83.540764,28.573317 
	C77.494247,28.573317 71.866310,28.573317 66.071289,28.573317 
	C65.794624,27.032423 65.543198,25.632088 65.300049,24.277807 
	C62.266342,24.277807 59.501022,24.277807 56.703232,24.277807 
	C56.380920,25.869492 56.103996,27.237045 55.808231,28.697638 
	C49.980938,28.697638 44.503887,28.697638 38.227551,28.248024 
M40.119759,78.157494 
	C38.257347,79.723518 36.394936,81.289543 34.532524,82.855576 
	C34.839005,83.162468 35.145485,83.469368 35.451962,83.776260 
	C52.524334,83.776260 69.596710,83.776260 86.718414,83.776260 
	C86.010452,79.038177 83.337509,77.961166 79.004341,78.057137 
	C66.344940,78.337540 53.675327,78.156845 40.119759,78.157494 
M83.497040,102.573639 
	C63.860603,102.573639 44.224171,102.573639 24.412182,102.573639 
	C24.412182,104.254211 24.412182,105.600334 24.412182,106.836960 
	C49.047661,106.836960 73.323982,106.836960 97.920692,106.836960 
	C97.843346,105.353645 97.779037,104.120331 97.719818,102.984604 
	C97.104691,102.803825 96.798073,102.637383 96.490059,102.634766 
	C92.491653,102.600822 88.493042,102.590149 83.497040,102.573639 
z"/>
<path fill="#FFFFFF" opacity="1.000000" stroke="none" 
	d="
M37.966503,65.975403 
	C37.966503,60.691944 37.966503,55.903011 37.966503,50.900764 
	C53.397469,50.900764 68.446472,50.900764 83.765015,50.900764 
	C83.765015,59.121948 83.765015,67.339928 83.765015,75.776970 
	C68.619682,75.776970 53.568726,75.776970 37.966503,75.776970 
	C37.966503,72.667206 37.966503,69.568573 37.966503,65.975403 
z"/>
<path fill="#F8F8F8" opacity="1.000000" stroke="none" 
	d="
M28.815462,89.987274 
	C29.930204,89.245995 31.003380,88.774307 32.077579,88.771965 
	C51.701122,88.729103 71.324791,88.740807 90.948425,88.752113 
	C91.574982,88.752472 92.201462,88.871613 93.002846,88.953186 
	C93.002846,91.909912 93.002846,94.642456 93.002846,97.596245 
	C71.576912,97.596245 50.383419,97.596245 28.774372,97.596245 
	C28.774372,95.059227 28.774372,92.767288 28.815462,89.987274 
z"/>
<path fill="#FEFEFE" opacity="1.000000" stroke="none" 
	d="
M87.755951,41.547890 
	C86.129616,47.307861 82.636703,48.582146 77.223465,48.322811 
	C66.758720,47.821472 56.252949,48.176411 45.764187,48.176407 
	C36.218513,48.176403 36.112164,48.092175 33.200985,38.096584 
	C51.682068,38.096584 70.115036,38.096584 88.984177,38.096584 
	C88.606857,39.206131 88.270882,40.194103 87.755951,41.547890 
z"/>
<path fill="#FBFBFB" opacity="1.000000" stroke="none" 
	d="
M38.627193,28.472832 
	C44.503887,28.697638 49.980938,28.697638 55.808231,28.697638 
	C56.103996,27.237045 56.380920,25.869492 56.703232,24.277807 
	C59.501022,24.277807 62.266342,24.277807 65.300049,24.277807 
	C65.543198,25.632088 65.794624,27.032423 66.071289,28.573317 
	C71.866310,28.573317 77.494247,28.573317 83.540764,28.573317 
	C83.781303,27.333370 84.046021,25.968838 84.368507,24.306515 
	C86.981583,24.306515 89.744652,24.306515 92.869370,24.306515 
	C92.869370,26.928474 92.869370,29.667873 92.869370,32.725685 
	C71.774918,32.725685 50.426929,32.725685 28.925694,32.725685 
	C28.925694,29.938614 28.925694,27.315258 28.925694,24.362503 
	C31.652040,24.362503 34.404629,24.362503 37.557705,24.362503 
	C37.749168,25.473097 37.988358,26.860561 38.627193,28.472832 
z"/>
<path fill="#F2F2F2" opacity="1.000000" stroke="none" 
	d="
M40.564739,78.157181 
	C53.675327,78.156845 66.344940,78.337540 79.004341,78.057137 
	C83.337509,77.961166 86.010452,79.038177 86.718414,83.776260 
	C69.596710,83.776260 52.524334,83.776260 35.451962,83.776260 
	C35.145485,83.469368 34.839005,83.162468 34.532524,82.855576 
	C36.394936,81.289543 38.257347,79.723518 40.564739,78.157181 
z"/>
<path fill="#FEFEFE" opacity="1.000000" stroke="none" 
	d="
M83.995758,102.573624 
	C88.493042,102.590149 92.491653,102.600822 96.490059,102.634766 
	C96.798073,102.637383 97.104691,102.803825 97.719818,102.984604 
	C97.779037,104.120331 97.843346,105.353645 97.920692,106.836960 
	C73.323982,106.836960 49.047661,106.836960 24.412182,106.836960 
	C24.412182,105.600334 24.412182,104.254211 24.412182,102.573639 
	C44.224171,102.573639 63.860603,102.573639 83.995758,102.573624 
z"/>
</svg>