<svg version="1.1" id="Layer_1" xmlns="http://www.w3.org/2000/svg" xmlns:xlink="http://www.w3.org/1999/xlink" x="0px" y="0px"
	 width="100%" viewBox="0 0 120 120" enable-background="new 0 0 120 120" xml:space="preserve">
<path fill="#000000" opacity="1.000000" stroke="none" 
	d="
M66.000000,121.000000 
	C44.000000,121.000000 22.500000,121.000000 1.000000,121.000000 
	C1.000000,81.000000 1.000000,41.000000 1.000000,1.000000 
	C41.000000,1.000000 81.000000,1.000000 121.000000,1.000000 
	C121.000000,41.000000 121.000000,81.000000 121.000000,121.000000 
	C102.833336,121.000000 84.666664,121.000000 66.000000,121.000000 
M32.976784,71.288094 
	C32.972069,79.441002 30.169575,83.655899 23.925056,84.392014 
	C23.925056,88.443665 23.925056,92.551628 23.925056,96.634911 
	C22.046410,96.924042 20.519217,97.159081 19.346207,97.339615 
	C19.346207,102.507698 19.346207,107.248032 19.346207,111.686035 
	C47.445663,111.686035 75.175217,111.686035 102.874878,111.686035 
	C102.874878,106.720146 102.874878,102.092384 102.874878,97.168594 
	C101.233177,97.020561 99.703514,96.882637 97.854599,96.715919 
	C97.854599,92.262421 97.854599,88.168701 97.854599,84.106133 
	C92.833717,83.841949 89.190582,79.881073 89.065231,74.417847 
	C88.897194,67.093681 88.269218,59.656029 89.285614,52.471798 
	C89.977852,47.578758 93.062859,42.995735 95.275497,38.368557 
	C95.761658,37.351883 97.860092,36.768955 97.896545,35.929016 
	C98.138763,30.348082 98.022034,24.751570 98.022034,19.239948 
	C91.320992,19.239948 85.227646,19.239948 79.167183,19.239948 
	C79.006126,20.925993 78.870300,22.347885 78.741455,23.696751 
	C76.018875,23.696751 73.608925,23.696751 71.218048,23.696751 
	C71.058411,22.008402 70.925171,20.599262 70.794922,19.221771 
	C64.040451,19.221771 57.614056,19.221771 51.106148,19.221771 
	C51.007366,20.882977 50.922951,22.302645 50.838799,23.717798 
	C48.066780,23.717798 45.657276,23.717798 42.888756,23.717798 
	C42.888756,22.055527 42.888756,20.652647 42.888756,19.220989 
	C36.439754,19.220989 30.361971,19.220989 23.804234,19.220989 
	C25.223999,26.661386 21.536327,34.157158 27.746466,41.098572 
	C32.663826,46.594982 34.026699,54.170956 33.034641,61.849506 
	C32.674850,64.634300 32.976784,67.504593 32.976784,71.288094 
z"/>
<path fill="#F3F3F3" opacity="1.000000" stroke="none" 
	d="
M32.976784,70.811981 
	C32.976784,67.504593 32.674850,64.634300 33.034641,61.849506 
	C34.026699,54.170956 32.663826,46.594982 27.746466,41.098572 
	C21.536327,34.157158 25.223999,26.661386 23.804234,19.220989 
	C30.361971,19.220989 36.439754,19.220989 42.888756,19.220989 
	C42.888756,20.652647 42.888756,22.055527 42.888756,23.717798 
	C45.657276,23.717798 48.066780,23.717798 50.838799,23.717798 
	C50.922951,22.302645 51.007366,20.882977 51.106148,19.221771 
	C57.614056,19.221771 64.040451,19.221771 70.794922,19.221771 
	C70.925171,20.599262 71.058411,22.008402 71.218048,23.696751 
	C73.608925,23.696751 76.018875,23.696751 78.741455,23.696751 
	C78.870300,22.347885 79.006126,20.925993 79.167183,19.239948 
	C85.227646,19.239948 91.320992,19.239948 98.022034,19.239948 
	C98.022034,24.751570 98.138763,30.348082 97.896545,35.929016 
	C97.860092,36.768955 95.761658,37.351883 95.275497,38.368557 
	C93.062859,42.995735 89.977852,47.578758 89.285614,52.471798 
	C88.269218,59.656029 88.897194,67.093681 89.065231,74.417847 
	C89.190582,79.881073 92.833717,83.841949 97.854599,84.106133 
	C97.854599,88.168701 97.854599,92.262421 97.854599,96.715919 
	C99.703514,96.882637 101.233177,97.020561 102.874878,97.168594 
	C102.874878,102.092384 102.874878,106.720146 102.874878,111.686035 
	C75.175217,111.686035 47.445663,111.686035 19.346207,111.686035 
	C19.346207,107.248032 19.346207,102.507698 19.346207,97.339615 
	C20.519217,97.159081 22.046410,96.924042 23.925056,96.634911 
	C23.925056,92.551628 23.925056,88.443665 23.925056,84.392014 
	C30.169575,83.655899 32.972069,79.441002 32.976784,70.811981 
M83.391251,50.822731 
	C68.324928,50.822731 53.258602,50.822731 38.226482,50.822731 
	C38.226482,59.481945 38.226482,67.570831 38.226482,75.741425 
	C53.542446,75.741425 68.615738,75.741425 83.962791,75.741425 
	C83.962791,67.548073 83.962791,59.586239 83.391251,50.822731 
M88.453979,88.764397 
	C68.679581,88.764397 48.905190,88.764397 29.095871,88.764397 
	C29.095871,92.017441 29.095871,94.744255 29.095871,97.613579 
	C50.493481,97.613579 71.584373,97.613579 93.210182,97.613579 
	C93.210182,95.642464 93.019989,93.833138 93.251579,92.079514 
	C93.674095,88.880104 91.949478,88.442886 88.453979,88.764397 
M77.368927,48.153278 
	C85.422821,48.153011 86.384605,47.301975 88.661278,38.229210 
	C70.188095,38.229210 51.694279,38.229210 32.673546,38.229210 
	C33.536465,39.957188 34.423931,41.189339 34.787495,42.560410 
	C36.088753,47.467701 39.250774,48.446037 44.022808,48.274841 
	C54.804394,47.888054 65.609367,48.153278 77.368927,48.153278 
M79.280945,28.773283 
	C74.967918,28.773283 70.654892,28.773283 66.203674,28.773283 
	C65.802437,27.103771 65.442436,25.605814 65.110878,24.226236 
	C62.096664,24.226236 59.473408,24.226236 56.764126,24.226236 
	C56.445057,25.784601 56.156597,27.193455 55.877903,28.554636 
	C49.883945,28.554636 44.110630,28.554636 38.250008,28.554636 
	C38.017826,26.963968 37.816032,25.581491 37.635559,24.345074 
	C34.510277,24.345074 31.762867,24.345074 29.117153,24.345074 
	C29.117153,27.365881 29.117153,30.087210 29.117153,32.738556 
	C50.629486,32.738556 71.821541,32.738556 92.873833,32.738556 
	C92.873833,29.719042 92.873833,26.989511 92.873833,24.316534 
	C89.786858,24.316534 87.032318,24.316534 84.054054,24.316534 
	C84.459000,27.464037 83.789368,29.527086 79.280945,28.773283 
M63.500198,102.605057 
	C50.541534,102.605057 37.582870,102.605057 24.438616,102.605057 
	C24.438616,104.268326 24.438616,105.601196 24.438616,106.827209 
	C49.058090,106.827209 73.310760,106.827209 97.898155,106.827209 
	C97.821388,105.361435 97.757240,104.136566 97.677025,102.605042 
	C86.421249,102.605042 75.460732,102.605042 63.500198,102.605057 
M35.236824,83.055725 
	C36.694565,83.371124 38.150425,83.949493 39.610348,83.959946 
	C50.433033,84.037384 61.256531,84.001915 72.079773,84.001915 
	C76.953491,84.001915 81.827209,84.001915 86.765350,84.001915 
	C85.856941,79.303505 83.552315,77.963089 79.303604,78.070122 
	C66.989578,78.380333 54.660362,78.312088 42.342323,78.095589 
	C38.864033,78.034447 36.568691,78.840675 35.236824,83.055725 
z"/>
<path fill="#000000" opacity="1.000000" stroke="none" 
	d="
M83.677017,51.223568 
	C83.962791,59.586239 83.962791,67.548073 83.962791,75.741425 
	C68.615738,75.741425 53.542446,75.741425 38.226482,75.741425 
	C38.226482,67.570831 38.226482,59.481945 38.226482,50.822731 
	C53.258602,50.822731 68.324928,50.822731 83.677017,51.223568 
z"/>
<path fill="#070707" opacity="1.000000" stroke="none" 
	d="
M88.948006,88.764465 
	C91.949478,88.442886 93.674095,88.880104 93.251579,92.079514 
	C93.019989,93.833138 93.210182,95.642464 93.210182,97.613579 
	C71.584373,97.613579 50.493481,97.613579 29.095871,97.613579 
	C29.095871,94.744255 29.095871,92.017441 29.095871,88.764397 
	C48.905190,88.764397 68.679581,88.764397 88.948006,88.764465 
z"/>
<path fill="#010101" opacity="1.000000" stroke="none" 
	d="
M76.886879,48.153278 
	C65.609367,48.153278 54.804394,47.888054 44.022808,48.274841 
	C39.250774,48.446037 36.088753,47.467701 34.787495,42.560410 
	C34.423931,41.189339 33.536465,39.957188 32.673546,38.229210 
	C51.694279,38.229210 70.188095,38.229210 88.661278,38.229210 
	C86.384605,47.301975 85.422821,48.153011 76.886879,48.153278 
z"/>
<path fill="#040404" opacity="1.000000" stroke="none" 
	d="
M79.748474,28.773262 
	C83.789368,29.527086 84.459000,27.464037 84.054054,24.316534 
	C87.032318,24.316534 89.786858,24.316534 92.873833,24.316534 
	C92.873833,26.989511 92.873833,29.719042 92.873833,32.738556 
	C71.821541,32.738556 50.629486,32.738556 29.117153,32.738556 
	C29.117153,30.087210 29.117153,27.365881 29.117153,24.345074 
	C31.762867,24.345074 34.510277,24.345074 37.635559,24.345074 
	C37.816032,25.581491 38.017826,26.963968 38.250008,28.554636 
	C44.110630,28.554636 49.883945,28.554636 55.877903,28.554636 
	C56.156597,27.193455 56.445057,25.784601 56.764126,24.226236 
	C59.473408,24.226236 62.096664,24.226236 65.110878,24.226236 
	C65.442436,25.605814 65.802437,27.103771 66.203674,28.773283 
	C70.654892,28.773283 74.967918,28.773283 79.748474,28.773262 
z"/>
<path fill="#010101" opacity="1.000000" stroke="none" 
	d="
M64.000198,102.605049 
	C75.460732,102.605042 86.421249,102.605042 97.677025,102.605042 
	C97.757240,104.136566 97.821388,105.361435 97.898155,106.827209 
	C73.310760,106.827209 49.058090,106.827209 24.438616,106.827209 
	C24.438616,105.601196 24.438616,104.268326 24.438616,102.605057 
	C37.582870,102.605057 50.541534,102.605057 64.000198,102.605049 
z"/>
<path fill="#0D0D0D" opacity="1.000000" stroke="none" 
	d="
M35.432472,82.689423 
	C36.568691,78.840675 38.864033,78.034447 42.342323,78.095589 
	C54.660362,78.312088 66.989578,78.380333 79.303604,78.070122 
	C83.552315,77.963089 85.856941,79.303505 86.765350,84.001915 
	C81.827209,84.001915 76.953491,84.001915 72.079773,84.001915 
	C61.256531,84.001915 50.433033,84.037384 39.610348,83.959946 
	C38.150425,83.949493 36.694565,83.371124 35.432472,82.689423 
z"/>
</svg>