<svg version="1.1" id="Layer_1" xmlns="http://www.w3.org/2000/svg" xmlns:xlink="http://www.w3.org/1999/xlink" x="0px" y="0px"
	 width="100%" viewBox="0 0 120 120" enable-background="new 0 0 120 120" xml:space="preserve">
<path fill="#010101" opacity="1.000000" stroke="none" 
	d="
M76.000000,121.000000 
	C50.666668,121.000000 25.833334,121.000000 1.000000,121.000000 
	C1.000000,81.000000 1.000000,41.000000 1.000000,1.000000 
	C41.000000,1.000000 81.000000,1.000000 121.000000,1.000000 
	C121.000000,41.000000 121.000000,81.000000 121.000000,121.000000 
	C106.166664,121.000000 91.333336,121.000000 76.000000,121.000000 
M37.042732,79.327698 
	C36.339050,80.672676 35.635372,82.017647 34.779736,83.653061 
	C52.454868,83.653061 69.372856,83.653061 86.676041,83.653061 
	C85.808853,81.760368 85.138718,80.297745 83.822235,78.198509 
	C69.122643,78.135826 54.423054,78.061150 39.723408,78.045929 
	C38.989712,78.045181 38.255482,78.560402 37.042732,79.327698 
M97.361282,102.275635 
	C79.746307,102.184227 62.131367,102.085220 44.516338,102.005707 
	C38.697025,101.979431 32.875549,101.932472 27.060400,102.090927 
	C26.301649,102.111595 25.574900,103.306625 24.975134,104.826782 
	C26.111773,105.585014 27.244493,106.997787 28.385630,107.004623 
	C50.249954,107.135475 72.115295,107.086975 93.980362,107.118088 
	C96.874084,107.122208 98.445633,106.131088 97.361282,102.275635 
M28.437433,97.825363 
	C49.278950,97.881340 70.120468,97.945969 90.961990,97.951447 
	C91.585297,97.951607 92.208763,97.331749 92.959152,96.133186 
	C92.964813,93.800743 92.970474,91.468307 92.504944,88.416817 
	C91.855759,88.289803 91.206726,88.052681 90.557365,88.051765 
	C71.064705,88.024292 51.571983,88.006866 32.079391,88.047447 
	C30.982874,88.049728 29.887415,88.559509 28.222462,89.433075 
	C28.204254,91.955704 28.186049,94.478325 28.437433,97.825363 
M84.721245,47.736099 
	C86.213905,44.699112 87.706566,41.662125 89.376587,38.264275 
	C69.970528,38.264275 51.384628,38.264275 32.244049,38.264275 
	C34.300312,41.909702 36.065502,45.039101 38.536747,48.656303 
	C52.645813,48.764786 66.754814,48.891911 80.864082,48.945511 
	C81.964813,48.949692 83.067505,48.439579 84.721245,47.736099 
M37.988594,51.964275 
	C37.988594,59.882042 37.988594,67.799812 37.988594,75.694077 
	C53.698078,75.694077 68.619812,75.694077 83.882317,75.694077 
	C83.882317,67.277832 83.882317,59.158810 83.445892,50.314747 
	C68.852997,50.231384 54.260124,50.137959 39.667114,50.106110 
	C39.151321,50.104984 38.634193,50.714741 37.988594,51.964275 
M30.506687,25.015011 
	C25.310406,26.388643 29.069748,29.996519 28.106218,32.656532 
	C50.002110,32.656532 71.376534,32.656532 92.714981,32.656532 
	C92.714981,29.677801 92.714981,27.102293 92.714981,24.616596 
	C90.154945,24.892946 86.721626,24.270657 85.763977,25.530382 
	C80.149261,32.916164 72.728783,26.766232 66.734337,29.366899 
	C66.070641,27.298849 65.639511,25.955441 65.161400,24.465668 
	C61.694523,25.657873 58.673996,25.855875 55.308868,28.024368 
	C51.218372,30.660290 44.134197,28.650534 38.489563,28.650534 
	C38.023678,27.179794 37.599621,25.841112 37.235153,24.690529 
	C34.952110,24.812998 33.164635,24.908884 30.506687,25.015011 
z"/>
<path fill="#030ECA" opacity="1.000000" stroke="none" 
	d="
M83.882317,51.039783 
	C83.882317,59.158810 83.882317,67.277832 83.882317,75.694077 
	C68.619812,75.694077 53.698078,75.694077 37.988594,75.694077 
	C37.988594,67.799812 37.988594,59.882042 38.513668,51.487961 
	C53.986599,51.021023 68.934456,51.030403 83.882317,51.039783 
z"/>
<path fill="#030ECA" opacity="1.000000" stroke="none" 
	d="
M37.830688,48.168495 
	C36.065502,45.039101 34.300312,41.909702 32.244049,38.264275 
	C51.384628,38.264275 69.970528,38.264275 89.376587,38.264275 
	C87.706566,41.662125 86.213905,44.699112 83.965332,47.894310 
	C68.083183,48.091179 52.956936,48.129837 37.830688,48.168495 
z"/>
<path fill="#030ECA" opacity="1.000000" stroke="none" 
	d="
M92.976135,89.135864 
	C92.970474,91.468307 92.964813,93.800743 92.437943,96.566681 
	C70.667107,97.000435 49.417473,97.000694 28.167843,97.000954 
	C28.186049,94.478325 28.204254,91.955704 28.988586,89.190826 
	C50.828518,89.011002 71.902328,89.073433 92.976135,89.135864 
z"/>
<path fill="#030ECA" opacity="1.000000" stroke="none" 
	d="
M30.941925,25.009890 
	C33.164635,24.908884 34.952110,24.812998 37.235153,24.690529 
	C37.599621,25.841112 38.023678,27.179794 38.489563,28.650534 
	C44.134197,28.650534 51.218372,30.660290 55.308868,28.024368 
	C58.673996,25.855875 61.694523,25.657873 65.161400,24.465668 
	C65.639511,25.955441 66.070641,27.298849 66.734337,29.366899 
	C72.728783,26.766232 80.149261,32.916164 85.763977,25.530382 
	C86.721626,24.270657 90.154945,24.892946 92.714981,24.616596 
	C92.714981,27.102293 92.714981,29.677801 92.714981,32.656532 
	C71.376534,32.656532 50.002110,32.656532 28.106218,32.656532 
	C29.069748,29.996519 25.310406,26.388643 30.941925,25.009890 
z"/>
<path fill="#030ECA" opacity="1.000000" stroke="none" 
	d="
M97.805153,102.979729 
	C98.445633,106.131088 96.874084,107.122208 93.980362,107.118088 
	C72.115295,107.086975 50.249954,107.135475 28.385630,107.004623 
	C27.244493,106.997787 26.111773,105.585014 25.198292,104.069908 
	C27.408264,103.208961 29.394966,103.016853 31.381912,103.014297 
	C53.522968,102.985886 75.664070,102.986755 97.805153,102.979729 
z"/>
<path fill="#030ECA" opacity="1.000000" stroke="none" 
	d="
M84.468582,78.835114 
	C85.138718,80.297745 85.808853,81.760368 86.676041,83.653061 
	C69.372856,83.653061 52.454868,83.653061 34.779736,83.653061 
	C35.635372,82.017647 36.339050,80.672676 37.779282,79.149536 
	C53.833416,78.925957 69.151001,78.880531 84.468582,78.835114 
z"/>
<path fill="#777777" opacity="1.000000" stroke="none" 
	d="
M97.583221,102.627686 
	C75.664070,102.986755 53.522968,102.985886 31.381912,103.014297 
	C29.394966,103.016853 27.408264,103.208961 25.127388,103.635376 
	C25.574900,103.306625 26.301649,102.111595 27.060400,102.090927 
	C32.875549,101.932472 38.697025,101.979431 44.516338,102.005707 
	C62.131367,102.085220 79.746307,102.184227 97.583221,102.627686 
z"/>
<path fill="#C0C0C0" opacity="1.000000" stroke="none" 
	d="
M28.302639,97.413162 
	C49.417473,97.000694 70.667107,97.000435 92.374443,97.000565 
	C92.208763,97.331749 91.585297,97.951607 90.961990,97.951447 
	C70.120468,97.945969 49.278950,97.881340 28.302639,97.413162 
z"/>
<path fill="#555555" opacity="1.000000" stroke="none" 
	d="
M92.740540,88.776337 
	C71.902328,89.073433 50.828518,89.011002 29.273087,88.890839 
	C29.887415,88.559509 30.982874,88.049728 32.079391,88.047447 
	C51.571983,88.006866 71.064705,88.024292 90.557365,88.051765 
	C91.206726,88.052681 91.855759,88.289803 92.740540,88.776337 
z"/>
<path fill="#444444" opacity="1.000000" stroke="none" 
	d="
M38.183720,48.412399 
	C52.956936,48.129837 68.083183,48.091179 83.689354,48.110508 
	C83.067505,48.439579 81.964813,48.949692 80.864082,48.945511 
	C66.754814,48.891911 52.645813,48.764786 38.183720,48.412399 
z"/>
<path fill="#666666" opacity="1.000000" stroke="none" 
	d="
M83.664108,50.677265 
	C68.934456,51.030403 53.986599,51.021023 38.578217,51.025711 
	C38.634193,50.714741 39.151321,50.104984 39.667114,50.106110 
	C54.260124,50.137959 68.852997,50.231384 83.664108,50.677265 
z"/>
<path fill="#BBBBBB" opacity="1.000000" stroke="none" 
	d="
M84.145409,78.516815 
	C69.151001,78.880531 53.833416,78.925957 38.018661,78.903374 
	C38.255482,78.560402 38.989712,78.045181 39.723408,78.045929 
	C54.423054,78.061150 69.122643,78.135826 84.145409,78.516815 
z"/>
</svg>