<svg version="1.1" id="Layer_1" xmlns="http://www.w3.org/2000/svg" xmlns:xlink="http://www.w3.org/1999/xlink" x="0px" y="0px"
	 width="100%" viewBox="0 0 120 120" enable-background="new 0 0 120 120" xml:space="preserve">
<path fill="#010101" opacity="1.000000" stroke="none" 
	d="
M78.000000,121.000000 
	C52.000000,121.000000 26.500000,121.000000 1.000000,121.000000 
	C1.000000,81.000000 1.000000,41.000000 1.000000,1.000000 
	C41.000000,1.000000 81.000000,1.000000 121.000000,1.000000 
	C121.000000,41.000000 121.000000,81.000000 121.000000,121.000000 
	C106.833336,121.000000 92.666664,121.000000 78.000000,121.000000 
M83.220062,51.317078 
	C80.661392,38.139217 75.281296,27.136385 60.862259,23.682354 
	C57.015530,22.760885 52.944653,22.819359 53.304615,17.562138 
	C50.653751,19.501856 48.482285,22.250380 46.027035,22.532928 
	C43.934811,22.773701 41.516094,20.177340 40.404015,19.521496 
	C39.309612,22.479710 38.449139,25.763855 36.934509,28.711912 
	C33.086018,36.202583 28.817133,43.478237 25.014286,50.990685 
	C24.114540,52.768116 23.878353,55.245464 24.289080,57.200851 
	C24.588554,58.626591 26.265142,60.157978 27.700527,60.774456 
	C28.363529,61.059204 29.895269,59.239876 31.074375,58.434952 
	C31.773672,57.957577 32.753143,57.103859 33.248856,57.304279 
	C33.946613,57.586391 34.627537,58.646450 34.737549,59.452732 
	C34.864536,60.383434 34.362930,61.399902 34.134277,62.379131 
	C41.246449,52.347748 55.377232,49.409878 59.809540,36.637283 
	C60.091537,39.367882 59.013458,41.822071 59.117859,44.224880 
	C59.545063,54.056934 54.897270,61.149883 48.101624,67.657372 
	C45.259258,70.379211 43.771458,74.515602 41.280804,78.651474 
	C56.768406,78.651474 70.681305,78.651474 85.591072,78.651474 
	C84.907005,69.520012 84.253937,60.802307 83.220062,51.317078 
M87.389854,101.003014 
	C92.169685,101.490051 96.949516,101.977097 101.729347,102.464142 
	C101.892746,101.926048 102.056145,101.387947 102.219551,100.849854 
	C98.824799,99.899300 95.482590,98.474419 92.024971,98.091484 
	C83.353645,97.131111 74.624214,96.706764 65.931839,95.916321 
	C63.908154,95.732300 61.606457,94.015297 59.999466,94.589600 
	C50.106560,98.125092 39.875019,97.694603 29.662819,98.147980 
	C26.404928,98.292610 23.224829,100.189415 20.009134,101.284500 
	C34.062527,101.341690 47.641525,99.895264 61.253296,99.449615 
	C69.615273,99.175842 78.027382,100.433189 87.389854,101.003014 
M59.676311,89.742744 
	C72.682579,89.539276 77.633026,87.877975 78.959328,83.510666 
	C66.757988,83.510666 54.480995,83.510666 42.204002,83.510666 
	C42.074093,83.932503 41.944180,84.354332 41.814266,84.776169 
	C43.731621,85.816788 45.540653,87.283653 47.590103,87.804497 
	C51.247368,88.733925 55.049805,89.092102 59.676311,89.742744 
z"/>
<path fill="#040FC9" opacity="1.000000" stroke="none" 
	d="
M83.410461,51.700836 
	C84.253937,60.802307 84.907005,69.520012 85.591072,78.651474 
	C70.681305,78.651474 56.768406,78.651474 41.280804,78.651474 
	C43.771458,74.515602 45.259258,70.379211 48.101624,67.657372 
	C54.897270,61.149883 59.545063,54.056934 59.117859,44.224880 
	C59.013458,41.822071 60.091537,39.367882 59.809540,36.637283 
	C55.377232,49.409878 41.246449,52.347748 34.134277,62.379131 
	C34.362930,61.399902 34.864536,60.383434 34.737549,59.452732 
	C34.627537,58.646450 33.946613,57.586391 33.248856,57.304279 
	C32.753143,57.103859 31.773672,57.957577 31.074375,58.434952 
	C29.895269,59.239876 28.363529,61.059204 27.700527,60.774456 
	C26.265142,60.157978 24.588554,58.626591 24.289080,57.200851 
	C23.878353,55.245464 24.114540,52.768116 25.014286,50.990685 
	C28.817133,43.478237 33.086018,36.202583 36.934509,28.711912 
	C38.449139,25.763855 39.309612,22.479710 40.404015,19.521496 
	C41.516094,20.177340 43.934811,22.773701 46.027035,22.532928 
	C48.482285,22.250380 50.653751,19.501856 53.304615,17.562138 
	C52.944653,22.819359 57.015530,22.760885 60.862259,23.682354 
	C75.281296,27.136385 80.661392,38.139217 83.410461,51.700836 
M37.739304,35.778118 
	C41.652073,36.688797 41.972935,33.478279 42.833984,31.119963 
	C42.997223,30.672863 41.878407,29.757671 41.351135,29.058458 
	C39.913258,30.613365 38.436974,32.136009 37.076214,33.755703 
	C36.855591,34.018307 37.147415,34.711437 37.739304,35.778118 
z"/>
<path fill="#0510C8" opacity="1.000000" stroke="none" 
	d="
M86.903412,101.003006 
	C78.027382,100.433189 69.615273,99.175842 61.253296,99.449615 
	C47.641525,99.895264 34.062527,101.341690 20.009134,101.284500 
	C23.224829,100.189415 26.404928,98.292610 29.662819,98.147980 
	C39.875019,97.694603 50.106560,98.125092 59.999466,94.589600 
	C61.606457,94.015297 63.908154,95.732300 65.931839,95.916321 
	C74.624214,96.706764 83.353645,97.131111 92.024971,98.091484 
	C95.482590,98.474419 98.824799,99.899300 102.219551,100.849854 
	C102.056145,101.387947 101.892746,101.926048 101.729347,102.464142 
	C96.949516,101.977097 92.169685,101.490051 86.903412,101.003006 
z"/>
<path fill="#0610C7" opacity="1.000000" stroke="none" 
	d="
M59.233925,89.715942 
	C55.049805,89.092102 51.247368,88.733925 47.590103,87.804497 
	C45.540653,87.283653 43.731621,85.816788 41.814266,84.776169 
	C41.944180,84.354332 42.074093,83.932503 42.204002,83.510666 
	C54.480995,83.510666 66.757988,83.510666 78.959328,83.510666 
	C77.633026,87.877975 72.682579,89.539276 59.233925,89.715942 
z"/>
<path fill="#070709" opacity="1.000000" stroke="none" 
	d="
M37.470837,35.491840 
	C37.147415,34.711437 36.855591,34.018307 37.076214,33.755703 
	C38.436974,32.136009 39.913258,30.613365 41.351135,29.058460 
	C41.878407,29.757671 42.997223,30.672863 42.833984,31.119963 
	C41.972935,33.478279 41.652073,36.688797 37.470837,35.491840 
z"/>
</svg>