<?xml version="1.0" standalone="no"?>
<!DOCTYPE svg PUBLIC "-//W3C//DTD SVG 20010904//EN"
 "http://www.w3.org/TR/2001/REC-SVG-20010904/DTD/svg10.dtd">
<svg version="1.0" xmlns="http://www.w3.org/2000/svg"
 width="120.000000pt" height="120.000000pt" viewBox="0 0 120.000000 120.000000"
 preserveAspectRatio="xMidYMid meet">

<g transform="translate(0.000000,120.000000) scale(0.100000,-0.100000)"
fill="#000000" stroke="none">
<path d="M433 1025 c17 -19 17 -19 35 0 16 18 16 18 0 6 -15 -11 -21 -11 -35
0 -17 12 -17 12 0 -6z"/>
<path d="M387 998 c5 -31 1 -44 -22 -74 -15 -19 -52 -83 -82 -141 -44 -85 -54
-113 -49 -137 9 -46 49 -64 59 -26 3 12 14 20 27 20 20 0 22 -4 17 -30 l-6
-30 43 43 c23 23 75 71 115 106 48 43 74 73 78 93 7 34 29 32 26 -3 -6 -74
-24 -162 -37 -188 -9 -16 -41 -56 -71 -89 -32 -35 -58 -73 -61 -91 l-6 -31
211 0 211 0 0 83 c0 150 -34 291 -91 373 -32 47 -106 89 -176 100 -32 5 -43
11 -43 25 0 29 -18 32 -36 4 -22 -34 -62 -33 -91 3 l-22 27 6 -37z m33 -97 c0
-26 -34 -66 -48 -57 -26 16 -4 76 28 76 13 0 20 -7 20 -19z m-120 -221 c0 -21
-33 -29 -45 -10 -9 15 4 30 26 30 12 0 19 -7 19 -20z"/>
<path d="M730 947 c0 -2 15 -16 33 -33 l32 -29 -29 33 c-28 30 -36 37 -36 29z"/>
<path d="M479 673 c-13 -16 -12 -17 4 -4 16 13 21 21 13 21 -2 0 -10 -8 -17
-17z"/>
<path d="M871 644 c0 -11 3 -14 6 -6 3 7 2 16 -1 19 -3 4 -6 -2 -5 -13z"/>
<path d="M399 613 c-13 -16 -12 -17 4 -4 9 7 17 15 17 17 0 8 -8 3 -21 -13z"/>
<path d="M883 535 c0 -22 2 -30 4 -17 2 12 2 30 0 40 -3 9 -5 -1 -4 -23z"/>
<path d="M416 366 c11 -29 67 -41 184 -41 117 0 173 12 184 41 4 12 -25 14
-184 14 -159 0 -188 -2 -184 -14z"/>
<path d="M373 273 c15 -2 39 -2 55 0 15 2 2 4 -28 4 -30 0 -43 -2 -27 -4z"/>
<path d="M773 273 c15 -2 39 -2 55 0 15 2 2 4 -28 4 -30 0 -43 -2 -27 -4z"/>
<path d="M561 254 c-21 -10 -88 -18 -175 -23 -79 -4 -151 -13 -164 -20 -13 -7
-22 -14 -20 -15 7 -6 364 11 376 18 6 4 38 2 69 -3 32 -6 127 -12 211 -14 136
-4 150 -2 131 11 -14 10 -66 17 -169 23 -94 5 -162 14 -185 23 -21 9 -38 16
-39 15 0 0 -16 -7 -35 -15z"/>
<path d="M1035 220 c10 -11 20 -20 23 -20 3 0 -3 9 -13 20 -10 11 -20 20 -23
20 -3 0 3 -9 13 -20z"/>
<path d="M548 163 c7 -3 16 -2 19 1 4 3 -2 6 -13 5 -11 0 -14 -3 -6 -6z"/>
<path d="M638 163 c7 -3 16 -2 19 1 4 3 -2 6 -13 5 -11 0 -14 -3 -6 -6z"/>
</g>
</svg>
