<svg version="1.1" id="Layer_1" xmlns="http://www.w3.org/2000/svg" xmlns:xlink="http://www.w3.org/1999/xlink" x="0px" y="0px"
	 width="100%" viewBox="0 0 120 120" enable-background="new 0 0 120 120" xml:space="preserve">
<path fill="#010101" opacity="1.000000" stroke="none" 
	d="
M78.000000,121.000000 
	C52.000000,121.000000 26.500000,121.000000 1.000000,121.000000 
	C1.000000,81.000000 1.000000,41.000000 1.000000,1.000000 
	C41.000000,1.000000 81.000000,1.000000 121.000000,1.000000 
	C121.000000,41.000000 121.000000,81.000000 121.000000,121.000000 
	C106.833336,121.000000 92.666664,121.000000 78.000000,121.000000 
M28.983809,42.481644 
	C27.328350,47.071091 25.377697,51.587910 24.218504,56.299454 
	C23.916924,57.525234 25.859177,59.651394 27.258169,60.734585 
	C27.676846,61.058762 29.739267,59.235111 31.065113,58.422398 
	C31.788530,57.978954 32.739292,57.101395 33.241913,57.298943 
	C33.927555,57.568424 34.602528,58.638367 34.697975,59.435104 
	C34.810463,60.373989 34.298679,61.387661 34.057571,62.368908 
	C41.308689,52.352921 55.209305,49.197227 59.918785,36.622879 
	C60.109966,39.454708 59.029804,41.991501 59.111862,44.490124 
	C59.420311,53.882282 55.204155,60.825325 48.632301,67.100891 
	C45.586327,70.009529 43.752090,74.187134 40.759811,78.709396 
	C56.419830,78.709396 70.447891,78.709396 85.966286,78.709396 
	C84.771568,68.015495 84.360970,57.608604 82.289108,47.543686 
	C79.843231,35.661819 73.389893,26.246281 60.513344,23.585926 
	C56.560078,22.769165 53.315765,22.158951 53.303185,17.550745 
	C50.744667,19.467928 48.588081,22.287748 46.164440,22.539812 
	C44.015789,22.763279 41.570362,20.133125 39.903446,19.146090 
	C39.426849,21.589165 39.465866,24.605629 38.247097,26.975153 
	C35.611755,32.098782 32.331696,36.890793 28.983809,42.481644 
M87.390350,101.001892 
	C92.170990,101.486732 96.951622,101.971573 101.732262,102.456413 
	C101.007515,100.917213 100.005119,99.728432 98.766846,99.381470 
	C96.259193,98.678825 93.631233,98.115685 91.039589,98.054062 
	C81.158943,97.819130 71.201477,98.408508 61.796040,94.375580 
	C61.280937,94.154709 60.499046,94.263924 59.941044,94.478622 
	C50.131184,98.253090 39.846149,97.708504 29.625101,98.148643 
	C26.388123,98.288033 23.227081,100.190910 20.031290,101.286766 
	C27.702335,101.654099 34.916607,101.444695 42.113064,100.966988 
	C48.500607,100.542976 54.872734,99.304741 61.243805,99.358459 
	C69.639023,99.429253 78.026550,100.411514 87.390350,101.001892 
M50.608025,82.996048 
	C47.791786,82.996048 44.975544,82.996048 42.159306,82.996048 
	C42.131989,83.606316 42.104668,84.216591 42.077351,84.826859 
	C50.947388,91.168274 61.142231,89.838814 71.122643,88.612762 
	C74.169777,88.238434 78.342415,87.873306 79.356850,82.996048 
	C69.829903,82.996048 60.706062,82.996048 50.608025,82.996048 
z"/>
<path fill="#CB0101" opacity="1.000000" stroke="none" 
	d="
M29.149580,42.150047 
	C32.331696,36.890793 35.611755,32.098782 38.247097,26.975153 
	C39.465866,24.605629 39.426849,21.589165 39.903446,19.146090 
	C41.570362,20.133125 44.015789,22.763279 46.164440,22.539812 
	C48.588081,22.287748 50.744667,19.467928 53.303185,17.550745 
	C53.315765,22.158951 56.560078,22.769165 60.513344,23.585926 
	C73.389893,26.246281 79.843231,35.661819 82.289108,47.543686 
	C84.360970,57.608604 84.771568,68.015495 85.966286,78.709396 
	C70.447891,78.709396 56.419830,78.709396 40.759811,78.709396 
	C43.752090,74.187134 45.586327,70.009529 48.632301,67.100891 
	C55.204155,60.825325 59.420311,53.882282 59.111862,44.490124 
	C59.029804,41.991501 60.109966,39.454708 59.918785,36.622879 
	C55.209305,49.197227 41.308689,52.352921 34.057571,62.368908 
	C34.298679,61.387661 34.810463,60.373989 34.697975,59.435104 
	C34.602528,58.638367 33.927555,57.568424 33.241913,57.298943 
	C32.739292,57.101395 31.788530,57.978954 31.065113,58.422398 
	C29.739267,59.235111 27.676846,61.058762 27.258169,60.734585 
	C25.859177,59.651394 23.916924,57.525234 24.218504,56.299454 
	C25.377697,51.587910 27.328350,47.071091 29.149580,42.150047 
M42.934326,31.344099 
	C42.010464,30.606430 41.086601,29.868763 40.162739,29.131096 
	C39.120140,30.677828 37.943401,32.158997 37.132133,33.818798 
	C36.936783,34.218479 38.249424,35.878349 38.365871,35.826641 
	C39.572456,35.290833 40.736488,34.600441 41.780807,33.784626 
	C42.250137,33.417988 42.422974,32.671814 42.934326,31.344099 
z"/>
<path fill="#CA0202" opacity="1.000000" stroke="none" 
	d="
M86.903870,101.001892 
	C78.026550,100.411514 69.639023,99.429253 61.243805,99.358459 
	C54.872734,99.304741 48.500607,100.542976 42.113064,100.966988 
	C34.916607,101.444695 27.702335,101.654099 20.031290,101.286766 
	C23.227081,100.190910 26.388123,98.288033 29.625101,98.148643 
	C39.846149,97.708504 50.131184,98.253090 59.941044,94.478622 
	C60.499046,94.263924 61.280937,94.154709 61.796040,94.375580 
	C71.201477,98.408508 81.158943,97.819130 91.039589,98.054062 
	C93.631233,98.115685 96.259193,98.678825 98.766846,99.381470 
	C100.005119,99.728432 101.007515,100.917213 101.732262,102.456413 
	C96.951622,101.971573 92.170990,101.486732 86.903870,101.001892 
z"/>
<path fill="#CA0202" opacity="1.000000" stroke="none" 
	d="
M51.095123,82.996048 
	C60.706062,82.996048 69.829903,82.996048 79.356850,82.996048 
	C78.342415,87.873306 74.169777,88.238434 71.122643,88.612762 
	C61.142231,89.838814 50.947388,91.168274 42.077351,84.826859 
	C42.104668,84.216591 42.131989,83.606316 42.159306,82.996048 
	C44.975544,82.996048 47.791786,82.996048 51.095123,82.996048 
z"/>
<path fill="#090707" opacity="1.000000" stroke="none" 
	d="
M42.832336,31.720978 
	C42.422974,32.671814 42.250137,33.417988 41.780807,33.784626 
	C40.736488,34.600441 39.572456,35.290833 38.365871,35.826641 
	C38.249424,35.878349 36.936783,34.218479 37.132133,33.818798 
	C37.943401,32.158997 39.120140,30.677828 40.162739,29.131096 
	C41.086601,29.868763 42.010464,30.606430 42.832336,31.720978 
z"/>
</svg>