<svg version="1.1" id="Layer_1" xmlns="http://www.w3.org/2000/svg" xmlns:xlink="http://www.w3.org/1999/xlink" x="0px" y="0px"
	 width="100%" viewBox="0 0 120 120" enable-background="new 0 0 120 120" xml:space="preserve">
<path fill="#010101" opacity="1.000000" stroke="none" 
	d="
M69.000000,121.000000 
	C46.000000,121.000000 23.500000,121.000000 1.000000,121.000000 
	C1.000000,81.000000 1.000000,41.000000 1.000000,1.000000 
	C41.000000,1.000000 81.000000,1.000000 121.000000,1.000000 
	C121.000000,41.000000 121.000000,81.000000 121.000000,121.000000 
	C103.833336,121.000000 86.666664,121.000000 69.000000,121.000000 
M56.938053,66.445961 
	C53.666782,67.149002 50.256767,68.788071 47.157806,68.328705 
	C42.852356,67.690506 39.103344,67.728340 34.905254,69.185013 
	C30.392517,70.750847 25.418737,70.987968 20.655752,71.803215 
	C21.721544,78.483719 25.389952,81.588829 30.235790,79.931572 
	C50.269238,73.080215 70.415291,73.594482 90.426857,79.607864 
	C95.277328,81.065414 97.815811,79.838074 100.019760,75.966957 
	C100.502480,75.119102 101.094269,74.333344 102.161949,72.727837 
	C100.119576,72.064507 98.442505,71.360268 96.694786,70.985817 
	C93.189987,70.234917 89.660347,69.571198 86.115051,69.046532 
	C82.867332,68.565910 79.574768,68.393524 76.321404,67.944489 
	C72.218933,67.378265 68.148552,66.568596 64.039833,66.063080 
	C61.911369,65.801201 59.730053,65.968910 56.938053,66.445961 
M77.482628,87.984825 
	C80.809860,88.925888 84.157074,89.802574 87.458389,90.827156 
	C90.415245,91.744843 91.747002,90.137726 92.702629,87.752846 
	C93.905685,84.750481 91.400139,84.281563 89.696663,83.975220 
	C81.363647,82.476654 73.028633,80.761292 64.614853,79.993645 
	C52.288948,78.869064 40.340816,81.503395 28.512815,84.852295 
	C30.754124,91.775192 30.947382,91.939438 37.005997,89.951317 
	C50.039082,85.674522 63.214767,84.549500 77.482628,87.984825 
M32.546185,96.121841 
	C31.829134,97.619141 31.112080,99.116432 29.877619,101.694138 
	C51.048565,94.764793 71.240677,95.899010 91.789787,101.401924 
	C89.814507,96.163300 88.993729,95.273941 84.391335,94.059174 
	C67.155815,89.509964 50.050900,89.362404 32.546185,96.121841 
M82.681068,103.955956 
	C66.015625,100.124237 49.534004,100.773354 32.624813,105.614883 
	C41.084171,110.698639 83.879272,110.311333 88.628983,105.482239 
	C86.912842,104.970352 85.196701,104.458458 82.681068,103.955956 
M86.999931,40.667236 
	C86.634216,37.461811 86.268494,34.256386 85.902779,31.050962 
	C85.596855,31.039583 85.290932,31.028204 84.985008,31.016825 
	C81.290779,41.786449 77.596558,52.556076 74.001457,63.036728 
	C78.663292,63.036728 83.032928,63.036728 88.075287,63.036728 
	C87.739342,56.341473 87.369812,48.976940 86.999931,40.667236 
M35.142410,35.381954 
	C35.248764,37.270744 35.539459,39.170361 35.429310,41.046440 
	C34.971912,48.836651 34.393570,56.619762 33.937195,63.274277 
	C38.986767,63.274277 43.281464,63.274277 48.209133,63.274277 
	C44.431343,52.324318 40.635822,41.322964 36.840298,30.321608 
	C36.395802,30.369381 35.951309,30.417152 35.506813,30.464926 
	C35.349922,31.832701 35.193035,33.200474 35.142410,35.381954 
M58.870678,39.223530 
	C57.365570,46.663906 55.860458,54.104286 54.137157,62.623276 
	C58.555386,60.242146 62.610847,57.336151 66.700653,62.916504 
	C66.933861,62.411949 67.167068,61.907394 67.400276,61.402840 
	C65.524017,50.465374 63.647762,39.527912 61.771507,28.590450 
	C61.373417,28.568968 60.975327,28.547485 60.577236,28.526003 
	C60.028675,31.805346 59.480118,35.084690 58.870678,39.223530 
M21.282522,53.277195 
	C19.760098,50.068447 18.237673,46.859699 16.715248,43.650951 
	C16.243120,43.737610 15.770992,43.824265 15.298864,43.910923 
	C16.181921,51.914684 17.064978,59.918442 17.918074,67.650642 
	C21.450047,66.780556 24.075474,66.133797 27.142412,65.378265 
	C25.314068,61.555584 23.488935,57.739613 21.282522,53.277195 
M99.039894,56.608028 
	C97.677582,59.534573 96.315269,62.461117 94.965607,65.360489 
	C98.100189,66.173790 100.859512,66.889725 103.817856,67.657295 
	C104.767227,59.870216 105.714142,52.103382 106.661049,44.336544 
	C106.273727,44.225876 105.886406,44.115208 105.499084,44.004539 
	C103.492599,48.000130 101.486122,51.995716 99.039894,56.608028 
M57.677372,12.982753 
	C59.479992,13.431678 61.282612,13.880602 63.085228,14.329526 
	C63.419373,12.900496 64.486534,10.723969 63.942497,10.190469 
	C62.609894,8.883670 60.533615,8.335234 58.538059,7.376657 
	C58.009518,9.771688 57.734035,11.020019 57.677372,12.982753 
M37.875717,17.226498 
	C37.509876,12.715112 34.677189,12.712412 30.323278,13.483901 
	C31.161648,15.702301 31.384007,18.045134 32.657879,19.035669 
	C33.486961,19.680344 35.846306,18.357037 37.875717,17.226498 
M8.482403,23.030642 
	C8.316550,24.732939 7.612511,26.668436 8.207308,28.041140 
	C8.514000,28.748936 11.244518,28.852028 12.655277,28.446722 
	C13.354056,28.245968 14.191400,25.534241 13.851890,25.238764 
	C12.491965,24.055227 10.695608,23.373163 8.482403,23.030642 
M108.069618,24.868715 
	C109.062546,26.227102 109.807823,28.115835 111.143761,28.739666 
	C111.912308,29.098547 114.172440,27.681665 114.748390,26.549105 
	C115.150139,25.759094 113.961151,23.113806 113.259216,23.022896 
	C111.715073,22.822905 110.029335,23.716215 108.069618,24.868715 
M85.051041,14.456558 
	C85.334427,16.085545 85.398605,17.815634 86.067841,19.266666 
	C86.219772,19.596100 89.013657,19.402325 89.621826,18.657555 
	C90.462578,17.627960 90.384270,15.847872 90.699554,14.389189 
	C89.002678,14.231793 87.305794,14.074398 85.051041,14.456558 
z"/>
<path fill="#030ECA" opacity="1.000000" stroke="none" 
	d="
M57.255333,66.194244 
	C59.730053,65.968910 61.911369,65.801201 64.039833,66.063080 
	C68.148552,66.568596 72.218933,67.378265 76.321404,67.944489 
	C79.574768,68.393524 82.867332,68.565910 86.115051,69.046532 
	C89.660347,69.571198 93.189987,70.234917 96.694786,70.985817 
	C98.442505,71.360268 100.119576,72.064507 102.161949,72.727837 
	C101.094269,74.333344 100.502480,75.119102 100.019760,75.966957 
	C97.815811,79.838074 95.277328,81.065414 90.426857,79.607864 
	C70.415291,73.594482 50.269238,73.080215 30.235790,79.931572 
	C25.389952,81.588829 21.721544,78.483719 20.655752,71.803215 
	C25.418737,70.987968 30.392517,70.750847 34.905254,69.185013 
	C39.103344,67.728340 42.852356,67.690506 47.157806,68.328705 
	C50.256767,68.788071 53.666782,67.149002 57.255333,66.194244 
z"/>
<path fill="#050FC8" opacity="1.000000" stroke="none" 
	d="
M77.057198,87.946815 
	C63.214767,84.549500 50.039082,85.674522 37.005997,89.951317 
	C30.947382,91.939438 30.754124,91.775192 28.512815,84.852295 
	C40.340816,81.503395 52.288948,78.869064 64.614853,79.993645 
	C73.028633,80.761292 81.363647,82.476654 89.696663,83.975220 
	C91.400139,84.281563 93.905685,84.750481 92.702629,87.752846 
	C91.747002,90.137726 90.415245,91.744843 87.458389,90.827156 
	C84.157074,89.802574 80.809860,88.925888 77.057198,87.946815 
z"/>
<path fill="#040FC9" opacity="1.000000" stroke="none" 
	d="
M32.866371,95.977310 
	C50.050900,89.362404 67.155815,89.509964 84.391335,94.059174 
	C88.993729,95.273941 89.814507,96.163300 91.789787,101.401924 
	C71.240677,95.899010 51.048565,94.764793 29.877619,101.694138 
	C31.112080,99.116432 31.829134,97.619141 32.866371,95.977310 
z"/>
<path fill="#040FC9" opacity="1.000000" stroke="none" 
	d="
M83.080811,103.951263 
	C85.196701,104.458458 86.912842,104.970352 88.628830,105.482635 
	C83.879272,110.311333 41.084171,110.698639 32.624813,105.614883 
	C49.534004,100.773354 66.015625,100.124237 83.080811,103.951263 
z"/>
<path fill="#050FC8" opacity="1.000000" stroke="none" 
	d="
M87.000107,41.139820 
	C87.369812,48.976940 87.739342,56.341473 88.075287,63.036728 
	C83.032928,63.036728 78.663292,63.036728 74.001457,63.036728 
	C77.596558,52.556076 81.290779,41.786449 84.985008,31.016825 
	C85.290932,31.028204 85.596855,31.039583 85.902779,31.050962 
	C86.268494,34.256386 86.634216,37.461811 87.000107,41.139820 
z"/>
<path fill="#040FC9" opacity="1.000000" stroke="none" 
	d="
M35.089279,34.975101 
	C35.193035,33.200474 35.349922,31.832701 35.506813,30.464926 
	C35.951309,30.417152 36.395802,30.369381 36.840298,30.321608 
	C40.635822,41.322964 44.431343,52.324318 48.209133,63.274277 
	C43.281464,63.274277 38.986767,63.274277 33.937195,63.274277 
	C34.393570,56.619762 34.971912,48.836651 35.429310,41.046440 
	C35.539459,39.170361 35.248764,37.270744 35.089279,34.975101 
z"/>
<path fill="#040FC9" opacity="1.000000" stroke="none" 
	d="
M58.901115,38.793781 
	C59.480118,35.084690 60.028675,31.805346 60.577236,28.526003 
	C60.975327,28.547485 61.373417,28.568968 61.771507,28.590450 
	C63.647762,39.527912 65.524017,50.465374 67.400276,61.402840 
	C67.167068,61.907394 66.933861,62.411949 66.700653,62.916504 
	C62.610847,57.336151 58.555386,60.242146 54.137157,62.623276 
	C55.860458,54.104286 57.365570,46.663906 58.901115,38.793781 
z"/>
<path fill="#030ECA" opacity="1.000000" stroke="none" 
	d="
M21.473164,53.600418 
	C23.488935,57.739613 25.314068,61.555584 27.142412,65.378265 
	C24.075474,66.133797 21.450047,66.780556 17.918074,67.650642 
	C17.064978,59.918442 16.181921,51.914684 15.298864,43.910923 
	C15.770992,43.824265 16.243120,43.737610 16.715248,43.650951 
	C18.237673,46.859699 19.760098,50.068447 21.473164,53.600418 
z"/>
<path fill="#030ECA" opacity="1.000000" stroke="none" 
	d="
M99.259766,56.299667 
	C101.486122,51.995716 103.492599,48.000130 105.499084,44.004539 
	C105.886406,44.115208 106.273727,44.225876 106.661049,44.336544 
	C105.714142,52.103382 104.767227,59.870216 103.817856,67.657295 
	C100.859512,66.889725 98.100189,66.173790 94.965607,65.360489 
	C96.315269,62.461117 97.677582,59.534573 99.259766,56.299667 
z"/>
<path fill="#030ECA" opacity="1.000000" stroke="none" 
	d="
M57.567963,12.625550 
	C57.734035,11.020019 58.009518,9.771688 58.538059,7.376657 
	C60.533615,8.335234 62.609894,8.883670 63.942497,10.190469 
	C64.486534,10.723969 63.419373,12.900496 63.085228,14.329527 
	C61.282612,13.880602 59.479992,13.431678 57.567963,12.625550 
z"/>
<path fill="#030ECA" opacity="1.000000" stroke="none" 
	d="
M37.697906,17.570940 
	C35.846306,18.357037 33.486961,19.680344 32.657879,19.035669 
	C31.384007,18.045134 31.161648,15.702301 30.323278,13.483901 
	C34.677189,12.712412 37.509876,12.715112 37.697906,17.570940 
z"/>
<path fill="#0510C7" opacity="1.000000" stroke="none" 
	d="
M8.771532,22.768139 
	C10.695608,23.373163 12.491965,24.055227 13.851890,25.238764 
	C14.191400,25.534241 13.354056,28.245968 12.655277,28.446722 
	C11.244518,28.852028 8.514000,28.748936 8.207308,28.041140 
	C7.612511,26.668436 8.316550,24.732939 8.771532,22.768139 
z"/>
<path fill="#0610C8" opacity="1.000000" stroke="none" 
	d="
M108.235504,24.515995 
	C110.029335,23.716215 111.715073,22.822905 113.259216,23.022896 
	C113.961151,23.113806 115.150139,25.759094 114.748390,26.549105 
	C114.172440,27.681665 111.912308,29.098547 111.143761,28.739666 
	C109.807823,28.115835 109.062546,26.227102 108.235504,24.515995 
z"/>
<path fill="#030ECA" opacity="1.000000" stroke="none" 
	d="
M85.329979,14.186781 
	C87.305794,14.074398 89.002678,14.231793 90.699554,14.389189 
	C90.384270,15.847872 90.462578,17.627960 89.621826,18.657555 
	C89.013657,19.402325 86.219772,19.596100 86.067841,19.266666 
	C85.398605,17.815634 85.334427,16.085545 85.329979,14.186781 
z"/>
</svg>