<svg version="1.1" id="Layer_1" xmlns="http://www.w3.org/2000/svg" xmlns:xlink="http://www.w3.org/1999/xlink" x="0px" y="0px"
	 width="100%" viewBox="0 0 120 120" enable-background="new 0 0 120 120" xml:space="preserve">
<path fill="#000000" opacity="1.000000" stroke="none" 
	d="
M67.000000,121.000000 
	C44.666668,121.000000 22.833334,121.000000 1.000000,121.000000 
	C1.000000,81.000000 1.000000,41.000000 1.000000,1.000000 
	C41.000000,1.000000 81.000000,1.000000 121.000000,1.000000 
	C121.000000,41.000000 121.000000,81.000000 121.000000,121.000000 
	C103.166664,121.000000 85.333336,121.000000 67.000000,121.000000 
M12.155507,84.704964 
	C14.436083,85.709404 17.623205,86.092209 18.821056,87.839081 
	C21.957441,92.413010 25.005268,93.298355 29.032404,89.438133 
	C30.665028,87.873177 32.172600,86.077515 33.343376,84.147949 
	C39.070316,74.709412 46.783310,67.995697 58.139515,65.730278 
	C57.915131,66.821449 57.723492,67.921188 57.461006,69.003754 
	C55.032017,79.021500 47.930492,86.125481 41.679878,93.651695 
	C36.608009,99.758606 35.013412,106.323792 36.388893,114.012474 
	C61.323521,114.012474 85.965668,113.949760 110.606773,114.080948 
	C114.249611,114.100349 115.412079,112.715103 115.018066,109.367722 
	C114.332062,103.539734 113.402809,97.723549 113.068909,91.874252 
	C112.232719,77.225861 109.139229,63.033360 103.900871,49.427563 
	C98.598946,35.656670 90.860641,23.693298 74.914978,20.478582 
	C70.794678,19.647913 66.444305,19.958437 62.356064,19.752623 
	C60.827995,16.619062 59.439598,13.705094 57.992329,10.820665 
	C56.107697,7.064577 54.458271,6.819935 51.550388,10.001563 
	C49.719105,12.005243 48.088501,14.192340 46.434288,16.215910 
	C43.415085,14.557450 40.932667,13.087770 38.355682,11.808590 
	C35.854591,10.567080 33.256428,9.521125 29.987455,8.073313 
	C29.987455,11.706125 30.128532,14.195375 29.958431,16.663177 
	C29.591171,21.991308 28.976223,26.887693 24.672487,31.251127 
	C21.940027,34.021488 20.071857,39.131973 20.366306,42.998840 
	C20.686922,47.209309 18.939423,49.991318 17.312994,53.036007 
	C15.804725,55.859505 13.304515,58.137764 11.646994,60.899704 
	C6.139036,70.077667 4.266103,78.908173 12.155507,84.704964 
z"/>
<path fill="#F9F9F9" opacity="1.000000" stroke="none" 
	d="
M11.898155,84.406830 
	C4.266103,78.908173 6.139036,70.077667 11.646994,60.899704 
	C13.304515,58.137764 15.804725,55.859505 17.312994,53.036007 
	C18.939423,49.991318 20.686922,47.209309 20.366306,42.998840 
	C20.071857,39.131973 21.940027,34.021488 24.672487,31.251127 
	C28.976223,26.887693 29.591171,21.991308 29.958431,16.663177 
	C30.128532,14.195375 29.987455,11.706125 29.987455,8.073313 
	C33.256428,9.521125 35.854591,10.567080 38.355682,11.808590 
	C40.932667,13.087770 43.415085,14.557450 46.434288,16.215910 
	C48.088501,14.192340 49.719105,12.005243 51.550388,10.001563 
	C54.458271,6.819935 56.107697,7.064577 57.992329,10.820665 
	C59.439598,13.705094 60.827995,16.619062 62.356064,19.752623 
	C66.444305,19.958437 70.794678,19.647913 74.914978,20.478582 
	C90.860641,23.693298 98.598946,35.656670 103.900871,49.427563 
	C109.139229,63.033360 112.232719,77.225861 113.068909,91.874252 
	C113.402809,97.723549 114.332062,103.539734 115.018066,109.367722 
	C115.412079,112.715103 114.249611,114.100349 110.606773,114.080948 
	C85.965668,113.949760 61.323521,114.012474 36.388893,114.012474 
	C35.013412,106.323792 36.608009,99.758606 41.679878,93.651695 
	C47.930492,86.125481 55.032017,79.021500 57.461006,69.003754 
	C57.723492,67.921188 57.915131,66.821449 58.139515,65.730278 
	C46.783310,67.995697 39.070316,74.709412 33.343376,84.147949 
	C32.172600,86.077515 30.665028,87.873177 29.032404,89.438133 
	C25.005268,93.298355 21.957441,92.413010 18.821056,87.839081 
	C17.623205,86.092209 14.436083,85.709404 11.898155,84.406830 
M13.803496,79.810875 
	C13.803496,79.810875 13.730692,79.839630 13.983293,80.559082 
	C17.151123,82.731750 19.807032,82.018021 22.417057,79.398018 
	C23.137857,78.674454 24.674608,78.763725 25.836983,78.480042 
	C25.749437,79.681725 25.940832,80.997742 25.506504,82.057274 
	C24.911226,83.509445 23.841072,84.766960 22.974434,86.107895 
	C23.415224,86.533195 23.856012,86.958496 24.296803,87.383797 
	C25.945364,85.785286 27.983662,84.433136 29.176294,82.546425 
	C34.912220,73.472366 41.834198,66.255951 52.490990,62.609337 
	C59.295696,60.280865 64.243134,55.123806 64.637871,47.038139 
	C64.690323,45.963581 65.516777,44.926804 65.984779,43.872532 
	C66.533905,44.016769 67.083023,44.161003 67.632141,44.305241 
	C69.124886,49.097580 67.533539,53.432919 64.869011,57.721836 
	C63.781261,59.472710 62.449177,61.481213 62.404491,63.399899 
	C62.209290,71.781479 58.948872,78.883896 54.039864,85.379700 
	C50.529518,90.024734 46.562325,94.353943 43.374641,99.202530 
	C41.411747,102.188164 40.531738,105.885727 38.990803,109.695648 
	C63.671730,109.695648 87.055992,109.695648 111.187691,109.695648 
	C109.373055,96.599464 108.076790,83.841789 105.734787,71.279060 
	C103.291046,58.170631 99.412758,45.434547 90.632446,34.837616 
	C85.131104,28.198057 77.940010,23.354654 69.550278,24.441320 
	C60.823982,25.571581 57.228504,22.047676 55.048218,14.828915 
	C54.975471,14.588049 54.632095,14.428920 53.998653,13.853791 
	C50.111824,21.395845 42.476978,23.828798 35.717617,27.500256 
	C34.553745,28.132433 33.324619,28.704605 32.300373,29.523146 
	C28.181929,32.814445 24.028521,36.614998 24.758175,42.239033 
	C25.457209,47.627052 23.366203,51.563862 20.746937,55.638630 
	C18.143749,59.688381 15.096853,63.532036 13.079714,67.855713 
	C11.290668,71.690475 8.908131,76.184967 13.803496,79.810875 
M33.834042,17.683800 
	C33.834042,19.647400 33.834042,21.611000 33.834042,24.213692 
	C37.051754,22.527254 39.791088,21.091539 42.926212,19.448387 
	C40.354000,17.943832 38.123791,16.535088 35.768623,15.381448 
	C35.440002,15.220480 34.496910,16.313980 33.834042,17.683800 
z"/>
<path fill="#020202" opacity="1.000000" stroke="none" 
	d="
M13.813080,79.884079 
	C8.908131,76.184967 11.290668,71.690475 13.079714,67.855713 
	C15.096853,63.532036 18.143749,59.688381 20.746937,55.638630 
	C23.366203,51.563862 25.457209,47.627052 24.758175,42.239033 
	C24.028521,36.614998 28.181929,32.814445 32.300373,29.523146 
	C33.324619,28.704605 34.553745,28.132433 35.717617,27.500256 
	C42.476978,23.828798 50.111824,21.395845 53.998653,13.853791 
	C54.632095,14.428920 54.975471,14.588049 55.048218,14.828915 
	C57.228504,22.047676 60.823982,25.571581 69.550278,24.441320 
	C77.940010,23.354654 85.131104,28.198057 90.632446,34.837616 
	C99.412758,45.434547 103.291046,58.170631 105.734787,71.279060 
	C108.076790,83.841789 109.373055,96.599464 111.187691,109.695648 
	C87.055992,109.695648 63.671730,109.695648 38.990803,109.695648 
	C40.531738,105.885727 41.411747,102.188164 43.374641,99.202530 
	C46.562325,94.353943 50.529518,90.024734 54.039864,85.379700 
	C58.948872,78.883896 62.209290,71.781479 62.404491,63.399899 
	C62.449177,61.481213 63.781261,59.472710 64.869011,57.721836 
	C67.533539,53.432919 69.124886,49.097580 67.632141,44.305241 
	C67.083023,44.161003 66.533905,44.016769 65.984779,43.872532 
	C65.516777,44.926804 64.690323,45.963581 64.637871,47.038139 
	C64.243134,55.123806 59.295696,60.280865 52.490990,62.609337 
	C41.834198,66.255951 34.912220,73.472366 29.176294,82.546425 
	C27.983662,84.433136 25.945364,85.785286 24.296803,87.383797 
	C23.856012,86.958496 23.415224,86.533195 22.974434,86.107895 
	C23.841072,84.766960 24.911226,83.509445 25.506504,82.057274 
	C25.940832,80.997742 25.749437,79.681725 25.836983,78.480042 
	C24.674608,78.763725 23.137857,78.674454 22.417057,79.398018 
	C19.807032,82.018021 17.151123,82.731750 14.247159,79.989441 
	C18.821798,79.283417 20.502478,75.884674 17.527819,70.184517 
	C16.021746,74.117020 14.917413,77.000549 13.813080,79.884079 
M33.442310,36.407444 
	C29.737133,38.338924 28.767551,41.157997 30.241865,45.539291 
	C33.620686,42.972683 35.476337,40.589500 33.442310,36.407444 
z"/>
<path fill="#0C0C0C" opacity="1.000000" stroke="none" 
	d="
M33.836151,17.255287 
	C34.496910,16.313980 35.440002,15.220480 35.768623,15.381448 
	C38.123791,16.535088 40.354000,17.943832 42.926212,19.448387 
	C39.791088,21.091539 37.051754,22.527254 33.834042,24.213692 
	C33.834042,21.611000 33.834042,19.647400 33.836151,17.255287 
z"/>
<path fill="#DFDFDF" opacity="1.000000" stroke="none" 
	d="
M33.714390,36.622513 
	C35.476337,40.589500 33.620686,42.972683 30.241865,45.539291 
	C28.767551,41.157997 29.737133,38.338924 33.714390,36.622513 
z"/>
<path fill="#E4E4E4" opacity="1.000000" stroke="none" 
	d="
M13.808289,79.847473 
	C14.917413,77.000549 16.021746,74.117020 17.527819,70.184517 
	C20.502478,75.884674 18.821798,79.283417 14.120859,79.629715 
	C13.730692,79.839630 13.803496,79.810875 13.808289,79.847473 
z"/>
</svg>