<svg version="1.1" id="Layer_1" xmlns="http://www.w3.org/2000/svg" xmlns:xlink="http://www.w3.org/1999/xlink" x="0px" y="0px"
	 width="100%" viewBox="0 0 120 120" enable-background="new 0 0 120 120" xml:space="preserve">
<path fill="#000000" opacity="1.000000" stroke="none" 
	d="
M56.000000,121.000000 
	C37.333332,121.000000 19.166666,121.000000 1.000000,121.000000 
	C1.000000,81.000000 1.000000,41.000000 1.000000,1.000000 
	C41.000000,1.000000 81.000000,1.000000 121.000000,1.000000 
	C121.000000,41.000000 121.000000,81.000000 121.000000,121.000000 
	C99.500000,121.000000 78.000000,121.000000 56.000000,121.000000 
M39.502426,102.000069 
	C59.531567,102.000069 79.560707,102.000069 99.589844,102.000069 
	C99.682808,101.520973 99.775780,101.041870 99.868752,100.562775 
	C98.329163,99.924232 96.823601,99.181664 95.244148,98.664993 
	C88.052368,96.312424 85.381416,93.014397 85.034653,85.236198 
	C84.577026,74.971352 84.649490,64.673012 83.872475,54.436253 
	C83.456398,48.954727 82.309158,43.370190 80.480927,38.188847 
	C77.138771,28.716898 68.725128,24.037659 60.890171,19.009344 
	C53.388622,24.381493 44.745308,28.442480 41.745667,37.823372 
	C39.969048,43.379444 38.630505,49.212303 38.132977,55.009785 
	C37.312428,64.571251 37.421482,74.209015 36.973206,83.806892 
	C36.529488,93.307365 34.490810,95.902634 25.733904,98.991043 
	C24.478638,99.433754 23.305811,100.110214 22.094831,100.678505 
	C22.180468,101.119026 22.266104,101.559547 22.351740,102.000069 
	C27.735764,102.000069 33.119785,102.000069 39.502426,102.000069 
z"/>
<path fill="#030ECA" opacity="1.000000" stroke="none" 
	d="
M39.003117,102.000069 
	C33.119785,102.000069 27.735764,102.000069 22.351740,102.000069 
	C22.266104,101.559547 22.180468,101.119026 22.094831,100.678505 
	C23.305811,100.110214 24.478638,99.433754 25.733904,98.991043 
	C34.490810,95.902634 36.529488,93.307365 36.973206,83.806892 
	C37.421482,74.209015 37.312428,64.571251 38.132977,55.009785 
	C38.630505,49.212303 39.969048,43.379444 41.745667,37.823372 
	C44.745308,28.442480 53.388622,24.381493 60.890171,19.009344 
	C68.725128,24.037659 77.138771,28.716898 80.480927,38.188847 
	C82.309158,43.370190 83.456398,48.954727 83.872475,54.436253 
	C84.649490,64.673012 84.577026,74.971352 85.034653,85.236198 
	C85.381416,93.014397 88.052368,96.312424 95.244148,98.664993 
	C96.823601,99.181664 98.329163,99.924232 99.868752,100.562775 
	C99.775780,101.041870 99.682808,101.520973 99.589844,102.000069 
	C79.560707,102.000069 59.531567,102.000069 39.003117,102.000069 
M65.999924,69.558990 
	C65.999924,66.803360 65.999924,64.047729 65.999924,61.243164 
	C69.347176,61.049374 71.943497,60.899055 74.602203,60.745129 
	C74.602203,57.364697 74.602203,54.337017 74.602203,51.297264 
	C65.297958,51.297264 56.393482,51.297264 47.385426,51.297264 
	C47.385426,54.637169 47.385426,57.671371 47.385426,60.777172 
	C50.356461,60.951572 52.949047,61.103760 56.142548,61.291218 
	C56.142548,68.969162 56.142548,76.348175 56.142548,83.692993 
	C59.692963,83.692993 62.610771,83.692993 65.999924,83.692993 
	C65.999924,79.111771 65.999924,74.825729 65.999924,69.558990 
z"/>
<path fill="#000000" opacity="1.000000" stroke="none" 
	d="
M65.999924,70.049347 
	C65.999924,74.825729 65.999924,79.111771 65.999924,83.692993 
	C62.610771,83.692993 59.692963,83.692993 56.142548,83.692993 
	C56.142548,76.348175 56.142548,68.969162 56.142548,61.291218 
	C52.949047,61.103760 50.356461,60.951572 47.385426,60.777172 
	C47.385426,57.671371 47.385426,54.637169 47.385426,51.297264 
	C56.393482,51.297264 65.297958,51.297264 74.602203,51.297264 
	C74.602203,54.337017 74.602203,57.364697 74.602203,60.745129 
	C71.943497,60.899055 69.347176,61.049374 65.999924,61.243164 
	C65.999924,64.047729 65.999924,66.803360 65.999924,70.049347 
z"/>
</svg>