<svg version="1.1" id="Layer_1" xmlns="http://www.w3.org/2000/svg" xmlns:xlink="http://www.w3.org/1999/xlink" x="0px" y="0px"
	 width="100%" viewBox="0 0 120 120" enable-background="new 0 0 120 120" xml:space="preserve">
<path fill="#000000" opacity="1.000000" stroke="none" 
	d="
M56.000000,121.000000 
	C37.333332,121.000000 19.166666,121.000000 1.000000,121.000000 
	C1.000000,81.000000 1.000000,41.000000 1.000000,1.000000 
	C41.000000,1.000000 81.000000,1.000000 121.000000,1.000000 
	C121.000000,41.000000 121.000000,81.000000 121.000000,121.000000 
	C99.500000,121.000000 78.000000,121.000000 56.000000,121.000000 
M39.501789,101.999992 
	C59.510815,101.999992 79.519844,101.999992 99.528870,101.999992 
	C98.356209,100.153923 96.901520,99.344589 95.351395,98.814186 
	C87.986626,96.294182 85.405838,93.167847 85.036545,85.305237 
	C84.556244,75.079323 84.690895,64.812157 83.859695,54.619926 
	C83.395866,48.932533 81.964111,43.211239 80.165611,37.770641 
	C77.078079,28.430590 68.516762,24.252306 61.060707,18.962267 
	C59.617699,19.904896 58.193134,20.951786 56.665043,21.815512 
	C42.837505,29.631287 37.971344,42.067413 37.942066,57.252041 
	C37.924580,66.319656 37.444771,75.392052 36.968410,84.451546 
	C36.487270,93.601967 34.452126,96.020988 25.586964,99.017426 
	C24.271948,99.461899 23.047781,100.175163 21.781582,100.764076 
	C21.923641,101.176048 22.065701,101.588020 22.207760,101.999992 
	C27.639400,101.999992 33.071037,101.999992 39.501789,101.999992 
z"/>
<path fill="#FFFFFF" opacity="1.000000" stroke="none" 
	d="
M39.002235,101.999992 
	C33.071037,101.999992 27.639400,101.999992 22.207760,101.999992 
	C22.065701,101.588020 21.923641,101.176048 21.781582,100.764076 
	C23.047781,100.175163 24.271948,99.461899 25.586964,99.017426 
	C34.452126,96.020988 36.487270,93.601967 36.968410,84.451546 
	C37.444771,75.392052 37.924580,66.319656 37.942066,57.252041 
	C37.971344,42.067413 42.837505,29.631287 56.665043,21.815512 
	C58.193134,20.951786 59.617699,19.904896 61.060707,18.962267 
	C68.516762,24.252306 77.078079,28.430590 80.165611,37.770641 
	C81.964111,43.211239 83.395866,48.932533 83.859695,54.619926 
	C84.690895,64.812157 84.556244,75.079323 85.036545,85.305237 
	C85.405838,93.167847 87.986626,96.294182 95.351395,98.814186 
	C96.901520,99.344589 98.356209,100.153923 99.528870,101.999992 
	C79.519844,101.999992 59.510815,101.999992 39.002235,101.999992 
M66.000008,69.538223 
	C66.000008,66.761810 66.000008,63.985394 66.000008,60.844536 
	C69.281593,60.844536 72.026352,60.844536 74.726730,60.844536 
	C74.726730,57.379810 74.726730,54.306759 74.726730,51.271317 
	C65.375900,51.271317 56.300766,51.271317 47.271465,51.271317 
	C47.271465,54.626854 47.271465,57.704758 47.271465,61.158203 
	C50.283569,61.158203 53.027809,61.158203 56.147606,61.158203 
	C56.147606,68.956131 56.147606,76.371078 56.147606,83.723755 
	C59.625477,83.723755 62.697376,83.723755 66.000008,83.723755 
	C66.000008,79.141953 66.000008,74.834122 66.000008,69.538223 
z"/>
<path fill="#000000" opacity="1.000000" stroke="none" 
	d="
M66.000008,70.032257 
	C66.000008,74.834122 66.000008,79.141953 66.000008,83.723755 
	C62.697376,83.723755 59.625477,83.723755 56.147606,83.723755 
	C56.147606,76.371078 56.147606,68.956131 56.147606,61.158203 
	C53.027809,61.158203 50.283569,61.158203 47.271465,61.158203 
	C47.271465,57.704758 47.271465,54.626854 47.271465,51.271317 
	C56.300766,51.271317 65.375900,51.271317 74.726730,51.271317 
	C74.726730,54.306759 74.726730,57.379810 74.726730,60.844536 
	C72.026352,60.844536 69.281593,60.844536 66.000008,60.844536 
	C66.000008,63.985394 66.000008,66.761810 66.000008,70.032257 
z"/>
</svg>