<svg version="1.1" id="Layer_1" xmlns="http://www.w3.org/2000/svg" xmlns:xlink="http://www.w3.org/1999/xlink" x="0px" y="0px"
	 width="100%" viewBox="0 0 120 120" enable-background="new 0 0 120 120" xml:space="preserve">
<path fill="#000000" opacity="1.000000" stroke="none" 
	d="
M72.000000,121.000000 
	C48.000000,121.000000 24.500000,121.000000 1.000000,121.000000 
	C1.000000,81.000000 1.000000,41.000000 1.000000,1.000000 
	C41.000000,1.000000 81.000000,1.000000 121.000000,1.000000 
	C121.000000,41.000000 121.000000,81.000000 121.000000,121.000000 
	C104.833336,121.000000 88.666664,121.000000 72.000000,121.000000 
M61.500000,108.000099 
	C73.996109,108.000076 86.496269,108.163795 98.984741,107.854950 
	C101.340248,107.796700 105.112984,106.344704 105.666832,104.681648 
	C106.732361,101.482162 106.624969,97.430214 102.228050,95.633980 
	C100.324181,94.856201 98.399605,92.998627 96.654533,93.189194 
	C92.551216,93.637283 92.032349,90.522591 91.247536,88.248978 
	C90.312218,85.539322 90.157318,82.495033 90.038597,79.580475 
	C89.607712,69.002602 89.601639,58.399715 88.868317,47.845665 
	C88.573982,43.609554 87.163925,39.342064 85.643425,35.322739 
	C82.487091,26.979237 75.485092,22.039934 68.531830,17.158846 
	C66.041382,15.410587 63.511799,12.377279 61.000065,12.377263 
	C58.488346,12.377247 56.043697,15.545238 53.453724,17.135752 
	C39.186729,25.897175 32.191395,38.358559 32.882687,55.338840 
	C33.224190,63.727200 32.694984,72.201134 31.877661,80.569733 
	C31.287304,86.614388 31.578638,93.429085 22.200298,94.269150 
	C17.277334,94.710114 14.905366,99.622498 16.087673,104.264664 
	C17.203011,108.643890 21.239269,107.943825 24.511309,107.966774 
	C36.507027,108.050888 48.503693,108.000099 61.500000,108.000099 
z"/>
<path fill="#FFFFFF" opacity="1.000000" stroke="none" 
	d="
M61.000000,108.000099 
	C48.503693,108.000099 36.507027,108.050888 24.511309,107.966774 
	C21.239269,107.943825 17.203011,108.643890 16.087673,104.264664 
	C14.905366,99.622498 17.277334,94.710114 22.200298,94.269150 
	C31.578638,93.429085 31.287304,86.614388 31.877661,80.569733 
	C32.694984,72.201134 33.224190,63.727200 32.882687,55.338840 
	C32.191395,38.358559 39.186729,25.897175 53.453724,17.135752 
	C56.043697,15.545238 58.488346,12.377247 61.000065,12.377263 
	C63.511799,12.377279 66.041382,15.410587 68.531830,17.158846 
	C75.485092,22.039934 82.487091,26.979237 85.643425,35.322739 
	C87.163925,39.342064 88.573982,43.609554 88.868317,47.845665 
	C89.601639,58.399715 89.607712,69.002602 90.038597,79.580475 
	C90.157318,82.495033 90.312218,85.539322 91.247536,88.248978 
	C92.032349,90.522591 92.551216,93.637283 96.654533,93.189194 
	C98.399605,92.998627 100.324181,94.856201 102.228050,95.633980 
	C106.624969,97.430214 106.732361,101.482162 105.666832,104.681648 
	C105.112984,106.344704 101.340248,107.796700 98.984741,107.854950 
	C86.496269,108.163795 73.996109,108.000076 61.000000,108.000099 
M50.666759,26.028980 
	C44.338207,30.912664 40.203663,37.454880 39.180889,45.170528 
	C38.057789,53.643036 38.608868,62.323338 37.914726,70.871216 
	C37.339703,77.952217 36.001026,84.970406 35.028236,92.020226 
	C34.509548,95.779144 32.373608,97.520271 28.626255,98.103210 
	C26.270504,98.469681 24.067083,99.815376 21.795324,100.721771 
	C21.949432,101.102905 22.103540,101.484039 22.257648,101.865173 
	C48.003757,101.865173 73.749863,101.865173 99.495972,101.865173 
	C98.311913,100.200157 96.802811,99.213242 95.149353,98.650253 
	C87.916641,96.187553 85.334473,92.909515 85.020157,85.022919 
	C84.605423,74.616974 84.669098,64.179199 83.861526,53.806934 
	C83.443130,48.433220 82.047028,43.014107 80.286148,37.892796 
	C77.037170,28.443501 68.472382,24.114292 60.825283,18.845791 
	C57.605515,21.276564 54.500023,23.621063 50.666759,26.028980 
z"/>
<path fill="#000000" opacity="1.000000" stroke="none" 
	d="
M51.030647,25.997272 
	C54.500023,23.621063 57.605515,21.276564 60.825283,18.845791 
	C68.472382,24.114292 77.037170,28.443501 80.286148,37.892796 
	C82.047028,43.014107 83.443130,48.433220 83.861526,53.806934 
	C84.669098,64.179199 84.605423,74.616974 85.020157,85.022919 
	C85.334473,92.909515 87.916641,96.187553 95.149353,98.650253 
	C96.802811,99.213242 98.311913,100.200157 99.495972,101.865173 
	C73.749863,101.865173 48.003757,101.865173 22.257648,101.865173 
	C22.103540,101.484039 21.949432,101.102905 21.795324,100.721771 
	C24.067083,99.815376 26.270504,98.469681 28.626255,98.103210 
	C32.373608,97.520271 34.509548,95.779144 35.028236,92.020226 
	C36.001026,84.970406 37.339703,77.952217 37.914726,70.871216 
	C38.608868,62.323338 38.057789,53.643036 39.180889,45.170528 
	C40.203663,37.454880 44.338207,30.912664 51.030647,25.997272 
M66.000107,77.423141 
	C66.000107,71.990486 66.000107,66.557831 66.000107,60.760941 
	C69.364273,60.760941 72.113136,60.760941 74.684235,60.760941 
	C74.684235,57.296219 74.684235,54.222507 74.684235,51.311935 
	C65.288231,51.311935 56.210968,51.311935 47.313396,51.311935 
	C47.313396,54.710587 47.313396,57.791000 47.313396,61.246414 
	C50.369846,61.246414 53.113708,61.246414 56.230686,61.246414 
	C56.230686,69.049805 56.230686,76.466057 56.230686,83.677704 
	C59.711021,83.677704 62.786289,83.677704 66.000107,83.677704 
	C66.000107,81.703506 66.000107,80.050919 66.000107,77.423141 
z"/>
<path fill="#FFFFFF" opacity="1.000000" stroke="none" 
	d="
M66.000107,77.910736 
	C66.000107,80.050919 66.000107,81.703506 66.000107,83.677704 
	C62.786289,83.677704 59.711021,83.677704 56.230686,83.677704 
	C56.230686,76.466057 56.230686,69.049805 56.230686,61.246414 
	C53.113708,61.246414 50.369846,61.246414 47.313396,61.246414 
	C47.313396,57.791000 47.313396,54.710587 47.313396,51.311935 
	C56.210968,51.311935 65.288231,51.311935 74.684235,51.311935 
	C74.684235,54.222507 74.684235,57.296219 74.684235,60.760941 
	C72.113136,60.760941 69.364273,60.760941 66.000107,60.760941 
	C66.000107,66.557831 66.000107,71.990486 66.000107,77.910736 
z"/>
</svg>