<svg version="1.1" id="Layer_1" xmlns="http://www.w3.org/2000/svg" xmlns:xlink="http://www.w3.org/1999/xlink" x="0px" y="0px"
	 width="100%" viewBox="0 0 120 120" enable-background="new 0 0 120 120" xml:space="preserve">
<path fill="#010101" opacity="1.000000" stroke="none" 
	d="
M62.000000,121.000000 
	C41.333332,121.000000 21.166666,121.000000 1.000000,121.000000 
	C1.000000,81.000000 1.000000,41.000000 1.000000,1.000000 
	C41.000000,1.000000 81.000000,1.000000 121.000000,1.000000 
	C121.000000,41.000000 121.000000,81.000000 121.000000,121.000000 
	C101.500000,121.000000 82.000000,121.000000 62.000000,121.000000 
M50.936871,73.909180 
	C61.143459,72.168442 71.383209,72.815170 80.899567,76.419472 
	C87.387238,78.876663 91.662338,77.503586 95.775238,72.876144 
	C97.519905,70.913200 99.297646,68.936768 100.736732,66.753197 
	C104.968231,60.332592 103.928627,52.858459 97.387520,49.146263 
	C91.808846,45.980267 85.607536,43.047810 79.367279,42.114925 
	C70.161736,40.738743 60.628418,40.515892 51.327145,41.152557 
	C44.060936,41.649929 36.643547,43.431694 29.816198,46.021267 
	C19.801912,49.819618 16.589790,57.386059 20.025316,65.910057 
	C23.524477,74.591934 30.754126,78.093803 39.771290,75.683945 
	C43.173267,74.774750 46.690762,74.297821 50.936871,73.909180 
M61.314865,96.001595 
	C53.331894,95.928802 45.458046,96.448166 37.595337,99.913422 
	C48.956921,106.570816 69.253647,106.782082 81.492577,98.824020 
	C75.067337,97.882858 68.642105,96.941696 61.314865,96.001595 
M62.664108,82.993484 
	C70.322960,83.921547 77.981819,84.849609 85.640671,85.777679 
	C85.911034,85.397446 86.181396,85.017220 86.451752,84.636993 
	C85.200523,83.526314 84.131317,81.900070 82.670090,81.384155 
	C66.841705,75.795639 50.988316,75.738533 35.270672,81.838654 
	C34.156582,82.271034 33.493580,83.865700 32.341877,85.256866 
	C43.020111,84.438789 52.429466,83.717918 62.664108,82.993484 
M33.039463,93.656418 
	C34.095917,94.309883 35.413235,95.751228 36.170338,95.500549 
	C51.577553,90.399429 66.945549,90.366188 82.399567,95.245583 
	C83.333138,95.540337 84.590614,94.809189 85.697380,94.555405 
	C85.176170,93.557419 84.890144,92.244064 84.076950,91.637596 
	C82.943153,90.792030 81.409004,90.489899 80.056915,89.929321 
	C71.616707,86.430054 62.634335,86.278992 53.856472,86.896667 
	C46.723137,87.398621 39.211288,88.047119 33.039463,93.656418 
z"/>
<path fill="#CC0000" opacity="1.000000" stroke="none" 
	d="
M50.546234,73.766510 
	C46.690762,74.297821 43.173267,74.774750 39.771290,75.683945 
	C30.754126,78.093803 23.524477,74.591934 20.025316,65.910057 
	C16.589790,57.386059 19.801912,49.819618 29.816198,46.021267 
	C36.643547,43.431694 44.060936,41.649929 51.327145,41.152557 
	C60.628418,40.515892 70.161736,40.738743 79.367279,42.114925 
	C85.607536,43.047810 91.808846,45.980267 97.387520,49.146263 
	C103.928627,52.858459 104.968231,60.332592 100.736732,66.753197 
	C99.297646,68.936768 97.519905,70.913200 95.775238,72.876144 
	C91.662338,77.503586 87.387238,78.876663 80.899567,76.419472 
	C71.383209,72.815170 61.143459,72.168442 50.546234,73.766510 
z"/>
<path fill="#CC0000" opacity="1.000000" stroke="none" 
	d="
M61.765865,96.001068 
	C68.642105,96.941696 75.067337,97.882858 81.492577,98.824020 
	C69.253647,106.782082 48.956921,106.570816 37.595337,99.913422 
	C45.458046,96.448166 53.331894,95.928802 61.765865,96.001068 
z"/>
<path fill="#CC0000" opacity="1.000000" stroke="none" 
	d="
M62.251465,82.995270 
	C52.429466,83.717918 43.020111,84.438789 32.341877,85.256866 
	C33.493580,83.865700 34.156582,82.271034 35.270672,81.838654 
	C50.988316,75.738533 66.841705,75.795639 82.670090,81.384155 
	C84.131317,81.900070 85.200523,83.526314 86.451752,84.636993 
	C86.181396,85.017220 85.911034,85.397446 85.640671,85.777679 
	C77.981819,84.849609 70.322960,83.921547 62.251465,82.995270 
z"/>
<path fill="#CC0000" opacity="1.000000" stroke="none" 
	d="
M33.083069,93.257233 
	C39.211288,88.047119 46.723137,87.398621 53.856472,86.896667 
	C62.634335,86.278992 71.616707,86.430054 80.056915,89.929321 
	C81.409004,90.489899 82.943153,90.792030 84.076950,91.637596 
	C84.890144,92.244064 85.176170,93.557419 85.697380,94.555405 
	C84.590614,94.809189 83.333138,95.540337 82.399567,95.245583 
	C66.945549,90.366188 51.577553,90.399429 36.170338,95.500549 
	C35.413235,95.751228 34.095917,94.309883 33.083069,93.257233 
z"/>
</svg>