<svg version="1.1" id="Layer_1" xmlns="http://www.w3.org/2000/svg" xmlns:xlink="http://www.w3.org/1999/xlink" x="0px" y="0px"
	 width="100%" viewBox="0 0 120 120" enable-background="new 0 0 120 120" xml:space="preserve">
<path fill="#000000" opacity="1.000000" stroke="none" 
	d="
M76.000000,121.000000 
	C50.666668,121.000000 25.833334,121.000000 1.000000,121.000000 
	C1.000000,81.000000 1.000000,41.000000 1.000000,1.000000 
	C41.000000,1.000000 81.000000,1.000000 121.000000,1.000000 
	C121.000000,41.000000 121.000000,81.000000 121.000000,121.000000 
	C106.166664,121.000000 91.333336,121.000000 76.000000,121.000000 
M82.866104,104.662514 
	C83.683960,104.161133 84.528397,103.698074 85.315460,103.152290 
	C91.556801,98.824348 91.584770,98.581383 88.253220,91.613098 
	C87.359039,89.742828 86.977859,87.595688 85.916931,85.844849 
	C84.629539,83.720276 84.970482,82.856865 87.017784,81.278305 
	C91.751289,77.628548 94.140701,72.486786 93.984695,66.403877 
	C93.687042,54.798233 88.700768,45.627071 79.364540,38.790546 
	C75.988724,36.318581 72.581558,33.889435 69.179985,31.452440 
	C73.261719,23.638832 72.963425,19.782948 67.938446,15.403588 
	C64.591759,12.486890 58.252762,11.907355 54.904060,14.806082 
	C52.903599,16.537731 50.693001,19.109301 50.430450,21.506340 
	C50.058163,24.905241 51.394501,28.491291 51.820236,30.953741 
	C45.825943,36.523518 38.809834,41.182816 34.310669,47.605312 
	C24.544323,61.546627 25.700993,74.678696 37.216270,83.363052 
	C35.700272,87.141045 33.826817,90.906364 32.755405,94.887535 
	C32.270309,96.690063 32.678364,99.862526 33.901676,100.772118 
	C36.924751,103.019897 40.495075,104.880981 44.125443,105.899574 
	C56.828972,109.463905 69.549103,108.822159 82.866104,104.662514 
z"/>
<path fill="#FFFFFF" opacity="1.000000" stroke="none" 
	d="
M82.499939,104.820061 
	C69.549103,108.822159 56.828972,109.463905 44.125443,105.899574 
	C40.495075,104.880981 36.924751,103.019897 33.901676,100.772118 
	C32.678364,99.862526 32.270309,96.690063 32.755405,94.887535 
	C33.826817,90.906364 35.700272,87.141045 37.216270,83.363052 
	C25.700993,74.678696 24.544323,61.546627 34.310669,47.605312 
	C38.809834,41.182816 45.825943,36.523518 51.820236,30.953741 
	C51.394501,28.491291 50.058163,24.905241 50.430450,21.506340 
	C50.693001,19.109301 52.903599,16.537731 54.904060,14.806082 
	C58.252762,11.907355 64.591759,12.486890 67.938446,15.403588 
	C72.963425,19.782948 73.261719,23.638832 69.184341,31.446596 
	C72.581558,33.889435 75.988724,36.318581 79.364540,38.790546 
	C88.700768,45.627071 93.687042,54.798233 93.984695,66.403877 
	C94.140701,72.486786 91.751289,77.628548 87.017784,81.278305 
	C84.970482,82.856865 84.629539,83.720276 85.916931,85.844849 
	C86.977859,87.595688 87.359039,89.742828 88.253220,91.613098 
	C91.584770,98.581383 91.556801,98.824348 85.315460,103.152290 
	C84.528397,103.698074 83.683960,104.161133 82.499939,104.820061 
M65.501488,36.956772 
	C62.760410,35.077477 59.823845,34.672379 57.096058,36.661377 
	C51.191490,40.966763 44.838413,44.894180 39.796486,50.073898 
	C35.398495,54.592083 33.503788,60.912971 33.995548,67.560036 
	C34.439213,73.556984 39.050873,78.155502 43.503307,77.000603 
	C54.271370,74.207535 65.024544,73.918709 75.826088,76.935486 
	C81.688454,78.572792 85.395020,76.309258 87.328033,70.162880 
	C89.338539,63.770077 87.246223,58.003857 84.050186,52.673111 
	C79.827271,45.629589 73.267494,41.032166 65.501488,36.956772 
M61.456924,81.000000 
	C59.463989,81.000000 57.471050,80.999657 55.478115,81.000053 
	C45.353321,81.002052 43.773655,82.156822 40.605480,92.080078 
	C53.880539,85.703476 67.275543,86.371620 81.197327,91.459564 
	C80.263542,86.396912 78.797661,82.808640 74.091759,82.082802 
	C70.238678,81.488495 66.316223,81.343941 61.456924,81.000000 
M63.246193,93.038200 
	C55.629272,93.536476 48.092049,94.338257 41.125233,98.641220 
	C58.226406,103.482742 73.355713,103.238365 81.589676,97.339745 
	C75.150589,95.937553 69.578545,94.724174 63.246193,93.038200 
M65.683617,25.848547 
	C65.062500,23.894451 64.981216,21.416485 63.703373,20.099688 
	C61.335705,17.659845 59.047607,19.156445 57.077427,21.393900 
	C54.741154,24.047119 56.207069,25.799400 58.143299,27.669836 
	C61.125675,30.550865 63.113186,28.612398 65.683617,25.848547 
z"/>
<path fill="#000000" opacity="1.000000" stroke="none" 
	d="
M65.887558,36.991714 
	C73.267494,41.032166 79.827271,45.629589 84.050186,52.673111 
	C87.246223,58.003857 89.338539,63.770077 87.328033,70.162880 
	C85.395020,76.309258 81.688454,78.572792 75.826088,76.935486 
	C65.024544,73.918709 54.271370,74.207535 43.503307,77.000603 
	C39.050873,78.155502 34.439213,73.556984 33.995548,67.560036 
	C33.503788,60.912971 35.398495,54.592083 39.796486,50.073898 
	C44.838413,44.894180 51.191490,40.966763 57.096058,36.661377 
	C59.823845,34.672379 62.760410,35.077477 65.887558,36.991714 
M63.806908,65.711418 
	C63.924374,63.925514 64.041840,62.139614 64.121445,60.929348 
	C67.104370,59.856339 69.741943,58.907558 72.379517,57.958778 
	C72.336739,57.218979 72.293961,56.479176 72.251190,55.739376 
	C69.639618,54.922260 67.028038,54.105145 64.781364,53.402199 
	C63.858906,50.860844 62.904625,48.231823 61.950340,45.602802 
	C61.206707,45.654934 60.463074,45.707069 59.719440,45.759201 
	C58.911716,48.380032 58.103992,51.000866 57.436214,53.167618 
	C54.819099,54.149918 52.206470,55.130535 49.593842,56.111149 
	C49.660286,56.845367 49.726727,57.579586 49.793171,58.313805 
	C52.417728,59.105648 55.042286,59.897491 56.835011,60.438366 
	C58.151508,63.139034 59.291260,65.477119 60.431011,67.815208 
	C61.346519,67.295807 62.262024,66.776405 63.806908,65.711418 
z"/>
<path fill="#000000" opacity="1.000000" stroke="none" 
	d="
M61.940720,81.000000 
	C66.316223,81.343941 70.238678,81.488495 74.091759,82.082802 
	C78.797661,82.808640 80.263542,86.396912 81.197327,91.459564 
	C67.275543,86.371620 53.880539,85.703476 40.605480,92.080078 
	C43.773655,82.156822 45.353321,81.002052 55.478115,81.000053 
	C57.471050,80.999657 59.463989,81.000000 61.940720,81.000000 
z"/>
<path fill="#000000" opacity="1.000000" stroke="none" 
	d="
M63.626343,93.274498 
	C69.578545,94.724174 75.150589,95.937553 81.589676,97.339745 
	C73.355713,103.238365 58.226406,103.482742 41.125233,98.641220 
	C48.092049,94.338257 55.629272,93.536476 63.626343,93.274498 
z"/>
<path fill="#000000" opacity="1.000000" stroke="none" 
	d="
M65.384811,26.108639 
	C63.113186,28.612398 61.125675,30.550865 58.143299,27.669836 
	C56.207069,25.799400 54.741154,24.047119 57.077427,21.393900 
	C59.047607,19.156445 61.335705,17.659845 63.703373,20.099688 
	C64.981216,21.416485 65.062500,23.894451 65.384811,26.108639 
z"/>
<path fill="#FFFFFF" opacity="1.000000" stroke="none" 
	d="
M63.492218,65.984207 
	C62.262024,66.776405 61.346519,67.295807 60.431011,67.815208 
	C59.291260,65.477119 58.151508,63.139034 56.835011,60.438366 
	C55.042286,59.897491 52.417728,59.105648 49.793171,58.313805 
	C49.726727,57.579586 49.660286,56.845367 49.593842,56.111149 
	C52.206470,55.130535 54.819099,54.149918 57.436214,53.167618 
	C58.103992,51.000866 58.911716,48.380032 59.719440,45.759201 
	C60.463074,45.707069 61.206707,45.654934 61.950340,45.602802 
	C62.904625,48.231823 63.858906,50.860844 64.781364,53.402199 
	C67.028038,54.105145 69.639618,54.922260 72.251190,55.739376 
	C72.293961,56.479176 72.336739,57.218979 72.379517,57.958778 
	C69.741943,58.907558 67.104370,59.856339 64.121445,60.929348 
	C64.041840,62.139614 63.924374,63.925514 63.492218,65.984207 
z"/>
</svg>