<svg version="1.1" id="Layer_1" xmlns="http://www.w3.org/2000/svg" xmlns:xlink="http://www.w3.org/1999/xlink" x="0px" y="0px"
	 width="100%" viewBox="0 0 120 120" enable-background="new 0 0 120 120" xml:space="preserve">
<path fill="#010101" opacity="1.000000" stroke="none" 
	d="
M76.000000,121.000000 
	C50.666668,121.000000 25.833334,121.000000 1.000000,121.000000 
	C1.000000,81.000000 1.000000,41.000000 1.000000,1.000000 
	C41.000000,1.000000 81.000000,1.000000 121.000000,1.000000 
	C121.000000,41.000000 121.000000,81.000000 121.000000,121.000000 
	C106.166664,121.000000 91.333336,121.000000 76.000000,121.000000 
M37.123100,79.372299 
	C36.651588,80.817932 36.180073,82.263565 35.722767,83.665649 
	C52.856827,83.665649 69.573669,83.665649 86.670616,83.665649 
	C85.808243,81.775024 85.137894,80.305397 83.821480,78.198364 
	C69.122284,78.135727 54.423096,78.061089 39.723843,78.045944 
	C38.990391,78.045197 38.256405,78.560867 37.123100,79.372299 
M97.363304,102.274719 
	C79.746956,102.183609 62.130642,102.084953 44.514240,102.005692 
	C38.694481,101.979507 32.872570,101.932510 27.056973,102.090836 
	C26.299377,102.111458 25.573757,103.306595 24.975296,104.826294 
	C26.112696,105.581276 27.246210,106.987999 28.388071,106.994797 
	C50.251034,107.125137 72.114998,107.076233 93.978691,107.108505 
	C96.869751,107.112770 98.450684,106.138092 97.363304,102.274719 
M28.437216,97.825325 
	C49.278843,97.881325 70.120468,97.945976 90.962105,97.951469 
	C91.585373,97.951637 92.208809,97.331749 92.959633,96.133286 
	C92.965179,93.800911 92.970726,91.468529 92.507439,88.416100 
	C91.858360,88.288864 91.209442,88.051323 90.560188,88.050415 
	C71.067017,88.023132 51.573772,88.005936 32.080666,88.046783 
	C30.984447,88.049080 29.889296,88.559410 28.222256,89.431274 
	C28.204117,91.954506 28.185976,94.477730 28.437216,97.825325 
M84.718262,47.735855 
	C86.202232,44.693954 87.686203,41.652050 89.334473,38.273354 
	C69.966347,38.273354 51.376469,38.273354 32.260437,38.273354 
	C34.307301,41.906933 36.070854,45.037582 38.538326,48.658535 
	C52.978279,48.754021 67.418190,48.861626 81.858299,48.911247 
	C82.626526,48.913887 83.396439,48.427155 84.718262,47.735855 
M37.991661,51.964691 
	C37.991661,59.883312 37.991661,67.801933 37.991661,75.695587 
	C53.697365,75.695587 68.619987,75.695587 83.882347,75.695587 
	C83.882347,67.279724 83.882347,59.159782 83.448212,50.313759 
	C68.853928,50.230434 54.259663,50.137047 39.665264,50.105270 
	C39.150078,50.104149 38.633553,50.714493 37.991661,51.964691 
M30.505495,25.014408 
	C25.306345,26.386246 29.074768,29.998482 28.103352,32.648216 
	C50.002892,32.648216 71.382095,32.648216 92.709999,32.648216 
	C92.709999,29.674480 92.709999,27.101654 92.709999,24.617008 
	C90.144341,24.894785 86.711891,24.273350 85.753113,25.533689 
	C80.136063,32.917511 72.717690,26.764217 66.725868,29.365358 
	C66.064522,27.293224 65.635361,25.948566 65.164337,24.472757 
	C61.687107,25.648075 58.667412,25.871605 55.308804,28.025715 
	C51.206360,30.656898 44.130489,28.652025 38.488125,28.652025 
	C38.022827,27.178234 37.599392,25.837048 37.236450,24.687468 
	C34.951149,24.811096 33.163914,24.907784 30.505495,25.014408 
z"/>
<path fill="#CC0000" opacity="1.000000" stroke="none" 
	d="
M83.882347,51.039848 
	C83.882347,59.159782 83.882347,67.279724 83.882347,75.695587 
	C68.619987,75.695587 53.697365,75.695587 37.991661,75.695587 
	C37.991661,67.801933 37.991661,59.883312 38.515060,51.487793 
	C53.986420,51.020546 68.934380,51.030197 83.882347,51.039848 
z"/>
<path fill="#CC0000" opacity="1.000000" stroke="none" 
	d="
M37.834408,48.168236 
	C36.070854,45.037582 34.307301,41.906933 32.260437,38.273354 
	C51.376469,38.273354 69.966347,38.273354 89.334473,38.273354 
	C87.686203,41.652050 86.202232,44.693954 83.962021,47.892792 
	C68.081993,48.089226 52.958202,48.128731 37.834408,48.168236 
z"/>
<path fill="#CC0000" opacity="1.000000" stroke="none" 
	d="
M92.976280,89.136154 
	C92.970726,91.468529 92.965179,93.800911 92.438232,96.566727 
	C70.667168,97.000427 49.417500,97.000694 28.167835,97.000961 
	C28.185976,94.477730 28.204117,91.954506 28.989717,89.191498 
	C50.830212,89.013191 71.903244,89.074677 92.976280,89.136154 
z"/>
<path fill="#CC0000" opacity="1.000000" stroke="none" 
	d="
M30.941086,25.009438 
	C33.163914,24.907784 34.951149,24.811096 37.236450,24.687468 
	C37.599392,25.837048 38.022827,27.178234 38.488125,28.652025 
	C44.130489,28.652025 51.206360,30.656898 55.308804,28.025715 
	C58.667412,25.871605 61.687107,25.648075 65.164337,24.472757 
	C65.635361,25.948566 66.064522,27.293224 66.725868,29.365358 
	C72.717690,26.764217 80.136063,32.917511 85.753113,25.533689 
	C86.711891,24.273350 90.144341,24.894785 92.709999,24.617008 
	C92.709999,27.101654 92.709999,29.674480 92.709999,32.648216 
	C71.382095,32.648216 50.002892,32.648216 28.103352,32.648216 
	C29.074768,29.998482 25.306345,26.386246 30.941086,25.009438 
z"/>
<path fill="#CC0000" opacity="1.000000" stroke="none" 
	d="
M97.805161,102.979729 
	C98.450684,106.138092 96.869751,107.112770 93.978691,107.108505 
	C72.114998,107.076233 50.251034,107.125137 28.388071,106.994797 
	C27.246210,106.987999 26.112696,105.581276 25.192646,104.063492 
	C27.397530,103.200714 29.384960,103.016205 31.372614,103.013725 
	C53.516777,102.986168 75.660973,102.986740 97.805161,102.979729 
z"/>
<path fill="#CC0000" opacity="1.000000" stroke="none" 
	d="
M84.467545,78.835762 
	C85.137894,80.305397 85.808243,81.775024 86.670616,83.665649 
	C69.573669,83.665649 52.856827,83.665649 35.722767,83.665649 
	C36.180073,82.263565 36.651588,80.817932 37.820370,79.172806 
	C53.834274,78.927467 69.150909,78.881615 84.467545,78.835762 
z"/>
<path fill="#777777" opacity="1.000000" stroke="none" 
	d="
M97.584229,102.627228 
	C75.660973,102.986740 53.516777,102.986168 31.372614,103.013725 
	C29.384960,103.016205 27.397530,103.200714 25.121662,103.629196 
	C25.573757,103.306595 26.299377,102.111458 27.056973,102.090836 
	C32.872570,101.932510 38.694481,101.979507 44.514240,102.005692 
	C62.130642,102.084953 79.746956,102.183609 97.584229,102.627228 
z"/>
<path fill="#C0C0C0" opacity="1.000000" stroke="none" 
	d="
M28.302525,97.413147 
	C49.417500,97.000694 70.667168,97.000427 92.374496,97.000557 
	C92.208809,97.331749 91.585373,97.951637 90.962105,97.951469 
	C70.120468,97.945976 49.278843,97.881325 28.302525,97.413147 
z"/>
<path fill="#555555" opacity="1.000000" stroke="none" 
	d="
M92.741859,88.776123 
	C71.903244,89.074677 50.830212,89.013191 29.275414,88.892502 
	C29.889296,88.559410 30.984447,88.049080 32.080666,88.046783 
	C51.573772,88.005936 71.067017,88.023132 90.560188,88.050415 
	C91.209442,88.051323 91.858360,88.288864 92.741859,88.776123 
z"/>
<path fill="#444444" opacity="1.000000" stroke="none" 
	d="
M38.186367,48.413383 
	C52.958202,48.128731 68.081993,48.089226 83.685677,48.108978 
	C83.396439,48.427155 82.626526,48.913887 81.858299,48.911247 
	C67.418190,48.861626 52.978279,48.754021 38.186367,48.413383 
z"/>
<path fill="#666666" opacity="1.000000" stroke="none" 
	d="
M83.665283,50.676804 
	C68.934380,51.030197 53.986420,51.020546 38.578053,51.025368 
	C38.633553,50.714493 39.150078,50.104149 39.665264,50.105270 
	C54.259663,50.137047 68.853928,50.230434 83.665283,50.676804 
z"/>
<path fill="#BBBBBB" opacity="1.000000" stroke="none" 
	d="
M84.144516,78.517059 
	C69.150909,78.881615 53.834274,78.927467 38.020153,78.904694 
	C38.256405,78.560867 38.990391,78.045197 39.723843,78.045944 
	C54.423096,78.061089 69.122284,78.135727 84.144516,78.517059 
z"/>
</svg>