<svg version="1.1" id="Layer_1" xmlns="http://www.w3.org/2000/svg" xmlns:xlink="http://www.w3.org/1999/xlink" x="0px" y="0px"
	 width="100%" viewBox="0 0 120 120" enable-background="new 0 0 120 120" xml:space="preserve">
<path fill="#010102" opacity="1.000000" stroke="none" 
	d="
M72.000000,121.000000 
	C48.000000,121.000000 24.500000,121.000000 1.000000,121.000000 
	C1.000000,81.000000 1.000000,41.000000 1.000000,1.000000 
	C41.000000,1.000000 81.000000,1.000000 121.000000,1.000000 
	C121.000000,41.000000 121.000000,81.000000 121.000000,121.000000 
	C104.833336,121.000000 88.666664,121.000000 72.000000,121.000000 
M86.397766,104.857422 
	C90.668861,105.396210 94.948486,106.383705 99.207817,106.302826 
	C101.700249,106.255501 104.160309,104.503586 106.634933,103.518501 
	C105.661530,101.614479 105.159035,98.752502 103.621246,97.996559 
	C99.882233,96.158516 95.738235,94.724609 91.618332,94.180283 
	C85.565338,93.380562 79.391190,93.497810 73.268661,93.224396 
	C78.377319,90.640068 84.085869,89.436859 83.907654,82.242638 
	C85.787590,82.062599 87.416664,81.906586 90.505409,81.610771 
	C89.329262,70.764046 88.805428,59.975758 86.868759,49.447361 
	C83.846947,33.019863 74.586571,22.071173 57.527359,19.233736 
	C56.151550,17.109789 53.742176,13.800920 52.620285,14.191374 
	C50.086746,15.073125 48.189400,17.782845 45.819176,19.944145 
	C44.702057,18.759806 43.861153,17.440868 42.662430,16.704134 
	C41.115692,15.753511 39.282715,15.268634 37.573006,14.583183 
	C37.137733,16.403547 36.693745,18.221882 36.269344,20.044777 
	C35.712883,22.434893 35.639019,25.072456 34.540436,27.177040 
	C30.548594,34.824299 25.900110,42.138706 22.104557,49.875584 
	C18.628183,56.961849 21.700209,62.333488 29.386906,63.950882 
	C29.987173,64.077194 30.661968,64.291573 31.096903,64.689392 
	C33.860241,67.216927 36.036560,65.439621 38.062546,63.676044 
	C42.923634,59.444569 47.657719,55.067112 52.523842,50.841599 
	C53.215248,50.241215 54.357189,50.159664 55.290604,49.837975 
	C55.603771,50.167683 55.916939,50.497395 56.230106,50.827103 
	C54.484592,53.923946 53.001312,57.212059 50.920753,60.064529 
	C48.785179,62.992424 45.937073,65.388702 43.624882,68.201813 
	C34.924519,78.787041 36.889751,88.479683 48.365334,92.109230 
	C48.559334,92.170593 48.631050,92.618584 49.107990,93.609581 
	C44.482437,93.609581 40.201782,93.468552 35.934002,93.642860 
	C29.643085,93.899803 23.161413,93.834076 18.166349,98.588524 
	C16.870533,99.821915 14.977604,102.462837 15.389006,103.060997 
	C16.480799,104.648384 18.557312,105.881462 20.481916,106.466278 
	C21.905779,106.898941 23.697916,105.961319 25.339958,105.859512 
	C37.573624,105.100967 49.803177,104.095268 62.049583,103.788620 
	C69.827042,103.593887 77.631180,104.464561 86.397766,104.857422 
z"/>
<path fill="#ECEFF1" opacity="1.000000" stroke="none" 
	d="
M85.910561,104.857437 
	C77.631180,104.464561 69.827042,103.593887 62.049583,103.788620 
	C49.803177,104.095268 37.573624,105.100967 25.339958,105.859512 
	C23.697916,105.961319 21.905779,106.898941 20.481916,106.466278 
	C18.557312,105.881462 16.480799,104.648384 15.389006,103.060997 
	C14.977604,102.462837 16.870533,99.821915 18.166349,98.588524 
	C23.161413,93.834076 29.643085,93.899803 35.934002,93.642860 
	C40.201782,93.468552 44.482437,93.609581 49.107990,93.609581 
	C48.631050,92.618584 48.559334,92.170593 48.365334,92.109230 
	C36.889751,88.479683 34.924519,78.787041 43.624882,68.201813 
	C45.937073,65.388702 48.785179,62.992424 50.920753,60.064529 
	C53.001312,57.212059 54.484592,53.923946 56.230106,50.827103 
	C55.916939,50.497395 55.603771,50.167683 55.290604,49.837975 
	C54.357189,50.159664 53.215248,50.241215 52.523842,50.841599 
	C47.657719,55.067112 42.923634,59.444569 38.062546,63.676044 
	C36.036560,65.439621 33.860241,67.216927 31.096903,64.689392 
	C30.661968,64.291573 29.987173,64.077194 29.386906,63.950882 
	C21.700209,62.333488 18.628183,56.961849 22.104557,49.875584 
	C25.900110,42.138706 30.548594,34.824299 34.540436,27.177040 
	C35.639019,25.072456 35.712883,22.434893 36.269344,20.044777 
	C36.693745,18.221882 37.137733,16.403547 37.573006,14.583183 
	C39.282715,15.268634 41.115692,15.753511 42.662430,16.704134 
	C43.861153,17.440868 44.702057,18.759806 45.819176,19.944145 
	C48.189400,17.782845 50.086746,15.073125 52.620285,14.191374 
	C53.742176,13.800920 56.151550,17.109789 57.527359,19.233736 
	C74.586571,22.071173 83.846947,33.019863 86.868759,49.447361 
	C88.805428,59.975758 89.329262,70.764046 90.505409,81.610771 
	C87.416664,81.906586 85.787590,82.062599 83.907654,82.242638 
	C84.085869,89.436859 78.377319,90.640068 73.268661,93.224396 
	C79.391190,93.497810 85.565338,93.380562 91.618332,94.180283 
	C95.738235,94.724609 99.882233,96.158516 103.621246,97.996559 
	C105.159035,98.752502 105.661530,101.614479 106.634933,103.518494 
	C104.160309,104.503586 101.700249,106.255501 99.207817,106.302826 
	C94.948486,106.383705 90.668861,105.396210 85.910561,104.857437 
M37.098824,29.146286 
	C36.732021,29.725149 36.365215,30.304014 35.538242,31.405420 
	C31.937204,38.312489 28.057835,45.092785 24.833721,52.171532 
	C22.711302,56.831440 24.692385,59.932556 28.716429,60.603695 
	C30.354723,59.156254 31.696745,57.970573 33.038769,56.784893 
	C33.947029,58.029884 34.855293,59.274876 35.903114,60.711170 
	C42.942822,51.960163 55.651474,48.387241 59.928051,36.005196 
	C60.336514,39.064835 59.252857,41.746986 59.370342,44.375450 
	C59.830025,54.659939 54.728718,61.937992 47.695385,68.648018 
	C45.151077,71.075371 43.846466,74.802155 41.574417,78.609161 
	C56.989079,78.609161 70.862289,78.609161 85.783829,78.609161 
	C84.752373,68.633362 84.470673,58.948032 82.605797,49.577778 
	C80.091896,36.946445 74.438316,26.193012 59.957150,23.754635 
	C56.333271,23.144436 53.174770,22.387243 52.911705,18.228451 
	C50.705902,19.917749 48.827030,22.462053 46.723648,22.663626 
	C44.521420,22.874670 42.103539,20.835428 40.728973,20.210938 
	C39.822945,22.820530 38.736534,25.949659 37.098824,29.146286 
M50.479607,97.113533 
	C40.864044,99.420380 30.196949,95.293465 20.298534,101.905754 
	C47.880920,99.851143 74.483833,99.804085 101.261917,101.141640 
	C97.733482,99.617699 94.069435,98.467445 90.330727,98.119537 
	C83.540222,97.487679 76.466362,98.305374 69.956215,96.705475 
	C63.457684,95.108429 57.516335,94.943901 50.479607,97.113533 
M68.001373,88.905098 
	C71.976028,87.708298 76.857971,88.407150 79.788475,83.379776 
	C67.006271,83.379776 54.913681,83.379776 42.821091,83.379776 
	C42.636673,83.841362 42.452255,84.302956 42.267838,84.764542 
	C44.433285,85.810379 46.520992,87.506638 48.779182,87.776535 
	C54.844616,88.501495 60.982937,88.616638 68.001373,88.905098 
z"/>
<path fill="#040404" opacity="1.000000" stroke="none" 
	d="
M37.650124,29.078789 
	C38.736534,25.949659 39.822945,22.820530 40.728973,20.210938 
	C42.103539,20.835428 44.521420,22.874670 46.723648,22.663626 
	C48.827030,22.462053 50.705902,19.917749 52.911705,18.228451 
	C53.174770,22.387243 56.333271,23.144436 59.957150,23.754635 
	C74.438316,26.193012 80.091896,36.946445 82.605797,49.577778 
	C84.470673,58.948032 84.752373,68.633362 85.783829,78.609161 
	C70.862289,78.609161 56.989079,78.609161 41.574417,78.609161 
	C43.846466,74.802155 45.151077,71.075371 47.695385,68.648018 
	C54.728718,61.937992 59.830025,54.659939 59.370342,44.375450 
	C59.252857,41.746986 60.336514,39.064835 59.928051,36.005196 
	C55.651474,48.387241 42.942822,51.960163 35.903114,60.711170 
	C34.855293,59.274876 33.947029,58.029884 33.038765,56.784889 
	C31.696745,57.970573 30.354723,59.156254 28.716429,60.603695 
	C24.692385,59.932556 22.711302,56.831440 24.833721,52.171532 
	C28.057835,45.092785 31.937204,38.312489 36.141922,31.282032 
	C37.364643,32.975849 37.983685,34.793056 38.602726,36.610264 
	C40.073132,35.012791 42.492016,33.594936 42.834980,31.783945 
	C43.838482,26.485039 39.648510,29.579693 37.650124,29.078789 
z"/>
<path fill="#151515" opacity="1.000000" stroke="none" 
	d="
M50.909554,97.074623 
	C57.516335,94.943901 63.457684,95.108429 69.956215,96.705475 
	C76.466362,98.305374 83.540222,97.487679 90.330727,98.119537 
	C94.069435,98.467445 97.733482,99.617699 101.261917,101.141640 
	C74.483833,99.804085 47.880920,99.851143 20.298534,101.905754 
	C30.196949,95.293465 40.864044,99.420380 50.909554,97.074623 
z"/>
<path fill="#060606" opacity="1.000000" stroke="none" 
	d="
M67.546844,88.939514 
	C60.982937,88.616638 54.844616,88.501495 48.779182,87.776535 
	C46.520992,87.506638 44.433285,85.810379 42.267838,84.764542 
	C42.452255,84.302956 42.636673,83.841362 42.821091,83.379776 
	C54.913681,83.379776 67.006271,83.379776 79.788475,83.379776 
	C76.857971,88.407150 71.976028,87.708298 67.546844,88.939514 
z"/>
<path fill="#EBEBEB" opacity="1.000000" stroke="none" 
	d="
M37.374474,29.112537 
	C39.648510,29.579693 43.838482,26.485039 42.834980,31.783945 
	C42.492016,33.594936 40.073132,35.012791 38.602726,36.610264 
	C37.983685,34.793056 37.364643,32.975849 36.372005,31.020760 
	C36.365215,30.304014 36.732021,29.725149 37.374474,29.112537 
z"/>
</svg>